<svg width="42" height="24" fill="none" xmlns="http://www.w3.org/2000/svg"><path fill-rule="evenodd" clip-rule="evenodd" d="M16.731 6.005a406.89 406.89 0 0 0-.86 1.939l-.303.678c-.258.575-.516 1.15-.747 1.734-.141.359-.087.642.131.83.112.097.267.17.462.213.163.036.336.044.504.048.146.004.293.003.451.002l.261-.002-.09.226v.001c-.041.104-.078.197-.118.29-.111.263-.225.525-.338.787a46.667 46.667 0 0 0-.663 1.582c-.154.393-.025.715.314.888.052.027.11.051.173.071.159.05.331.067.5.067.237.003.475 0 .713-.001.413-.004.824-.008 1.235.013.367.02.557-.088.684-.439.124-.342.276-.674.434-1.018.07-.15.14-.303.21-.46h-.004l.001-.002h-1.13c-.16-.001-.265-.02-.32-.066-.073-.065-.056-.184.034-.388.17-.387.343-.773.515-1.159l.002-.002v-.001l.299-.67.472-1.06.366-.823h-.003V9.28l-.135-.008a3.172 3.172 0 0 0-.2-.009h-1.47a.597.597 0 0 1-.285-.053c-.111-.067-.114-.198-.02-.41.08-.18.162-.36.243-.538.11-.239.219-.477.322-.718a46.07 46.07 0 0 0 .454-1.088l.187-.452h10.02l-.01.195c-.007.145-.015.29-.01.434.01.223-.074.295-.297.288-.285-.012-.57-.01-.867-.007l-.384.002v.443c0 .578-.002 1.135.01 1.69 0 .024.023.054.054.083a.31.31 0 0 0 .162.086c.348.017.698.017 1.049.005.112-.004.188.019.233.073.034.044.049.11.048.197-.005.51-.005 1.02 0 1.53.002.225-.104.285-.315.28a43.014 43.014 0 0 0-.983-.005c-.263 0-.524.001-.786-.002-.187-.003-.276.045-.273.247.007.61.005 1.22 0 1.829 0 .104.024.17.08.204.04.029.099.04.179.04.244-.005.487-.003.73-.002.338.002.674.004 1.01-.008.123-.005.207.009.265.047.074.056.099.157.097.319a351.71 351.71 0 0 0-.005 3.703v.525c0 .08.008.16.014.24.004.044.008.089.01.133h.007v.005h2.254V13.916c-.001-.15-.003-.293.228-.293.397.002.793.001 1.19 0 .704-.002 1.407-.004 2.11.01.22.004.396.061.526.164.176.145.266.377.269.68.005.508.005 1.02 0 1.529-.005.49-.147.626-.624.628h-1.714l.198.456.002.004v.001c.208.48.406.938.614 1.39a.102.102 0 0 0 .03.035c.05.044.152.074.224.074.509.01 1.02.012 1.529-.003 1.188-.036 2.018-.895 2.018-2.078v-2.88c0-.83-.308-1.474-.871-1.868a2.497 2.497 0 0 0-1.128-.418c-.162-.022-.325-.037-.496-.054l-.219-.022.002-.534v-.002c.003-.39.005-.772-.005-1.156-.022-.847-.273-1.558-.88-2.047a2.622 2.622 0 0 0-.627-.37c-.487-.21-.998-.262-1.524-.255-.445.006-.671.007-.78-.102-.104-.115-.09-.345-.065-.794h.008l-.007-.005v.005h-.008v-.008L38.084 6h-6.78v.003l-3.83.002V6l-24.902.005H16.73zm5.41 3.509c0-.139-.025-.222-.1-.262a.38.38 0 0 0-.187-.027c-.272.012-.543.01-.822.007l-.357-.002-.001-.002h-.004V6.941h.003V6.94h5.27v2.27H24.53l-.01.143a2.43 2.43 0 0 0-.01.184l.001 1.433v.001c0 1.672.002 3.342-.008 5.014 0 .218.058.306.212.33.037.005.08.006.129.005.55-.017 1.099-.012 1.648.002.014 0 .029.003.044.008.087.023.2.106.202.155.014.563.013 1.124.012 1.7v.39h-7.752v-.002h-.003l.077-.187c.048-.115.094-.227.144-.338.071-.157.144-.314.217-.471a24.9 24.9 0 0 0 .426-.945c.098-.235.225-.336.49-.324.293.014.588.012.882.01.206-.003.412-.004.617 0 .219.004.293-.072.293-.296-.007-2.17-.007-4.339 0-6.508zM6.695 18.598a27.564 27.564 0 0 0 1.109-.002c.328-.01.634-.109.891-.276.333-.217.584-.551.697-.964.08-.295.125-.61.125-.914.005-2.15.004-4.299.003-6.448V6.208H7.255v.001h-.004V6.594l-.024 9.345c0 .1 0 .199-.005.3-.02.294-.128.422-.396.445a1.05 1.05 0 0 1-.073.003H5.646l.174.39c.223.501.431.97.65 1.435.026.052.148.084.225.086zm5.558-1.928a8.308 8.308 0 0 1-.794-3.05 832.617 832.617 0 0 0-.238-3.133l-.076-.988c-.004-.044-.003-.089-.002-.138l.002-.083H13.412l.06.74c.043.523.086 1.042.125 1.561l.095 1.284c.03.428.062.856.094 1.285a.48.48 0 0 0 .041.175c.214.42.072.79-.117 1.178-.218.442-.416.893-.627 1.37-.095.218-.194.442-.297.672l-.002-.001v.001a15.974 15.974 0 0 0-.184-.288c-.131-.203-.25-.389-.347-.585zm-6.902-4.123c.058-.764.116-1.53.176-2.3l.074-.964H3.325v.002h-.003l-.082 1.087c-.058.764-.115 1.52-.182 2.277-.033.377-.078.752-.123 1.127-.033.277-.067.553-.095.83-.017.165-.007.34.024.503.015.09.058.174.1.258.017.033.034.067.049.1.27.6.544 1.204.833 1.843l.086.19v.002c.433-.541.695-1.116.897-1.711a11.45 11.45 0 0 0 .146-.464c.233-.807.293-1.636.353-2.467l.006-.092.017-.221zm9.691 3.701c.022-.05.135-.098.19-.084.659.17 1.325.155 1.992.14.32-.007.639-.014.957 0 .102.003.203.002.323 0h.221v.001l-.095.208-.078.174c-.26.571-.503 1.11-.755 1.643l-.072.152c-.029.062-.158.11-.242.11-.929.008-1.855.012-2.784-.002-.142-.002-.282-.038-.436-.077a5.049 5.049 0 0 0-.239-.057l.001-.002.076-.166a199.373 199.373 0 0 1 .941-2.04zm3.683.057v-.001l.001-.003v.004h-.001zM36.504 9.19c.1.002.2.003.299-.001.675-.034 1.123-.524 1.104-1.198a1.107 1.107 0 0 0-1.097-1.082h-.063c-.64.016-1.092.46-1.12 1.118-.003.112-.003.225-.003.337v.112c0 .477.244.714.73.713l.15.001zm-5.189.041V11.3h1.618v-.003c0-.159.001-.317.003-.473.003-.425.007-.84-.018-1.255-.007-.12-.194-.312-.312-.324a8.753 8.753 0 0 0-.925-.018c-.121.002-.243.004-.366.004z" fill="#fff"/></svg>