<svg width="24" height="24" fill="none" xmlns="http://www.w3.org/2000/svg"><path fill-rule="evenodd" clip-rule="evenodd" d="M3.198 10.197c0-2.943 2.813-5.327 6.281-5.327 3.058 0 5.607 1.856 6.166 4.311h-.11c-3.18 0-5.758 2.189-5.758 4.882 0 .501.091.987.256 1.441a7.282 7.282 0 0 1-2.88-.358l.041.021-2.189 1.087.622-1.85c-1.478-.973-2.429-2.496-2.429-4.207zm8.31-.88a.907.907 0 0 0 .296-.047c.316-.104.54-.373.54-.687 0-.404-.373-.733-.836-.733-.46 0-.835.329-.835.733 0 .405.373.734.835.734zm-4.03-1.465c-.462 0-.835.33-.835.734 0 .405.373.734.836.734a.908.908 0 0 0 .295-.047c.316-.104.54-.373.54-.687 0-.405-.373-.734-.835-.734zm2.76 6.216c0 2.484 2.372 4.495 5.296 4.495.656 0 1.285-.102 1.868-.287l1.684.924-.454-1.489c1.332-.814 2.199-2.144 2.199-3.643 0-2.48-2.372-4.494-5.296-4.494-2.925 0-5.297 2.01-5.297 4.494zm2.936-1.394c0-.34.313-.617.7-.617.386 0 .7.277.7.617 0 .263-.189.488-.455.577a.757.757 0 0 1-.245.039c-.387 0-.7-.277-.7-.616zm4.128-.617c-.386 0-.7.277-.7.617 0 .34.314.616.7.616.087 0 .17-.013.246-.04.266-.088.455-.313.455-.576 0-.34-.314-.617-.7-.617z" fill="#fff"/></svg>