<?xml version="1.0" encoding="UTF-8"?>
<svg width="74.645px" height="40.115px" viewBox="0 0 74.645 40.115" version="1.1" xmlns="http://www.w3.org/2000/svg" xmlns:xlink="http://www.w3.org/1999/xlink">
    <title>logo.small</title>
    <g id="页面-1" stroke="none" stroke-width="1" fill="none" fill-rule="evenodd">
        <g id="logo.small" fill="#FFFFFF">
            <path d="M68.794,33.764 C64.7219035,29.0984984 60.9222618,24.2020358 57.414,19.099 L56.107,17.197 L54.862,15.264 L53.617,13.33 L52.431,11.368 L51.248,9.402 C51.0012625,8.97837327 50.7592475,8.55201353 50.522,8.123 L50.522,8.122 L50.521,8.121 L50.521,8.119 L50.52,8.119 C50.388,7.883 50.257,7.647 50.124,7.412 L49.004,5.417 L48.865,5.168 L48.83,5.104 L48.78,5.008 L48.68,4.815 L48.282,4.044 L47.491,2.511 L46.241,0 C46.241,0 45.987,0.053 45.671,0.053 C45.355,0.053 45.072,0 45.072,0 L42.818,4.99 L42.184,6.297 L43.499,8.812 L43.571,8.94 L45.022,5.767 L45.77,3.961 L46.373,5.084 L46.617,5.595 L46.737,5.846 L46.767,5.908 L46.782,5.938 L46.815,6.002 L46.95,6.256 L48.036,8.296 C48.166,8.538 48.295,8.781 48.423,9.024 L48.424,9.025 C48.655,9.462 48.887,9.9 49.128,10.332 L50.279,12.343 L51.435,14.354 L52.652,16.337 L53.869,18.319 L55.149,20.272 C58.5900245,25.5170119 62.3326546,30.5578261 66.358,35.369 C67.7079368,36.9766472 69.0881841,38.5585972 70.498,40.114 L74.645,40.114 C72.6394891,38.0488479 70.688485,35.9314533 68.794,33.764 L68.794,33.764 Z M44.585,13.251 L46.909,17.169 C50.10125,22.3876738 53.5660454,27.4346591 57.289,32.289 C59.3401985,34.957147 61.4667215,37.5665311 63.666,40.114 L59.634,40.114 C54.0703851,33.2136086 49.0379618,25.9013177 44.58,18.24 L42.32,14.23 L41.644,12.956 L40.222,10.267 L40.173,10.174 L38.143,6.071 C38.0985979,5.98465978 38.0569108,5.89695012 38.018,5.808 L38.004,5.776 L37.991,5.748 L37.887,5.513 L37.673,5.033 L37.229,4.035 L37.201,3.979 L36.334,5.939 L34.874,8.919 L34.67,8.527 L33.59,6.317 L34.2,5.137 L36.665,0.001 C36.665,0.001 36.948,0.049 37.208,0.049 C37.469,0.049 37.725,0.001 37.725,0.001 L40.272,5.266 L41.524,7.662 L42.372,9.283 L42.937,10.297 L44.586,13.252 L44.585,13.251 Z M29.964,18.107 L32.09,14.294 L32.08,14.274 L32.075,14.264 L32.069,14.252 L30.769,11.6 L29.929,13.124 L27.627,17.044 C24.4676891,22.2646256 21.0390604,27.3174469 17.355,32.182 C15.3041187,34.8863986 13.1765886,37.5318056 10.975,40.115 L14.995,40.115 C20.5287673,33.164437 25.5321987,25.8077082 29.963,18.107 L29.964,18.107 Z M19.924,19.37 L19.47,20.068 C16.0612364,25.3236046 12.3527691,30.3786324 8.363,35.208 C6.98502805,36.8710049 5.57476,38.5069825 4.133,40.115 L0,40.115 C6.31926706,33.5412514 12.0726698,26.4460905 17.199,18.905 C17.351,18.68 17.504,18.455 17.658,18.231 L17.659,18.229 C17.939,17.82 18.219,17.411 18.492,16.998 L19.729,15.061 L20.964,13.124 L22.139,11.157 L23.314,9.191 L24.426,7.196 L25.538,5.2 L27.099,2.164 L28.17,0 C28.17,0 28.497,0.049 28.752,0.049 C29.007,0.049 29.31,0 29.31,0 L31.596,5.02 L32.891,7.666 L33.529,8.97 L34.203,10.272 L35.556,12.882 L36.531,14.661 L35.677,16.234 C35.535,16.489 35.391,16.744 35.247,16.997 L35.05,17.346 L33.216,13.819 L32.796,12.959 L31.489,10.296 L31.259,9.828 L29.4,5.801 L28.637,3.974 L28.1,4.981 L27.596,6.031 L26.516,8.071 L25.438,10.112 L24.295,12.126 L23.15,14.139 L21.945,16.125 L20.737,18.11 C20.471,18.533 20.197,18.952 19.924,19.37 L19.924,19.37 Z M39.463,19.84 C38.964418,20.760557 38.4587363,21.677251 37.946,22.59 C39.994,26.175 42.156,29.71 44.446,33.183 C45.9930342,35.527804 47.5904048,37.8390069 49.237,40.115 L53.173,40.115 C51.0730724,37.3995482 49.0450357,34.6292542 47.091,31.807 C44.4031529,27.9124204 41.8587824,23.9207473 39.463,19.84 L39.463,19.84 Z M38.743,18.597 C38.248,19.519 37.752,20.442 37.243,21.36 C35.0199266,25.3594348 32.6591819,29.2807791 30.165,33.117 C28.6245792,35.4833071 27.0338844,37.8165039 25.394,40.115 L21.471,40.115 C23.5557397,37.3800847 25.5690854,34.5914775 27.509,31.752 C30.419199,27.4763543 33.1596614,23.0876113 35.724,18.596 L36.094,17.951 C36.334,17.537 36.573,17.123 36.805,16.706 L37.225,15.93 L38.902,12.839 L39.544,11.589 L40.977,14.299 L39.221,17.717 C39.135234,17.8779999 39.0482314,18.0383379 38.96,18.198 C38.887,18.331 38.814,18.463 38.743,18.597 L38.743,18.597 Z" id="形状"></path>
        </g>
    </g>
</svg>