<svg width="121" height="94" fill="none" xmlns="http://www.w3.org/2000/svg"><path fill-rule="evenodd" clip-rule="evenodd" d="M92.088 34.432a161.067 161.067 0 0 1-11.38-14.665l-1.307-1.902-1.245-1.933-1.245-1.934-1.186-1.962-1.183-1.966a66.072 66.072 0 0 1-.726-1.279V8.79l-.001-.001v-.002h-.001c-.132-.236-.263-.472-.396-.707l-1.12-1.995-.139-.249-.035-.064-.05-.096-.1-.193-.398-.771-.791-1.533-1.25-2.511s-.254.053-.57.053c-.316 0-.599-.053-.599-.053l-2.254 4.99-.634 1.307 1.315 2.515.072.128 1.451-3.173.748-1.806.603 1.123.244.511.12.251.03.062.015.03.033.064.135.254 1.086 2.04c.13.242.259.485.387.728l.001.001c.231.437.463.875.704 1.307l1.151 2.011 1.156 2.011 1.217 1.983 1.217 1.982 1.28 1.953a162.075 162.075 0 0 0 11.209 15.097 166.351 166.351 0 0 0 4.14 4.745h4.147a164.644 164.644 0 0 1-5.851-6.35zM49.732 63.17c0-5.718-3.886-8.764-7.998-8.764-4.858 0-7.648 3.896-7.623 8.54 0 5.617 3.538 8.963 8.047 8.963 3.363 0 7.574-2.422 7.574-8.739zm-17.241.2c0-5.292 3.513-9.987 9.568-9.987 5.506 0 9.268 4.02 9.268 9.313 0 5.793-3.688 10.237-9.542 10.262-6.304.025-9.294-5.068-9.294-9.588zm-30.347-.125c0 .15.025.2.075.2.523.074 1.869.15 3.289.15.772 0 1.17-.076 1.494-.3a5.108 5.108 0 0 0 2.093-4.17c0-2.646-1.57-4.469-4.833-4.469-.873 0-1.62.025-1.993.1-.125.05-.125.1-.125.2v8.289zm-1.42-2.272c0-3.57-.049-6.466-.274-7.19.374.024.598.024.872.024.251 0 .737-.02 1.263-.043a48.862 48.862 0 0 1 1.727-.056c1.495 0 3.09.174 4.185.898 1.271.85 2.094 2.372 2.094 4.02 0 2.222-.972 3.995-3.015 5.444.355.456.718.93 1.088 1.413 1.371 1.786 2.826 3.683 4.219 5.177 1.021 1.099 1.793 1.723 2.217 1.873-.224.1-.723.15-1.196.15-.872 0-1.396-.274-2.516-1.473-.917-.972-2.408-2.97-3.66-4.647h-.001c-.517-.693-.993-1.331-1.372-1.82-.1-.125-.174-.175-.324-.175-.523.026-2.591 0-3.811-.025-.076 0-.076.05-.076.15v.824c0 3.271.076 6.018.2 7.04-.174-.024-.523-.024-.798-.024-.324 0-.821.025-1.045.075.124-.75.224-3.97.224-7.241v-4.394zm60.43 18.932c3.096 0 5.599 2.471 5.599 6.337 0 4.571-2.911 6.132-5.136 6.132-3.3 0-5.618-2.602-5.637-6.504 0-3.438 1.984-5.965 5.174-5.965zm.333-1.04c-4.71 0-7.268 3.567-7.268 7.414 0 3.344 2.206 7.172 7.046 7.154 4.487-.018 7.25-3.345 7.25-7.638 0-3.883-2.782-6.93-7.028-6.93zm-48.5 12.431c0 .818 0 1.134.018 1.32-1.224.557-3.041.817-4.636.817-2.336 0-4.599-.762-6.064-2.378-1.037-1.115-1.854-2.843-1.854-5 0-3.029 1.503-4.849 2.875-5.779 1.91-1.356 4.06-1.411 5.321-1.411 1.825 0 3.373.459 4.136.685.184.054.321.095.407.113-.074.28-.204 1.17-.204 1.822-.426-.502-2.002-1.524-4.913-1.524-1.447 0-2.894.39-3.988 1.356-1.019.892-1.817 2.434-1.817 4.367 0 2.137.78 3.68 1.706 4.608 1.484 1.6 3.542 1.99 4.84 1.99.872 0 1.984-.15 2.503-.447.056-.037.075-.168.075-.576v-2.341c0-.985-.112-2.286-.223-2.695.259.019.612.019.89.019.52 0 .816-.02 1.038-.056-.055.465-.11 1.913-.11 3.159v1.951zm18.641-5.259c0 .111.019.148.056.167.37.074 1.298.13 2.28.13.538 0 .835-.056 1.076-.223.742-.539 1.41-1.505 1.41-2.843 0-1.97-1.262-3.178-3.393-3.178-.576 0-1.094.019-1.355.075-.074.018-.074.055-.074.13v5.742zm-1.558-1.524c0-2.658-.037-4.757-.222-5.37.334.037.575.037.853.037.16 0 .514-.014.92-.03.535-.02 1.158-.044 1.528-.044 1.26 0 2.447.166 3.244.669a3.575 3.575 0 0 1 1.65 3.047c0 1.617-.76 2.918-2.261 3.958l.557.745.002.003c1.042 1.398 2.178 2.92 3.26 4.084.78.873 1.354 1.356 1.706 1.505-.24.093-.76.111-1.205.111-.835 0-1.28-.241-2.04-1.04-.76-.763-1.914-2.385-2.805-3.637-.303-.426-.576-.81-.792-1.102-.074-.093-.149-.13-.241-.13-.39.02-1.724 0-2.54-.019-.056 0-.056.038-.056.112v.576c0 2.342.074 4.348.167 5.166-.167-.037-.501-.037-.816-.037-.334 0-.89.018-1.094.056.111-.632.185-2.973.185-5.39v-3.27zm54.807-5.333c.519 0 .945-.019 1.168-.056-.074.576-.148 2.75-.148 5.389v2.583c0 2.453.538 3.42 1.316 4.144.872.836 2.022.966 2.893.966.835 0 1.984-.222 2.689-1.003.945-1.003 1.168-2.36 1.168-4.498v-2.192c0-2.658-.111-4.701-.204-5.37.204.037.556.037.742.037.39 0 .797-.038.89-.056-.074.576-.167 2.75-.167 5.389v2.155c0 2.175-.204 4.219-1.762 5.594-1.113.984-2.54 1.17-3.763 1.17-1.28 0-2.82-.316-3.82-1.244-.928-.873-1.577-2.082-1.577-4.757v-2.918c0-2.658-.074-4.905-.185-5.37.166.037.482.037.76.037zm27.394-.019c.112.65.186 2.694.186 5.352v3.27c0 2.417-.074 4.665-.148 5.39.167-.038.686-.056 1.002-.056.278 0 .648 0 .871.037-.074-.8-.148-3.029-.148-5.314V80.5c0-.317 0-.354.092-.372.13-.057.723-.093 1.132-.093.871 0 1.687.185 2.206.558.872.501 1.372 1.411 1.372 2.637 0 2.138-1.594 2.974-3.356 3.048.063.159.167.547.23.785l.029.108c2.652.017 4.711-1.599 4.711-4.22 0-1.226-.575-2.174-1.039-2.62-.778-.705-1.724-1.207-3.931-1.207-.622 0-1.225.02-1.708.036-.322.01-.591.02-.777.02-.259 0-.519 0-.724-.019zM21.446 64.094c.199.3.298.749.298 1.349 0 4.02-.074 6.392-.174 7.165.174-.05.822-.075.997-.075.249 0 .647 0 .797.025-.075-.924-.175-3.795-.175-7.09 0-.65.15-1.049.374-1.498.698-1.424 3.513-6.167 4.185-7.24.424-.675 1.57-2.472 1.994-2.972-.125.025-.698.05-1.146.05-.15 0-.398 0-.623-.025-.175.475-.722 1.523-1.071 2.147-.443.801-1.884 3.325-3.015 5.306v.001l-.005.008c-.524.917-.98 1.717-1.24 2.175-.29-.42-1.608-2.666-2.748-4.609-.82-1.398-1.55-2.639-1.737-2.931-.07-.134-.165-.309-.271-.504-.312-.57-.714-1.308-.825-1.643-.174.05-.848.075-1.221.075-.399 0-.672 0-.947-.025.648.624 1.67 2.147 2.142 2.871.823 1.274 3.738 6.217 4.41 7.44zm35.717-10.361c-.198.049-.697.075-1.12.075-.324 0-.723 0-.972-.026.449.774 1.146 2.647 1.67 4.295l4.21 13.856.1.279.02.054c.18.5.249.691.353.691.14 0 .258-.307.478-.881l.045-.117c.67-1.769 2.119-5.695 3.43-9.248l.003-.007.007-.019a2406.01 2406.01 0 0 1 2.092-5.657l4.957 15.18.035.087.03.076c.121.313.227.586.334.586.124 0 .249-.2.473-.824A3618.99 3618.99 0 0 1 77.892 58.9c1.095-3.34 1.667-4.537 1.949-5.126l.02-.041c-.274.049-.599.075-1.096.075-.175 0-.524 0-.723-.026-.1.774-.423 2.148-1.27 4.745-.754 2.418-1.848 5.579-2.734 8.139v.002l-.003.008a395.554 395.554 0 0 0-1.026 2.986l-4.933-15.006c-.15-.4-.274-.724-.374-.724-.076 0-.124.105-.245.372l-.128.277-5.556 15.08-.64-2.086v-.002l-.001-.001c-1-3.256-2.76-8.986-3.046-10.095-.424-1.473-.798-3.02-.923-3.744zm28.023 7.24c0-3.57-.05-6.341-.224-7.19.249.025.598.025.797.025.349 0 .747-.025 1.021-.075-.074.899-.149 3.546-.149 7.141v.549c0 .05.024.075.075.075h11.46c.075 0 .075-.025.075-.075v-.549c0-3.57-.075-6.242-.174-7.091.273.025.547.025.797.025.249 0 .722-.025.996-.075-.1.849-.174 3.695-.174 7.24v4.395c0 3.295.1 6.267.174 7.19-.248-.024-.547-.024-.772-.024-.25 0-.847.05-1.021.075.124-.924.174-3.97.174-7.241v-2.646c0-.075-.025-.1-.075-.1H86.68c-.026 0-.05.049-.05.1v2.646c0 3.295.075 6.267.174 7.19-.2-.024-.499-.024-.723-.024-.298 0-.721.025-1.071.075.1-.95.175-3.97.175-7.241v-4.395zm30.056 3.12c.025.075 0 .1-.049.1h-6.13c-.049 0-.074-.025-.049-.1l2.99-8.014 3.238 8.015zm-6.626 1.2c.024-.05.049-.075.124-.075h6.802c.074 0 .099.025.124.075.222.558.481 1.204.752 1.88l.002.006c.856 2.133 1.828 4.558 2.112 5.43.198-.05.672-.076 1.12-.076.125 0 .262.006.399.013h.001c.137.006.273.012.397.012-.534-.878-1.878-4.113-2.984-6.776h-.001l-.078-.19c-1.499-3.62-3.134-7.49-4.042-9.64l-.001-.002-.002-.005-.004-.01h-.001l-.002-.006-.004-.01c-.368-.871-.614-1.453-.679-1.612-.298-.724-.398-.924-.497-.924-.125 0-.25.3-.499.924l-4.908 12.658c-.797 2.147-1.67 4.32-2.293 5.643.175-.05.673-.075.973-.075.373 0 .498 0 .722.025.203-.851 1.009-3.13 1.748-5.219l.001-.003v-.002c.257-.726.506-1.43.718-2.041zM67.879 13.919l2.324 3.918a174.293 174.293 0 0 0 10.38 15.12 177.842 177.842 0 0 0 6.377 7.825h-4.032a175.362 175.362 0 0 1-15.054-21.874l-2.26-4.01-.676-1.274-1.422-2.689-.049-.093-2.03-4.103a4.65 4.65 0 0 1-.125-.263l-.014-.032-.013-.028-.104-.235-.214-.48-.444-.998-.028-.056-.867 1.96-1.46 2.98-.204-.392-1.08-2.21.61-1.18L59.959.669s.283.048.543.048c.261 0 .517-.048.517-.048l2.547 5.265 1.252 2.396.848 1.621.565 1.014 1.649 2.955zm-14.621 4.856l2.126-3.813-.01-.02-.005-.01-.006-.012-1.3-2.652-.84 1.524-2.302 3.92A176.035 176.035 0 0 1 40.649 32.85a178.66 178.66 0 0 1-6.38 7.933h4.02a177.275 177.275 0 0 0 14.968-22.008zm-10.04 1.263l-.454.698a163.236 163.236 0 0 1-11.107 15.14 166.14 166.14 0 0 1-4.23 4.907h-4.133a162.124 162.124 0 0 0 17.199-21.21c.152-.225.305-.45.459-.674l.001-.002c.28-.409.56-.818.833-1.231l1.237-1.937 1.235-1.937 1.175-1.967 1.175-1.966 1.112-1.995 1.112-1.996 1.561-3.036L51.464.668s.327.049.582.049c.255 0 .558-.049.558-.049l2.286 5.02 1.295 2.646.638 1.304.674 1.302 1.353 2.61.975 1.779-.854 1.573c-.142.255-.286.51-.43.763l-.197.349-1.834-3.527-.42-.86-1.307-2.663-.23-.468-1.859-4.027-.763-1.827-.537 1.007-.504 1.05-1.08 2.04-1.078 2.041-1.143 2.014-1.145 2.013-1.205 1.986-1.208 1.985c-.266.423-.54.842-.813 1.26zm19.539.47a203.4 203.4 0 0 1-1.517 2.75c2.048 3.585 4.21 7.12 6.5 10.593a195.59 195.59 0 0 0 4.791 6.932h3.936a195.479 195.479 0 0 1-6.082-8.308 193.89 193.89 0 0 1-7.628-11.967zm-.72-1.243c-.495.922-.991 1.845-1.5 2.763a198.434 198.434 0 0 1-7.078 11.757 198.656 198.656 0 0 1-4.771 6.998h-3.923a198.58 198.58 0 0 0 6.038-8.363 196.738 196.738 0 0 0 8.215-13.156l.37-.645c.24-.414.479-.828.711-1.245l.42-.776 1.677-3.091.642-1.25 1.433 2.71-1.756 3.418a35.59 35.59 0 0 1-.261.481c-.073.133-.146.265-.217.399z" fill="#000"/></svg>