<svg width="109" height="86" viewBox="0 0 109 86" fill="none" xmlns="http://www.w3.org/2000/svg">
<path fill-rule="evenodd" clip-rule="evenodd" d="M38.5703 18.4106C38.4336 18.6205 38.2969 18.8304 38.1614 19.041C35.1116 23.7578 31.7672 28.3309 28.1443 32.7298C26.908 34.2318 25.6293 35.706 24.3287 37.1661H20.6018C22.4357 35.2482 24.2177 33.2909 25.9374 31.2903C29.6001 27.0281 32.9984 22.5854 36.1124 17.9898C36.25 17.7858 36.3888 17.5825 36.5276 17.3791C36.7803 17.0089 37.033 16.6387 37.2787 16.2653L38.3944 14.5143L39.5081 12.7628L40.5679 10.9848L41.6277 9.20674L42.6304 7.40293L43.6337 5.59848L45.0414 2.85375L46.0075 0.897095C46.0075 0.897095 46.3021 0.940949 46.5319 0.940949C46.7617 0.940949 47.0352 0.897095 47.0352 0.897095L49.097 5.43596L50.2647 7.82793L50.8398 9.00747L51.4477 10.1844L52.668 12.5441L53.5474 14.1525L52.7778 15.5752C52.6497 15.8051 52.5198 16.0347 52.39 16.2642L52.3899 16.2644L52.3893 16.2654C52.33 16.3703 52.2707 16.4751 52.2116 16.58L50.558 13.3909L50.1786 12.6144L49.0007 10.2064L48.7934 9.78265L47.1167 6.14214L46.4286 4.49053L45.9439 5.40049L45.4895 6.35044L44.5163 8.19488L43.5432 10.04L42.5123 11.8605L41.4801 13.6811L40.3933 15.4765L39.3033 17.2713C39.0634 17.6534 38.8169 18.0319 38.5704 18.4104L38.5704 18.4105L38.5703 18.4106ZM60.8106 12.8778L62.907 16.4209C65.7687 21.1133 68.8942 25.6773 72.2687 30.0904C74.1097 32.4972 76.0323 34.8537 78.019 37.1663H74.3832C72.867 35.278 71.3957 33.3633 69.9745 31.4202C66.6539 26.8794 63.5939 22.1941 60.8067 17.3896L58.7673 13.7639L58.1588 12.6114L56.8763 10.1801L56.832 10.0956L55.0012 6.38678C54.9297 6.24406 54.9092 6.19701 54.8881 6.14871C54.8808 6.13197 54.8734 6.11507 54.8639 6.09399L54.7701 5.88181L54.5776 5.44779L54.177 4.54556L54.1513 4.49462L53.3695 6.26747L52.0529 8.96061L51.8693 8.60655L50.8949 6.60798L51.4457 5.54259L53.6673 0.897315C53.6673 0.897315 53.9222 0.941169 54.1571 0.941169C54.3927 0.941169 54.6231 0.897315 54.6231 0.897315L56.9199 5.65739L58.0497 7.82363L58.8142 9.28951L59.3239 10.2059L60.8106 12.8778ZM82.644 31.4248C78.9505 27.1794 75.5226 22.7502 72.3811 18.1655L71.2025 16.4462L70.0792 14.6985L68.9565 12.9495L67.8871 11.1753L66.8202 9.39861C66.596 9.01575 66.3809 8.62887 66.1657 8.24195L66.1656 8.24184L66.1655 8.24172L66.1655 8.24161L66.1654 8.2415L66.1653 8.24139C66.0461 8.02694 65.9268 7.81248 65.806 7.59867L64.7969 5.79551L64.6711 5.57043L64.639 5.51239L64.594 5.42533L64.5042 5.25056L64.1453 4.55341L63.4315 3.1675L62.3043 0.897425C62.3043 0.897425 62.0758 0.945793 61.7908 0.945793C61.5058 0.945793 61.2503 0.897425 61.2503 0.897425L59.2174 5.40921L58.6454 6.59068L59.8317 8.86463L59.8965 8.98007L61.2054 6.11151L61.8794 4.4786L62.4231 5.49433L62.6439 5.95609L62.7524 6.1831L62.7793 6.2392L62.7922 6.26693L62.8224 6.32369L62.9443 6.55392L63.9232 8.39771C64.041 8.61709 64.1572 8.83722 64.2733 9.05735C64.4819 9.45262 64.6905 9.8479 64.9086 10.2389L65.9465 12.0576L66.989 13.8756L68.0861 15.6684L69.1837 17.4606L70.3385 19.2257C73.4159 23.9329 76.7917 28.4924 80.4468 32.8759C81.6574 34.3282 82.9091 35.7541 84.1801 37.1664H87.9206C86.1084 35.2917 84.3451 33.3802 82.644 31.4248ZM44.445 57.408C44.445 52.2384 40.9401 49.484 37.2318 49.484C32.8507 49.484 30.3344 53.0065 30.3569 57.2049C30.3569 62.2835 33.5479 65.3088 37.6144 65.3088C40.6474 65.3088 44.445 63.1193 44.445 57.408ZM28.8959 57.5886C28.8959 52.8034 32.0644 48.5586 37.5245 48.5586C42.4904 48.5586 45.8829 52.1933 45.8829 56.9791C45.8829 62.2164 42.5571 66.2342 37.2774 66.2568C31.5926 66.2794 28.8959 61.6747 28.8959 57.5886ZM1.52776 57.4755C1.52776 57.6109 1.55087 57.6567 1.5958 57.6567C2.06761 57.7238 3.28083 57.7915 4.56145 57.7915C5.25792 57.7915 5.61739 57.7238 5.90947 57.5206C6.92048 56.7758 7.79669 55.4892 7.79669 53.7511C7.79669 51.3585 6.38127 49.7101 3.4381 49.7101C2.65111 49.7101 1.9771 49.7327 1.64074 49.8011C1.52776 49.8456 1.52776 49.8907 1.52776 49.981V57.4755ZM0.247779 55.4215C0.247779 52.1937 0.202845 49.5748 0 48.9202C0.337005 48.9427 0.539208 48.9427 0.786345 48.9427C1.01278 48.9427 1.45069 48.9238 1.92583 48.9033L1.92628 48.9033L1.92645 48.9033C2.48966 48.879 3.10504 48.8525 3.48239 48.8525C4.83105 48.8525 6.26894 49.0105 7.25748 49.665C8.4033 50.4325 9.14536 51.8094 9.14536 53.2991C9.14536 55.3086 8.26914 56.9112 6.42621 58.221C6.74615 58.6335 7.07425 59.0623 7.4079 59.4984L7.40805 59.4986C8.64409 61.1142 9.95627 62.8292 11.2123 64.18C12.1335 65.1732 12.8299 65.7375 13.2119 65.8729C13.0097 65.9638 12.5603 66.009 12.1335 66.009C11.3471 66.009 10.8747 65.7607 9.8643 64.6766C9.03694 63.7979 7.69214 61.9919 6.56262 60.4751C6.09631 59.8489 5.6667 59.2719 5.32532 58.8298C5.23545 58.717 5.16805 58.6718 5.03325 58.6718C4.56144 58.695 2.69604 58.6718 1.5958 58.6493C1.52776 58.6493 1.52776 58.6951 1.52776 58.7853V59.5296C1.52776 62.4871 1.5958 64.9707 1.70813 65.8955C1.55087 65.8729 1.23633 65.8729 0.988548 65.8729C0.696477 65.8729 0.247779 65.8955 0.0455759 65.9406C0.157269 65.2634 0.247779 62.3517 0.247779 59.3941V55.4215ZM54.7461 72.5383C57.5384 72.5383 59.796 74.7729 59.796 78.2677C59.796 82.4009 57.1706 83.8119 55.164 83.8119C52.1874 83.8119 50.0974 81.4593 50.08 77.9317C50.08 74.8232 51.8697 72.5383 54.7461 72.5383ZM55.0472 71.5974C50.7996 71.5974 48.4919 74.8232 48.4919 78.3012C48.4919 81.3252 50.4812 84.7857 54.8462 84.7696C58.8929 84.7528 61.3848 81.745 61.3848 77.8639C61.3848 74.353 58.8762 71.5974 55.0472 71.5974ZM11.3053 82.8376C11.3053 83.5766 11.3053 83.8623 11.322 84.03C10.2186 84.5343 8.57977 84.7691 7.14123 84.7691C5.03447 84.7691 2.99383 84.0803 1.67277 82.6189C0.736854 81.611 0.000577972 80.049 0.000577972 78.0994C0.000577972 75.3605 1.35566 73.7147 2.59327 72.8737C4.31553 71.6478 6.25539 71.5975 7.39222 71.5975C9.03788 71.5975 10.4337 72.0125 11.1225 72.2173L11.1226 72.2174L11.1227 72.2174C11.2876 72.2664 11.412 72.3034 11.4896 72.3198C11.4222 72.5719 11.3053 73.3781 11.3053 73.9669C10.9208 73.5128 9.49963 72.5887 6.8742 72.5887C5.56919 72.5887 4.26482 72.9414 3.27819 73.8153C2.35897 74.6214 1.63939 76.0157 1.63939 77.7634C1.63939 79.6956 2.34228 81.0899 3.17805 81.9295C4.5158 83.3754 6.37222 83.7282 7.54307 83.7282C8.32878 83.7282 9.33209 83.5934 9.80004 83.3245C9.85076 83.2909 9.86744 83.1729 9.86744 82.8034V80.6868C9.86744 79.7968 9.76666 78.6205 9.66653 78.2503C9.90018 78.2677 10.2186 78.2677 10.4696 78.2677C10.9375 78.2677 11.2052 78.2503 11.4055 78.2168C11.356 78.6373 11.3053 79.9471 11.3053 81.0731V82.8376ZM28.1178 78.0828C28.1178 78.1834 28.1345 78.2169 28.1686 78.2337C28.5023 78.3008 29.3388 78.3517 30.2252 78.3517C30.7099 78.3517 30.9776 78.3008 31.1952 78.1492C31.8641 77.6623 32.4662 76.7885 32.4662 75.5793C32.4662 73.7987 31.3287 72.7062 29.4062 72.7062C28.8875 72.7062 28.4195 72.723 28.1846 72.7733C28.1178 72.79 28.1178 72.8236 28.1178 72.8913V78.0828ZM26.7127 76.7047C26.7127 74.3017 26.68 72.4038 26.5124 71.8492C26.8141 71.8827 27.0311 71.8827 27.2821 71.8827C27.4255 71.8827 27.7452 71.8704 28.1097 71.8564L28.111 71.8564L28.1115 71.8564L28.1119 71.8563H28.1122C28.5953 71.8378 29.1564 71.8163 29.4896 71.8163C30.6264 71.8163 31.6965 71.9665 32.4155 72.4205C33.2853 72.9752 33.9041 73.9664 33.9041 75.1756C33.9041 76.6376 33.2185 77.8139 31.8641 78.7548C32.0289 78.9747 32.1973 79.201 32.3684 79.4311C33.3086 80.6946 34.3328 82.0709 35.3092 83.1228C36.0115 83.9128 36.5295 84.3494 36.8472 84.4836C36.6303 84.568 36.1617 84.5848 35.7605 84.5848C35.0075 84.5848 34.6063 84.3662 33.9207 83.6439C33.2344 82.9543 32.1942 81.4881 31.3908 80.3557L31.3907 80.3555C31.1175 79.9704 30.8717 79.6239 30.6765 79.3598C30.6098 79.2753 30.5424 79.2417 30.4589 79.2417C30.1078 79.2592 28.9042 79.2417 28.1686 79.225C28.1178 79.225 28.1178 79.2592 28.1178 79.3256V79.8467C28.1178 81.9639 28.1846 83.778 28.2687 84.5171C28.1178 84.4836 27.8168 84.4836 27.5331 84.4836C27.2314 84.4836 26.73 84.5003 26.5458 84.5345C26.6466 83.9631 26.7127 81.8465 26.7127 79.6616V76.7047ZM76.1412 71.8826C76.6092 71.8826 76.9937 71.8659 77.1946 71.8323C77.1278 72.3534 77.0611 74.3191 77.0611 76.7046V79.0398C77.0611 81.2577 77.5464 82.1315 78.248 82.7868C79.0343 83.5426 80.071 83.6606 80.8574 83.6606C81.6097 83.6606 82.6464 83.4594 83.2819 82.7532C84.1343 81.8465 84.3359 80.6199 84.3359 78.6871V76.7046C84.3359 74.3017 84.2351 72.454 84.1517 71.8491C84.3359 71.8826 84.653 71.8826 84.8205 71.8826C85.1717 71.8826 85.5395 71.8491 85.6229 71.8323C85.5562 72.3534 85.4727 74.3191 85.4727 76.7046V78.6535C85.4727 80.6199 85.2885 82.4675 83.884 83.7109C82.88 84.6009 81.593 84.7692 80.4895 84.7692C79.3354 84.7692 77.9469 84.4835 77.0444 83.6438C76.208 82.8545 75.6225 81.762 75.6225 79.3429V76.7046C75.6225 74.3017 75.5558 72.2696 75.4556 71.8491C75.6059 71.8826 75.8902 71.8826 76.1412 71.8826ZM100.847 71.866C100.948 72.4542 101.015 74.3018 101.015 76.7048V79.6617C101.015 81.8466 100.948 83.8787 100.881 84.5346C101.031 84.5004 101.5 84.4837 101.784 84.4837C102.035 84.4837 102.369 84.4837 102.57 84.5172C102.503 83.7949 102.437 81.7789 102.437 79.7126V73.0759C102.437 72.7902 102.437 72.7567 102.52 72.7399C102.637 72.6889 103.172 72.656 103.541 72.656C104.326 72.656 105.062 72.8237 105.53 73.1604C106.316 73.6137 106.768 74.4366 106.768 75.5452C106.768 77.478 105.33 78.2339 103.741 78.3009C103.797 78.4444 103.891 78.7951 103.948 79.0101L103.948 79.0103L103.949 79.0105L103.975 79.1077C106.366 79.1238 108.223 77.6625 108.223 75.2931C108.223 74.1845 107.704 73.3274 107.286 72.9243C106.584 72.2865 105.731 71.8325 103.741 71.8325C103.181 71.8325 102.638 71.8505 102.204 71.865H102.203L102.203 71.865H102.203H102.202H102.202L102.202 71.865H102.202H102.202H102.201L102.201 71.8651H102.201H102.201C101.91 71.8747 101.667 71.8828 101.5 71.8828C101.266 71.8828 101.031 71.8828 100.847 71.866ZM18.9349 58.2428C19.1146 58.5137 19.2045 58.92 19.2045 59.4623C19.2045 63.0964 19.1371 65.2414 19.0472 65.9404C19.2045 65.8953 19.7886 65.8734 19.9459 65.8734C20.1706 65.8734 20.53 65.8734 20.6648 65.8953C20.5974 65.0602 20.5076 62.4644 20.5076 59.4849C20.5076 58.898 20.6424 58.5369 20.8446 58.1306C21.4736 56.8434 24.0131 52.5547 24.619 51.5841C25.0016 50.9741 26.0351 49.3495 26.417 48.8974C26.3047 48.92 25.7879 48.9426 25.3835 48.9426C25.2487 48.9426 25.0241 48.9426 24.8212 48.92C24.664 49.3495 24.1703 50.2969 23.8558 50.8612C23.4565 51.586 22.1566 53.8682 21.1361 55.6597C20.6621 56.4919 20.2484 57.2182 20.0133 57.6334C19.7519 57.253 18.5633 55.2227 17.535 53.466C16.7952 52.2024 16.1384 51.0805 15.9692 50.816C15.9062 50.6955 15.82 50.537 15.7242 50.3609L15.7241 50.3608C15.4434 49.8447 15.0807 49.178 14.9807 48.8755C14.8234 48.92 14.2162 48.9426 13.8792 48.9426C13.5197 48.9426 13.2732 48.9426 13.0254 48.92C13.6095 49.4843 14.5307 50.8612 14.9576 51.5164C15.6996 52.6676 18.3283 57.1374 18.9349 58.2428ZM51.1469 48.8751C50.9678 48.9196 50.5185 48.9428 50.1365 48.9428C49.8445 48.9428 49.485 48.9428 49.2603 48.9196C49.6647 49.6199 50.2938 51.3128 50.7656 52.8032L54.5625 65.3312C54.6034 65.4429 54.6393 65.543 54.6713 65.6321C54.8335 66.0839 54.8956 66.2567 54.9894 66.2567C55.1164 66.2567 55.2226 65.9787 55.4207 65.4599L55.4612 65.3538C56.0651 63.7552 57.3723 60.2043 58.5547 56.9924C59.309 54.9436 60.0124 53.0328 60.4502 51.8546L64.9211 65.5795L64.9493 65.651L64.9787 65.7266C65.0887 66.0097 65.1846 66.2567 65.2806 66.2567C65.3929 66.2567 65.5052 66.0761 65.7074 65.5118C67.2577 60.9968 69.437 54.6986 69.8414 53.5474C70.8291 50.5282 71.3451 49.4455 71.5989 48.9128L71.6169 48.8751C71.3698 48.9196 71.0771 48.9428 70.6284 48.9428C70.4711 48.9428 70.1559 48.9428 69.9768 48.9196C69.8863 49.6199 69.5949 50.8614 68.831 53.2095C68.1517 55.395 67.1658 58.251 66.3672 60.5645L66.3665 60.5664L66.366 60.568L66.3657 60.5687C66.0019 61.6226 65.6771 62.5636 65.4378 63.2772L60.9887 49.7102C60.8539 49.3491 60.7416 49.0557 60.6517 49.0557C60.5827 49.0557 60.5398 49.1502 60.4303 49.3916C60.3982 49.4623 60.3605 49.5454 60.3147 49.6425L55.3039 63.2772C55.2145 62.9807 55.0026 62.2893 54.7263 61.3877C53.8247 58.4452 52.2368 53.2634 51.9788 52.2608C51.5969 50.9291 51.2599 49.5297 51.1469 48.8751ZM76.4192 55.4212C76.4192 52.1935 76.3743 49.6873 76.217 48.9199C76.4417 48.9431 76.7562 48.9431 76.9359 48.9431C77.2505 48.9431 77.6099 48.9199 77.8571 48.8754C77.7897 49.6873 77.7223 52.0806 77.7223 55.3316V55.8275C77.7223 55.8727 77.7441 55.8959 77.7897 55.8959H88.1252C88.1926 55.8959 88.1926 55.8727 88.1926 55.8275V55.3316C88.1926 52.1032 88.1252 49.6873 88.0359 48.9199C88.2824 48.9431 88.5296 48.9431 88.7549 48.9431C88.9789 48.9431 89.4058 48.9199 89.6529 48.8754C89.563 49.6422 89.4956 52.216 89.4956 55.4212V59.3945C89.4956 62.374 89.5861 65.0607 89.6529 65.8958C89.4289 65.8733 89.1593 65.8733 88.9571 65.8733C88.7318 65.8733 88.1926 65.9184 88.0359 65.941C88.1476 65.1058 88.1926 62.3521 88.1926 59.3945V57.0019C88.1926 56.9342 88.1701 56.911 88.1252 56.911H77.7672C77.7441 56.911 77.7223 56.9561 77.7223 57.0019V59.3945C77.7223 62.374 77.7897 65.0607 77.8796 65.8958C77.6992 65.8733 77.4296 65.8733 77.2274 65.8733C76.9584 65.8733 76.5765 65.8958 76.2613 65.941C76.3512 65.0833 76.4192 62.3521 76.4192 59.3945V55.4212ZM103.527 58.2433C103.549 58.3103 103.527 58.3336 103.482 58.3336H97.9541C97.9098 58.3336 97.8867 58.3103 97.9098 58.2433L100.606 50.9971L103.527 58.2433ZM97.5504 59.3267C97.5722 59.2816 97.5947 59.259 97.6621 59.259H103.796C103.864 59.259 103.886 59.2816 103.909 59.3267C104.109 59.8316 104.342 60.4161 104.587 61.0271L104.587 61.0281L104.589 61.0319L104.589 61.0325C105.36 62.9613 106.237 65.153 106.493 65.9409C106.672 65.8958 107.099 65.8732 107.503 65.8732C107.616 65.8732 107.74 65.8788 107.864 65.8845C107.987 65.8901 108.11 65.8958 108.222 65.8958C107.74 65.1021 106.528 62.1765 105.53 59.7686L105.459 59.5976C104.108 56.3242 102.633 52.8242 101.814 50.8808C101.475 50.0771 101.249 49.5396 101.189 49.3945C100.92 48.7399 100.83 48.5587 100.741 48.5587C100.628 48.5587 100.515 48.8302 100.291 49.3945L95.8647 60.839C95.1458 62.7802 94.3588 64.7446 93.7971 65.9409C93.955 65.8958 94.4037 65.8732 94.674 65.8732C95.011 65.8732 95.1233 65.8732 95.3255 65.8958C95.5087 65.1259 96.2354 63.0657 96.9014 61.1774L96.9018 61.1763C97.1339 60.5182 97.3586 59.881 97.5504 59.3267ZM47.6252 17.268L49.5432 13.8204L49.5336 13.8023L49.5291 13.7926L49.524 13.783L48.3512 11.3852L47.5931 12.7627L45.5178 16.3065C42.685 21.0014 39.5935 25.5719 36.2543 29.994C34.4133 32.4331 32.4888 34.8212 30.4995 37.1661H34.1264C35.6515 35.2429 37.1305 33.2915 38.5588 31.3129C41.8422 26.7637 44.8682 22.0739 47.6252 17.268ZM56.1916 18.8352C55.7429 19.6665 55.2865 20.4946 54.8237 21.3214C56.6711 24.5627 58.6212 27.7588 60.6863 30.8989C62.0767 33.0136 63.519 35.1024 65.007 37.1661H68.5562C66.6599 34.7026 64.8253 32.201 63.071 29.6549C60.6362 26.1214 58.3459 22.5099 56.1916 18.8352ZM55.5426 17.7106C55.0965 18.5451 54.6484 19.3797 54.1888 20.209C52.1918 23.8102 50.0652 27.3565 47.8063 30.839C46.4217 32.973 44.9857 35.0819 43.5035 37.1662H39.9659C41.848 34.6853 43.6698 32.1669 45.4113 29.6053C48.0483 25.7262 50.5132 21.7542 52.8196 17.71C52.9305 17.5155 53.0423 17.3215 53.154 17.1274C53.3695 16.7531 53.585 16.3788 53.7947 16.0016L54.1741 15.2993L55.6858 12.5049L56.2648 11.3744L57.5576 13.8251L55.9733 16.9155C55.8964 17.0612 55.8171 17.2061 55.7379 17.3509C55.6724 17.4706 55.6068 17.5904 55.5426 17.7106Z" fill="white"/>
</svg>
