<svg width="84" height="84" viewBox="0 0 84 84" fill="none" xmlns="http://www.w3.org/2000/svg">
<g>
<circle cx="42" cy="42" r="23.25" stroke="white" stroke-width="1.5"/>
<path d="M36.113 49.605C35.931 49.605 35.784 49.584 35.672 49.542C35.56 49.514 35.504 49.458 35.504 49.374C35.504 49.206 35.735 49.08 36.197 48.996C36.729 48.898 37.093 48.737 37.289 48.513C37.499 48.275 37.604 47.897 37.604 47.379V37.929C37.604 37.439 37.499 37.096 37.289 36.9C37.093 36.69 36.729 36.536 36.197 36.438C35.735 36.354 35.504 36.214 35.504 36.018C35.504 35.934 35.56 35.878 35.672 35.85C35.784 35.808 35.931 35.787 36.113 35.787C36.491 35.787 36.792 35.794 37.016 35.808C37.254 35.808 37.478 35.815 37.688 35.829C37.898 35.829 38.157 35.829 38.465 35.829C38.731 35.829 38.941 35.829 39.095 35.829C39.263 35.815 39.445 35.808 39.641 35.808C39.837 35.794 40.124 35.787 40.502 35.787C40.684 35.787 40.831 35.808 40.943 35.85C41.055 35.878 41.111 35.934 41.111 36.018C41.111 36.116 41.055 36.2 40.943 36.27C40.831 36.34 40.656 36.396 40.418 36.438C39.9 36.536 39.578 36.711 39.452 36.963C39.34 37.201 39.284 37.523 39.284 37.929V41.856C39.284 41.912 39.284 41.996 39.284 42.108C39.298 42.206 39.333 42.255 39.389 42.255C39.459 42.255 39.55 42.213 39.662 42.129C39.788 42.045 39.886 41.961 39.956 41.877L44.156 37.593C44.268 37.481 44.345 37.376 44.387 37.278C44.443 37.166 44.471 37.061 44.471 36.963C44.471 36.711 44.338 36.55 44.072 36.48C43.834 36.41 43.666 36.347 43.568 36.291C43.47 36.235 43.421 36.158 43.421 36.06C43.421 35.976 43.477 35.92 43.589 35.892C43.701 35.85 43.848 35.829 44.03 35.829H45.164C45.57 35.829 46.018 35.822 46.508 35.808C46.998 35.794 47.439 35.78 47.831 35.766C48.237 35.752 48.482 35.745 48.566 35.745C48.706 35.745 48.818 35.766 48.902 35.808C48.986 35.85 49.028 35.906 49.028 35.976C49.028 36.074 48.972 36.158 48.86 36.228C48.748 36.298 48.573 36.354 48.335 36.396C47.817 36.494 47.278 36.648 46.718 36.858C46.158 37.068 45.633 37.376 45.143 37.782C44.639 38.202 44.17 38.615 43.736 39.021C43.316 39.413 42.896 39.826 42.476 40.26C42.056 40.68 41.601 41.163 41.111 41.709C41.027 41.793 41.062 41.919 41.216 42.087L46.298 47.505C46.606 47.841 46.851 48.1 47.033 48.282C47.229 48.464 47.439 48.611 47.663 48.723C47.901 48.821 48.216 48.912 48.608 48.996C48.846 49.052 49.021 49.108 49.133 49.164C49.245 49.206 49.301 49.276 49.301 49.374C49.301 49.458 49.245 49.514 49.133 49.542C49.021 49.584 48.874 49.605 48.692 49.605C48.286 49.605 47.936 49.591 47.642 49.563C47.348 49.549 47.061 49.535 46.781 49.521C46.501 49.507 46.165 49.5 45.773 49.5C45.507 49.5 45.276 49.5 45.08 49.5C44.884 49.514 44.548 49.521 44.072 49.521C43.89 49.521 43.743 49.507 43.631 49.479C43.519 49.437 43.463 49.374 43.463 49.29C43.463 49.136 43.652 49.017 44.03 48.933C44.422 48.835 44.618 48.695 44.618 48.513C44.618 48.429 44.583 48.345 44.513 48.261C44.457 48.177 44.387 48.086 44.303 47.988L39.851 43.074C39.767 42.99 39.676 42.913 39.578 42.843C39.494 42.759 39.424 42.717 39.368 42.717C39.312 42.717 39.284 42.773 39.284 42.885C39.284 42.997 39.284 43.088 39.284 43.158C39.284 43.816 39.291 44.446 39.305 45.048C39.333 45.636 39.361 46.35 39.389 47.19C39.403 47.484 39.445 47.757 39.515 48.009C39.599 48.261 39.732 48.471 39.914 48.639C40.11 48.807 40.383 48.926 40.733 48.996C40.971 49.038 41.146 49.087 41.258 49.143C41.37 49.199 41.426 49.276 41.426 49.374C41.426 49.458 41.37 49.514 41.258 49.542C41.146 49.584 40.999 49.605 40.817 49.605C40.439 49.605 40.145 49.591 39.935 49.563C39.739 49.535 39.557 49.514 39.389 49.5C39.235 49.472 39.025 49.458 38.759 49.458C38.423 49.458 38.122 49.472 37.856 49.5C37.604 49.514 37.345 49.535 37.079 49.563C36.813 49.591 36.491 49.605 36.113 49.605Z" fill="white"/>
</g>
</svg>
