<svg width="126" height="126" viewBox="0 0 126 126" fill="none" xmlns="http://www.w3.org/2000/svg">
<path d="M46.0764 32.41C46.0725 32.41 46.0725 32.41 46.0764 32.41C45.8553 32.4022 45.2774 32.3672 45.0447 32.3672C44.7189 32.3672 44.0053 32.3789 43.6213 32.3789C43.3731 32.3789 42.6594 32.4216 42.1979 32.4216C41.8643 32.4216 41.1546 32.4294 40.7745 32.4294C40.3983 32.4294 39.6846 32.4216 39.3511 32.4216C38.9671 32.4216 37.3536 32.41 37.1636 32.4061C36.9968 32.4022 34.596 32.3633 34.4331 32.3672C34.2392 32.3711 32.9205 32.4216 32.6956 32.4294C32.6956 32.4294 31.6018 32.5771 31.5436 33.16V33.1639C31.5436 33.1794 31.5436 33.195 31.5436 33.2105C31.5436 33.6108 31.4583 33.8634 31.373 34.0694L31.3769 34.2482C31.4506 34.4502 31.5126 35.5112 31.501 35.655C31.4893 35.7444 31.4544 36.4983 31.435 36.6382C31.4234 36.7159 31.4118 37.2872 31.4157 37.3999C31.4195 37.5243 31.4195 37.6447 31.4195 37.8896C31.4195 38.1694 31.3769 38.6396 31.3769 38.8262C31.3769 38.8495 31.3769 38.865 31.3807 38.8806L31.3963 38.9272C31.47 39.1293 31.5514 39.3741 31.5514 39.7627C31.5514 40.0503 31.4467 41.2667 31.3885 41.461C31.3652 41.5388 31.373 41.8885 31.3846 41.9701C31.404 42.1217 31.4234 42.2694 31.4234 42.5686C31.4234 42.7862 31.4389 43.2526 31.4389 43.5052C31.4389 43.7461 31.4312 44.2125 31.4312 44.4379C31.4312 44.5933 31.5049 45.083 31.5049 45.3745C31.5049 45.7165 31.3807 46.21 31.3807 46.3111C31.3807 46.3344 31.3807 46.3538 31.3846 46.3694L31.404 46.416C31.47 46.5987 31.5398 46.8202 31.5514 47.1544C31.5514 47.1816 31.5514 47.2127 31.5514 47.2438C31.5514 47.5624 31.4738 48.0288 31.4738 48.1765C31.4738 48.3591 31.4816 48.4524 31.4932 48.5418C31.5087 48.6817 31.5126 49.5056 31.5049 49.6377C31.4971 49.7387 31.4932 50.3877 31.4971 50.5004C31.4971 50.6209 31.501 50.7414 31.501 50.9823C31.501 51.2621 31.4583 51.7285 31.4583 51.9189C31.4583 52.2259 31.3652 52.7195 31.3652 52.8555C31.3652 52.9371 31.3652 52.941 31.3924 53.0187C31.4506 53.213 31.5359 54.4566 31.5359 54.7248C31.5359 55.0318 31.4467 55.5215 31.4467 55.6614C31.4467 55.9179 31.4234 56.3881 31.4234 56.598C31.4234 56.8583 31.4157 56.9866 31.4118 57.1148C31.7453 57.1148 32.4978 57.1226 32.8701 57.1226C33.3122 57.1226 34.1035 57.142 34.4525 57.142C34.8093 57.142 35.6006 57.1265 36.0311 57.1265C36.4577 57.1265 37.2489 57.1382 37.6135 57.1382C37.9664 57.1382 38.7615 57.1226 39.1959 57.1226C39.1959 57.1226 41.3524 57.1187 41.5424 57.1187C41.748 57.1187 43.0163 57.1187 43.2334 57.1265C43.408 57.1304 44.4707 57.1304 44.6491 57.1265C44.8663 57.1226 46.185 57.1226 46.4061 57.1265C46.5341 57.1304 46.662 57.1304 46.8598 57.1343C47.3602 56.9866 47.5114 56.7107 47.558 56.5902C47.558 56.4969 47.5541 56.427 47.5502 56.357C47.5463 56.2288 47.5425 55.5059 47.5463 55.401C47.5463 55.3738 47.5463 55.3505 47.5463 55.3272C47.5502 55.2106 47.5541 54.7986 47.527 54.7248C47.4533 54.5149 47.3834 54.2818 47.3834 53.897C47.3834 53.5706 47.492 53.0576 47.492 52.9255C47.492 52.6223 47.5153 52.4513 47.5463 52.2726C47.558 52.1948 47.5735 51.8801 47.5463 51.8062C47.4765 51.6003 47.43 50.516 47.4494 50.3605C47.461 50.275 47.4649 49.7154 47.4571 49.6183C47.4455 49.4745 47.4261 48.7205 47.4222 48.6117C47.4145 48.4757 47.3796 47.3759 47.3796 47.1039C47.3796 46.7969 47.4416 46.3111 47.4416 46.1323C47.4416 45.903 47.43 45.4172 47.43 45.1607C47.43 44.8809 47.4649 44.3952 47.4649 44.1892C47.4649 43.9677 47.4455 43.4819 47.4455 43.2176C47.4455 42.9184 47.5231 42.1567 47.4959 42.0789C47.43 41.8769 47.3679 41.6476 47.3679 41.2784C47.3679 40.9753 47.4261 40.4895 47.4261 40.3068C47.4261 39.9609 47.4727 39.7511 47.5231 39.5607C47.5463 39.4752 47.5425 39.1448 47.5231 39.0516C47.4882 38.8728 47.527 37.5631 47.527 37.396C47.527 37.2639 47.4222 36.7509 47.4222 36.4283C47.4222 36.1991 47.4106 35.7133 47.4106 35.4607C47.4106 35.2508 47.3796 34.765 47.3796 34.493C47.3796 34.1627 47.4184 33.9684 47.461 33.7779C47.4804 33.6885 47.4843 33.3776 47.4765 33.3232C47.4067 32.7869 46.2703 32.4916 46.0764 32.41Z" fill="white"/>
<path d="M45.7464 60.2249C45.6805 60.2249 45.6068 60.2249 45.5253 60.2249C45.1685 60.2249 44.994 60.2287 44.8156 60.2326C44.5984 60.2365 44.3812 60.2404 43.9429 60.2404C43.5046 60.2404 43.2836 60.2365 43.0664 60.2326C42.8918 60.2287 42.7134 60.2249 42.3605 60.2249C41.9765 60.2249 41.7865 60.2249 41.5925 60.2287C41.387 60.2287 41.1853 60.2326 40.778 60.2326H39.1956C38.8427 60.2326 38.6643 60.2365 38.4858 60.2404C38.2687 60.2443 38.0476 60.2482 37.6132 60.2482C37.1904 60.2482 36.9771 60.2443 36.7638 60.2443C36.5815 60.2404 36.3953 60.2404 36.0308 60.2404C35.6739 60.2404 35.4955 60.2443 35.3171 60.2482C35.0999 60.2521 34.8827 60.2559 34.4522 60.2559C34.0062 60.2559 33.7851 60.2521 33.564 60.2443C33.3895 60.2404 33.2188 60.2365 32.8698 60.2365C32.4509 60.2365 32.2415 60.2326 32.032 60.2326C31.8846 60.2326 31.7295 60.2287 31.489 60.2287C31.489 60.2637 31.4929 60.2909 31.4929 60.3298C31.4929 60.5358 31.4968 60.6407 31.5045 60.7417C31.5123 60.8739 31.4813 61.7755 31.4386 61.9581C31.4192 62.0475 31.4115 62.0786 31.4115 62.1991C31.4115 62.2846 31.4153 62.2962 31.4386 62.3778C31.4929 62.5683 31.5201 63.6331 31.4968 63.7652C31.4852 63.8429 31.4735 63.9168 31.4735 64.0684C31.4735 64.3171 31.4619 64.7834 31.4619 65.0011C31.4619 65.1448 31.4696 65.1954 31.489 65.2886C31.5123 65.4247 31.5239 66.404 31.5045 66.5361C31.4929 66.6177 31.4813 66.7032 31.4813 66.8664C31.4813 67.0336 31.5433 67.4999 31.5433 67.7991C31.5433 68.0518 31.5395 68.18 31.5317 68.3082C31.5278 68.4132 31.458 69.3303 31.3921 69.5324C31.3688 69.6024 31.3688 69.6024 31.3688 69.6684C31.3688 69.8822 31.3843 70.3524 31.3843 70.6011C31.3843 70.846 31.3727 71.3162 31.3727 71.5338C31.3727 71.596 31.3727 71.596 31.3959 71.6621C31.4658 71.8642 31.5356 72.0973 31.5356 72.4704C31.5356 72.7891 31.5007 72.9795 31.458 73.1622C31.4386 73.2516 31.3998 73.9083 31.3766 74.0443C31.3649 74.1182 31.3533 74.4058 31.3727 74.4757C31.4425 74.6778 31.5084 74.9071 31.5084 75.2763C31.5084 75.5794 31.4852 75.7465 31.4658 75.8825C31.4541 75.9642 31.4502 76.4966 31.458 76.5898C31.4696 76.7297 31.4813 76.8658 31.4813 77.1417C31.4813 77.3477 31.5045 77.814 31.5045 78.0744C31.5045 78.2765 31.5123 78.3775 31.5162 78.4786C31.5239 78.6107 31.5317 78.7428 31.5317 79.0071C31.5317 79.3063 31.4696 79.7727 31.4696 79.9398C31.4696 80.1613 31.4735 80.274 31.4735 80.3828C31.4774 80.5033 31.4696 81.2767 31.458 81.4127C31.4502 81.5098 31.4425 81.6109 31.4425 81.8052C31.4425 82.0189 31.458 82.3998 31.458 82.5164C31.5201 82.5164 31.5744 82.5164 31.6481 82.5164C32.063 82.5164 32.2686 82.5203 32.4742 82.5203C32.6526 82.5241 33.8627 82.5319 34.0837 82.5358C34.2505 82.5397 34.4173 82.5436 34.7509 82.5436C35.096 82.5436 35.8717 82.528 36.3023 82.528C36.7211 82.528 36.9306 82.5319 37.14 82.5358C37.3184 82.5397 38.3656 82.5358 38.5363 82.5358C38.7535 82.5319 38.9707 82.528 39.4051 82.528L40.9565 82.5241C41.3288 82.5241 42.1045 82.5203 42.5079 82.5203C42.9422 82.5203 43.1594 82.5241 43.3805 82.528C43.5512 82.5319 46.8246 82.5397 47.1582 82.5397C47.29 82.5397 47.3909 82.5397 47.4801 82.5397C47.4801 82.462 47.4801 82.4037 47.484 82.3415C47.4879 82.2288 47.4879 82.1161 47.4879 81.8907C47.4879 81.7313 47.4762 81.6536 47.4607 81.5759C47.4374 81.4399 47.4103 81.2689 47.4103 80.9619C47.4103 80.6276 47.4607 80.4217 47.5111 80.239C47.5344 80.1574 47.5421 80.1341 47.5421 80.0331C47.5421 80.0058 47.5421 79.9864 47.5383 79.967L47.5189 79.9126C47.4413 79.7066 47.3637 79.4773 47.3637 79.1004C47.3637 78.7856 47.3948 78.6068 47.418 78.4747C47.4297 78.4008 47.4452 78.3231 47.4452 78.1715C47.4452 77.9889 47.4374 77.8956 47.4258 77.8023C47.4103 77.6624 47.4064 76.8502 47.4142 76.722C47.4219 76.6209 47.4258 76.5199 47.4258 76.3139L47.4219 75.8631C47.4219 75.7426 47.4297 74.9732 47.4452 74.8371C47.4529 74.7439 47.4646 74.6467 47.4646 74.4602C47.4646 74.1337 47.5034 73.9433 47.5344 73.8034C47.5538 73.7101 47.5615 73.6674 47.5615 73.5275C47.5615 73.442 47.5577 73.4303 47.5344 73.3526C47.4723 73.1622 47.4142 72.9484 47.4142 72.5987C47.4142 72.3966 47.4064 72.2955 47.4025 72.1945C47.3948 72.0624 47.4219 71.1569 47.4491 71.017C47.4685 70.9237 47.4762 70.8771 47.4762 70.7372C47.4762 70.4807 47.4995 70.0182 47.4995 69.8083C47.4995 69.5518 47.5228 69.0855 47.5228 68.8795C47.5228 68.6308 47.5421 68.1645 47.5421 67.9507C47.5421 67.737 47.5383 67.632 47.5344 67.5271C47.5305 67.3989 47.5228 67.2745 47.5228 67.0219C47.5228 66.8859 47.4258 66.4195 47.4258 66.0931C47.4258 65.8871 47.418 65.7822 47.4142 65.6811C47.4064 65.5529 47.3986 65.4247 47.3986 65.1643C47.3986 64.8495 47.4374 64.6591 47.4801 64.4803C47.4995 64.3948 47.5111 64.3559 47.5111 64.2355C47.5111 64.1422 47.5072 64.1305 47.484 64.0489C47.4258 63.8624 47.3948 62.8558 47.4219 62.6848C47.4336 62.6071 47.4491 62.5294 47.4491 62.3778C47.4491 62.133 47.4607 61.6667 47.4607 61.449C47.4607 61.3013 47.4491 61.2275 47.4336 61.1537C47.4219 61.0915 47.4103 61.0176 47.3986 60.9283C47.1543 60.2326 45.8434 60.2287 45.7464 60.2249Z" fill="white"/>
<path d="M47.3757 86.3586C47.3757 86.3586 47.3835 86.2304 47.24 85.9506C47.0965 85.6708 46.6659 85.6591 46.6659 85.6591C46.5186 85.6552 46.4022 85.6552 46.2859 85.6513C46.1191 85.6474 45.9523 85.6436 45.6188 85.6436C45.2774 85.6436 45.1068 85.6474 44.9323 85.6513C44.7151 85.6552 44.4979 85.663 44.0674 85.663C43.633 85.663 43.4158 85.6591 43.1947 85.6513C43.024 85.6474 42.8573 85.6436 42.516 85.6436C42.1436 85.6436 41.9536 85.6436 41.7674 85.6474C41.5657 85.6474 41.3679 85.6513 40.9646 85.6513L39.4132 85.6552C39.0718 85.6552 38.9012 85.6591 38.7305 85.663C38.5133 85.6669 38.2961 85.6746 37.8618 85.6746C37.4429 85.6746 37.2334 85.6708 37.024 85.6669C36.8456 85.663 36.6672 85.6591 36.3142 85.6591C35.969 85.6591 35.7945 85.663 35.62 85.6669C35.4067 85.6708 35.1895 85.6746 34.759 85.6746C34.3168 85.6746 34.0957 85.6669 33.8747 85.663C33.7079 85.6591 33.5411 85.6552 33.2076 85.6552C32.7964 85.6552 32.5909 85.6513 32.3814 85.6513C32.1991 85.6474 32.0207 85.6474 31.66 85.6474C31.5941 85.6474 31.5398 85.6474 31.4855 85.6474C31.4777 85.9234 31.439 86.1138 31.3963 86.277C31.3769 86.3586 31.3691 86.3819 31.3691 86.483C31.3691 86.6151 31.3769 86.6579 31.3963 86.7511C31.4312 86.926 31.4622 87.1087 31.4622 87.4157C31.4622 87.7033 31.4428 87.8665 31.4157 88.0336C31.404 88.1113 31.3924 88.189 31.3924 88.3445C31.3924 88.4689 31.4002 88.5038 31.4196 88.5932C31.4583 88.772 31.4933 88.9624 31.4933 89.2772C31.4933 89.4987 31.4971 89.6075 31.501 89.7163C31.5049 89.8407 31.5088 89.9612 31.5088 90.2099C31.5088 90.412 31.5165 90.5091 31.5204 90.6102C31.5282 90.7423 31.5359 90.8744 31.5359 91.1426C31.5359 91.4652 31.4971 91.6556 31.4583 91.8382C31.439 91.9237 31.4312 91.9587 31.4312 92.0753C31.4312 92.1997 31.439 92.2385 31.4583 92.3279C31.4661 92.3706 31.4777 92.4134 31.4855 92.46C31.4855 92.46 31.8811 93.2761 33.1028 93.3927C33.2308 93.4005 33.3588 93.4083 33.6148 93.4083C33.8126 93.4083 33.8747 93.4044 34.0143 93.3927C34.2819 93.3694 34.565 93.35 35.0382 93.35C35.3601 93.35 35.523 93.3461 35.6859 93.3461C35.8798 93.3422 36.0738 93.3383 36.4616 93.3383C36.9154 93.3383 37.1442 93.35 37.3692 93.3616C37.4972 93.3694 37.6252 93.3772 37.885 93.3772C38.2651 93.3772 38.4552 93.3811 38.6452 93.3811C38.812 93.385 38.9788 93.385 39.3084 93.385C39.6885 93.385 39.8786 93.3888 40.0725 93.3888C40.2354 93.3927 40.4022 93.3927 40.7318 93.3927C41.1081 93.3927 41.2942 93.3927 41.4804 93.3966C41.6472 93.3966 41.8178 93.4005 42.1553 93.4005C42.4888 93.4005 42.6556 93.4005 42.8224 93.3966C43.0124 93.3927 43.1986 93.3927 43.5787 93.3927C43.8346 93.3927 43.9588 93.385 44.0867 93.3772C44.3156 93.3655 44.5444 93.35 44.9982 93.35C45.3279 93.35 45.4908 93.3461 45.6537 93.3461C45.8437 93.3422 46.0376 93.3422 46.4216 93.3422C46.8599 93.3422 47.1081 93.3578 47.3641 93.3733C47.4106 93.3772 47.461 93.3811 47.5153 93.3811C47.5309 93.3383 47.5425 93.2917 47.558 93.2489L47.5774 93.1906C47.5774 93.1829 47.5774 93.1673 47.5774 93.144C47.5774 93.1129 47.5774 93.0896 47.5735 93.0702L47.5541 93.0119C47.4727 92.7748 47.3951 92.5067 47.3951 92.0675C47.3951 91.7411 47.4106 91.574 47.4261 91.4107C47.4339 91.3058 47.4455 91.2009 47.4455 90.991C47.4455 90.6374 47.4727 90.4431 47.4959 90.2837C47.5076 90.1905 47.5192 90.1011 47.5192 89.9145C47.5192 89.658 47.5153 89.5298 47.5153 89.4016C47.5115 89.2617 47.5115 89.1217 47.5115 88.838C47.5115 88.5155 47.5231 88.3562 47.5386 88.1968C47.5464 88.088 47.558 87.9792 47.558 87.7616C47.558 87.7344 47.558 87.711 47.5541 87.6916L47.5347 87.6333C47.4572 87.404 47.3757 87.1281 47.3757 86.689C47.368 86.5529 47.3718 86.448 47.3757 86.3586Z" fill="white"/>
<path d="M52.2198 40.6011C52.2198 40.9159 52.2043 41.0752 52.1849 41.2306C52.1733 41.3239 52.1655 41.4172 52.1655 41.6076C52.1655 41.6931 52.1655 41.697 52.1888 41.7825C52.247 41.9923 52.3052 42.2294 52.3052 42.6141C52.3052 42.925 52.2858 43.0999 52.2586 43.2826C52.247 43.3681 52.2353 43.4497 52.2353 43.6168C52.2353 43.8461 52.2392 43.9588 52.2431 44.0754C52.247 44.2114 52.2547 44.3474 52.2547 44.6233C52.2547 44.9148 52.247 45.0586 52.2353 45.2024C52.2276 45.3073 52.2198 45.4161 52.2198 45.626C52.2198 45.8669 52.2237 45.9835 52.2237 46.104C52.2237 46.1273 52.2237 46.1545 52.2237 46.1778C52.5495 46.1778 52.7318 46.1817 52.9102 46.1856C53.0731 46.1895 53.236 46.1895 53.5618 46.1895C53.8604 46.1895 54.0117 46.1856 54.1591 46.1817C54.3646 46.1739 54.5663 46.1701 54.9736 46.1701C55.3498 46.1701 55.5359 46.1739 55.7221 46.1739C55.8889 46.1778 56.0557 46.1778 56.3892 46.1778C56.7887 46.1778 56.9865 46.1817 57.1843 46.1895C57.3394 46.1934 57.4946 46.1973 57.801 46.1973C58.119 46.1973 58.278 46.1934 58.4371 46.1895C58.631 46.1856 58.8249 46.1817 59.2128 46.1817C59.5929 46.1817 59.7829 46.1856 59.973 46.1856C60.1358 46.1895 60.2987 46.1895 60.6284 46.1895C60.9426 46.1895 61.1016 46.1856 61.2606 46.1817C61.4545 46.1778 61.6523 46.1739 62.0402 46.1739H63.452C63.7933 46.1739 63.9639 46.1739 64.1346 46.1701C64.3169 46.1701 64.4992 46.1662 64.8637 46.1662C65.2555 46.1662 65.4533 46.1701 65.6472 46.1739C65.8023 46.1778 65.9614 46.1817 66.2755 46.1817C66.5936 46.1817 66.7487 46.1778 66.9077 46.1739C67.1016 46.1701 67.2994 46.1662 67.6873 46.1662C68.0829 46.1662 68.2807 46.1701 68.4785 46.1778C68.4785 46.1778 69.3046 46.1118 69.4986 45.6221C69.4986 45.3306 69.5063 45.1868 69.5179 45.043C69.5257 44.9381 69.5335 44.8293 69.5335 44.6194C69.5335 44.3902 69.5296 44.2775 69.5257 44.1609C69.5218 44.0249 69.5141 43.8888 69.5141 43.6129C69.5141 43.302 69.5335 43.1271 69.5606 42.9445C69.5722 42.859 69.5839 42.7774 69.5839 42.6103C69.5839 42.5248 69.5839 42.517 69.5606 42.4315C69.5024 42.2216 69.4443 41.9846 69.4443 41.6037C69.4443 41.2889 69.4598 41.1296 69.4792 40.9741C69.4908 40.8809 69.4986 40.7876 69.4986 40.5972C69.4986 40.2396 69.5412 40.022 69.5878 39.8238C69.6071 39.7344 69.6149 39.7072 69.6149 39.5906C69.6149 39.443 69.6071 39.3924 69.5878 39.2953C69.5567 39.1087 69.5257 38.9144 69.5257 38.5841C69.5257 38.2538 69.549 38.0711 69.5684 37.9234C69.58 37.8379 69.5916 37.7524 69.5916 37.5815C69.5916 37.4454 69.5839 37.4066 69.5645 37.3055C69.5257 37.1151 69.4947 36.913 69.4947 36.5749C69.4947 36.3379 69.4908 36.2174 69.4908 36.1008C69.4869 35.9687 69.483 35.8365 69.483 35.5723C69.483 35.3546 69.4753 35.2458 69.4714 35.137C69.4636 34.9932 69.4559 34.8533 69.4559 34.5657C69.4559 34.2237 69.4908 34.0217 69.5296 33.8273C69.549 33.7341 69.5567 33.6952 69.5567 33.5631C69.5567 33.4232 69.549 33.3804 69.5296 33.2833C69.4947 33.0928 69.4598 32.8946 69.4598 32.5565C69.4598 32.4905 69.4598 32.4322 69.4636 32.3739C69.39 32.3739 69.3085 32.3739 69.2154 32.3739C68.9051 32.3739 68.7539 32.3778 68.5987 32.3817C68.3971 32.3855 68.1954 32.3933 67.792 32.3933C67.3615 32.3933 67.1443 32.3855 66.931 32.3739C66.7914 32.3661 66.6517 32.3622 66.3686 32.3622C66.1979 32.3622 66.1553 32.3661 66.0234 32.3817C65.7403 32.4089 65.4455 32.4361 64.9452 32.4361C64.4992 32.4361 64.2742 32.4244 64.0531 32.4127C63.9213 32.405 63.7894 32.4011 63.5257 32.4011C63.0835 32.4011 62.8314 32.3855 62.5715 32.37C62.4552 32.3622 62.3388 32.3545 62.1022 32.3545C61.9355 32.3545 61.8967 32.3583 61.7648 32.3739C61.4778 32.405 61.1792 32.4283 60.6788 32.4283C60.3104 32.4283 60.1242 32.4283 59.9419 32.4244C59.7713 32.4244 59.6006 32.4205 59.2593 32.4205C58.9219 32.4205 58.7551 32.4205 58.5844 32.4244C58.3983 32.4283 58.2082 32.4283 57.8359 32.4283C57.3394 32.4283 57.0447 32.4011 56.7616 32.3739C56.6297 32.3622 56.587 32.3545 56.4125 32.3545C56.0363 32.3545 55.8462 32.3506 55.6601 32.3506C55.4933 32.3506 55.3265 32.3467 54.993 32.3467C54.7137 32.3467 54.5702 32.3506 54.4306 32.3583C54.2173 32.3661 54.0001 32.3739 53.5734 32.3739C53.1468 32.3739 52.9296 32.3661 52.7163 32.3583C52.5844 32.3545 52.4487 32.3467 52.2004 32.3467C52.1849 32.4127 52.181 32.4516 52.181 32.5527C52.181 32.6926 52.1888 32.7353 52.2082 32.8325C52.2431 33.0229 52.278 33.225 52.278 33.5592C52.278 33.9012 52.2431 34.1033 52.2043 34.2976C52.1849 34.3908 52.1772 34.4297 52.1772 34.5618C52.1772 34.7795 52.1849 34.8883 52.1888 34.9971C52.1966 35.1409 52.2043 35.2808 52.2043 35.5684C52.2043 35.8054 52.2082 35.9259 52.2082 36.0425C52.2121 36.1746 52.2159 36.3068 52.2159 36.571C52.2159 36.707 52.2237 36.7498 52.2431 36.847C52.278 37.0374 52.3129 37.2395 52.3129 37.5776C52.3129 37.9079 52.2896 38.0906 52.2702 38.2382C52.2586 38.3237 52.247 38.4092 52.247 38.5802C52.247 38.7279 52.2547 38.7784 52.2741 38.8756C52.309 39.0621 52.3362 39.2564 52.3362 39.5868C52.3362 39.9443 52.2935 40.1658 52.247 40.3601C52.2276 40.4573 52.2198 40.4845 52.2198 40.6011Z" fill="white"/>
<path d="M75.6848 49.5219H76.4915C76.922 49.5219 77.1392 49.5258 77.3526 49.5297C77.5348 49.5336 77.721 49.5336 78.0856 49.5336C78.4191 49.5336 78.5859 49.5297 78.7566 49.5219C78.9893 49.5142 79.2181 49.5064 79.6797 49.5064C80.1024 49.5064 80.3118 49.5103 80.5252 49.5103C80.7113 49.5142 80.8975 49.5142 81.2737 49.5142C81.7236 49.5142 81.9486 49.5181 82.1735 49.5258C82.3481 49.5297 82.5187 49.5336 82.8639 49.5336C83.2207 49.5336 83.403 49.5297 83.5814 49.5258C83.8025 49.5219 84.0197 49.5181 84.458 49.5181C84.8846 49.5181 85.1018 49.5219 85.3151 49.5258C85.4974 49.5297 85.6836 49.5297 86.052 49.5297C86.405 49.5297 86.5834 49.5258 86.7618 49.5219C86.9829 49.5181 87.2039 49.5142 87.6461 49.5142L89.2402 49.5103C89.6241 49.5103 89.8181 49.5103 90.012 49.5064C90.2175 49.5064 90.4231 49.5025 90.8342 49.5025C91.2764 49.5025 91.5013 49.5064 91.7224 49.5142C91.8581 49.5181 91.9978 49.5219 92.215 49.5219C92.1645 49.3548 92.1219 49.1489 92.1219 48.869C92.1219 48.5271 92.1723 48.3172 92.2188 48.1307C92.2421 48.0491 92.246 48.0296 92.246 47.9286C92.246 47.7731 92.2344 47.6954 92.2227 47.6177C92.1956 47.4467 92.1723 47.2796 92.1723 46.9881C92.1723 46.7472 92.1723 46.6228 92.1762 46.5023C92.1762 46.3896 92.1801 46.2769 92.1801 46.0476C92.1801 45.8261 92.1762 44.8118 92.1723 44.703C92.1684 44.5786 92.1645 43.4788 92.1645 43.2301C92.1645 43.063 92.1529 42.9775 92.1413 42.892C92.1219 42.7404 92.1025 42.5889 92.1025 42.2896C92.1025 41.936 92.1568 41.7184 92.215 41.524C92.2382 41.4463 92.2421 41.4347 92.2421 41.3492C92.2421 41.0577 92.2576 40.9139 92.2731 40.7662C92.2848 40.6768 92.2925 40.5875 92.2925 40.4048C92.2925 40.3815 92.2925 40.3659 92.2887 40.3504L92.2731 40.3038C92.1995 40.1017 92.118 39.853 92.118 39.4643C92.118 39.1806 92.1296 39.0407 92.1452 38.9008C92.1529 38.8076 92.1645 38.7104 92.1645 38.5239C92.1645 38.2985 92.1607 38.1896 92.1607 38.0769C92.1568 37.9526 92.1568 37.8321 92.1568 37.5834C92.1568 37.2725 92.1839 37.0976 92.2033 36.9616C92.215 36.88 92.2266 36.8023 92.2266 36.6429C92.2266 36.3553 92.2421 36.2115 92.2576 36.0639C92.2693 35.9745 92.277 35.8812 92.277 35.6986C92.277 35.6752 92.277 35.6558 92.2731 35.6403L92.2538 35.5936C92.1801 35.3915 92.0986 35.1467 92.0986 34.7581C92.0986 34.3578 92.1878 34.1052 92.2693 33.8953L92.2887 33.8487C92.2887 33.8487 92.2887 33.8332 92.2887 33.8176C92.2887 33.6894 92.2809 33.6505 92.2615 33.5611C92.2227 33.3824 92.1917 33.1919 92.1917 32.8771C92.1607 32.4652 91.5324 32.3914 91.3152 32.3758C91.288 32.3758 91.2647 32.3719 91.2376 32.3719H91.2337C91.1523 32.368 91.0824 32.3642 91.0204 32.3603C90.904 32.3525 90.7877 32.3447 90.5588 32.3447C90.2369 32.3447 90.0779 32.3486 89.9189 32.3525C89.725 32.3564 89.5272 32.3603 89.1393 32.3603C88.798 32.3603 88.6274 32.3603 88.4567 32.3642C88.2705 32.3642 88.0882 32.368 87.7159 32.368C87.4793 32.368 87.363 32.3758 87.2427 32.3836C86.9829 32.3991 86.7346 32.4147 86.2964 32.4147C85.8581 32.4147 85.6409 32.403 85.4198 32.3952C85.2841 32.3875 85.1483 32.3836 84.873 32.3836C84.6247 32.3836 84.5006 32.3914 84.3804 32.3991C84.1748 32.4108 83.9189 32.4263 83.4534 32.4263C82.957 32.4263 82.67 32.403 82.4605 32.3875C82.317 32.3758 82.2472 32.3719 82.0339 32.3719C81.6111 32.3719 81.4017 32.3642 81.1923 32.3564C81.0332 32.3564 80.8897 32.3525 80.5989 32.3525C80.4166 32.3525 80.3661 32.3564 80.2304 32.3719C79.9511 32.3991 79.6641 32.4225 79.1754 32.4225C78.7333 32.4225 78.5122 32.4108 78.2911 32.403C78.1554 32.3952 78.0235 32.3914 77.7559 32.3914C77.4224 32.3914 77.2556 32.3952 77.0927 32.3952C76.9026 32.3991 76.7126 32.3991 76.3364 32.3991C75.9408 32.3991 75.743 32.3952 75.5452 32.3914C75.3862 32.3875 75.231 32.3836 74.913 32.3836C74.5911 32.3836 74.4243 32.3836 74.2614 32.3875C74.2498 32.438 74.2459 32.4769 74.2459 32.5624C74.2459 32.7023 74.2536 32.745 74.273 32.8383C74.3118 33.0287 74.3467 33.2269 74.3467 33.5572C74.3467 33.8953 74.3079 34.0974 74.2653 34.2917C74.2459 34.385 74.2342 34.4239 74.2342 34.5521C74.2342 34.7659 74.242 34.8747 74.2459 34.9835C74.2536 35.1234 74.2653 35.2672 74.2653 35.5509C74.2653 35.7879 74.2691 35.9045 74.2691 36.0211C74.273 36.1532 74.2769 36.2854 74.2769 36.5458C74.2769 36.6818 74.2847 36.7206 74.304 36.8178C74.3467 37.0082 74.3816 37.2064 74.3816 37.5445C74.3816 37.8749 74.3545 38.0536 74.3312 38.2013C74.3196 38.2868 74.3079 38.3723 74.3079 38.5433C74.3079 38.691 74.3157 38.7376 74.3351 38.8386C74.37 39.0252 74.4049 39.2156 74.4049 39.5421C74.4049 39.8957 74.3583 40.1133 74.3079 40.3076C74.2847 40.397 74.2769 40.4242 74.2769 40.5408C74.2769 40.8517 74.2575 41.0111 74.2381 41.1665C74.2265 41.2598 74.2148 41.353 74.2148 41.5396C74.2148 41.6251 74.2187 41.6329 74.242 41.7145C74.3079 41.9204 74.37 42.1575 74.37 42.5384C74.37 42.8454 74.3467 43.0202 74.3196 43.2029C74.3079 43.2845 74.2924 43.37 74.2924 43.5371C74.2924 43.7664 74.2963 45.7562 74.3002 45.8689C74.304 46.0049 74.3118 46.1409 74.3118 46.4129C74.3118 46.7005 74.3002 46.8443 74.2924 46.9881C74.2847 47.093 74.2769 47.198 74.2769 47.4117C74.2769 47.6488 74.2808 47.7692 74.2808 47.8858C74.2847 48.018 74.2847 48.1462 74.2847 48.4105C74.2847 48.4571 74.2847 48.4921 74.2808 48.5309C74.3002 48.5232 74.37 49.3237 75.6848 49.5219Z" fill="white"/>
<path d="M67.9118 77.7549C67.8497 77.7549 67.7799 77.7549 67.6946 77.7549C67.6442 77.7549 67.6054 77.7549 67.5666 77.7549C67.3378 77.7549 67.1981 77.7588 67.0624 77.7627C66.8685 77.7665 66.6707 77.7704 66.2828 77.7704C65.8911 77.7704 65.6933 77.7665 65.4994 77.7627C65.3442 77.7588 65.1852 77.7549 64.871 77.7549C64.5297 77.7549 64.3552 77.7549 64.1845 77.7588C64.0023 77.7588 63.82 77.7627 63.4554 77.7627L62.0436 77.7665C61.7295 77.7665 61.5704 77.7704 61.4114 77.7743C61.2175 77.7782 61.0197 77.7821 60.6318 77.7821C60.2517 77.7821 60.0617 77.7782 59.8716 77.7782C59.7088 77.7743 59.5459 77.7743 59.2162 77.7743C58.8981 77.7743 58.7391 77.7782 58.5801 77.7821C58.3862 77.786 58.1923 77.7899 57.8083 77.7899C57.4088 77.7899 57.211 77.786 57.0132 77.7782C56.8581 77.7743 56.7029 77.7704 56.3965 77.7704C56.0203 77.7704 55.8341 77.7665 55.648 77.7665C55.4812 77.7627 55.3144 77.7627 54.9847 77.7627C54.6861 77.7627 54.5348 77.7665 54.3874 77.7704C54.1819 77.7782 53.9802 77.7821 53.573 77.7821C53.1929 77.7821 53.0028 77.7782 52.8128 77.7743C52.6654 77.7704 52.5103 77.7704 52.2349 77.7704C52.2426 77.8831 52.2504 78.0153 52.2504 78.2173C52.2504 78.5554 52.2194 78.7498 52.2 78.8897C52.1883 78.9713 52.1767 79.0529 52.1767 79.2122C52.1767 79.2394 52.1767 79.2627 52.1806 79.2822L52.2 79.3405C52.2698 79.5581 52.3396 79.8068 52.3396 80.211C52.3396 80.5685 52.2931 80.79 52.2465 80.9844C52.2271 81.0737 52.2194 81.0971 52.2194 81.2059C52.2194 81.3769 52.231 81.4585 52.2426 81.544C52.262 81.6917 52.2892 81.8743 52.2892 82.2046C52.2892 82.4611 52.2892 82.5894 52.2853 82.7215C52.2853 82.842 52.2814 82.9625 52.2814 83.2034C52.2814 83.4366 52.2853 83.557 52.2853 83.6736C52.2892 83.8058 52.2931 83.9379 52.2931 84.2022C52.2931 84.3848 52.3047 84.4742 52.3124 84.5636C52.3318 84.7229 52.3512 84.8823 52.3512 85.2009C52.3512 85.5701 52.3008 85.7994 52.2465 86.0015C52.2232 86.087 52.2194 86.1025 52.2194 86.1997C52.2194 86.5067 52.2039 86.6583 52.1883 86.8137C52.1806 86.9109 52.1689 87.008 52.1689 87.1985C52.1689 87.2257 52.1689 87.2451 52.1728 87.2645L52.1922 87.3189C52.262 87.5288 52.3357 87.7892 52.3357 88.1972C52.3357 88.4965 52.3241 88.6441 52.3124 88.7918C52.3047 88.8929 52.2969 88.9939 52.2969 89.196C52.2969 89.4331 52.3008 89.5535 52.3008 89.6701C52.3047 89.8022 52.3047 89.9305 52.3047 90.1909C52.3047 90.5173 52.2814 90.7 52.262 90.8476C52.2504 90.9331 52.2388 91.0186 52.2388 91.1896C52.2388 91.4928 52.2232 91.6482 52.2116 91.7998C52.2039 91.8969 52.1922 91.9941 52.1922 92.1923C52.1922 92.2195 52.1922 92.2428 52.1961 92.2584L52.2155 92.3128C52.2892 92.5343 52.359 92.783 52.359 93.1872C52.359 93.2493 52.3551 93.3038 52.3551 93.3582C52.4715 93.3543 52.5607 93.3504 52.6421 93.3465C52.8671 93.3348 53.0882 93.3232 53.5342 93.3232C53.9569 93.3232 54.1703 93.331 54.3836 93.3387C54.5271 93.3426 54.6706 93.3504 54.9537 93.3504C55.2407 93.3504 55.3803 93.3465 55.5238 93.3387C55.7372 93.331 55.9505 93.3232 56.3732 93.3232C56.7495 93.3232 56.9356 93.3271 57.1257 93.3271C57.2924 93.3271 57.4592 93.331 57.7967 93.331C58.2853 93.331 58.5724 93.3543 58.8516 93.3815C58.9835 93.3931 59.0339 93.4009 59.2162 93.4009C59.5536 93.4009 59.7204 93.4009 59.891 93.397C60.0772 93.397 60.2634 93.3931 60.6357 93.3931C61.0042 93.3931 61.1865 93.3931 61.3726 93.397C61.5433 93.397 61.7139 93.4009 62.0552 93.4009C62.2337 93.4009 62.2802 93.397 62.4121 93.3854C62.6913 93.3582 62.9822 93.3348 63.4748 93.3348C63.9441 93.3348 64.2039 93.3504 64.4134 93.3659C64.5336 93.3737 64.6538 93.3815 64.8943 93.3815C65.3365 93.3815 65.5575 93.3931 65.7747 93.4009C65.9105 93.4087 66.0423 93.4126 66.3138 93.4126C66.4961 93.4126 66.5466 93.4087 66.6784 93.397C66.9577 93.3698 67.2486 93.3465 67.7373 93.3465C68.1639 93.3465 68.3772 93.3543 68.5905 93.3621C68.734 93.3659 68.8736 93.3737 69.1607 93.3737C69.3585 93.3737 69.4903 93.3737 69.6028 93.3698C69.6106 93.3465 69.6183 93.3154 69.6261 93.2921L69.6455 93.2377C69.6455 93.2299 69.6455 93.2144 69.6455 93.1911C69.6455 93.1639 69.6455 93.1405 69.6416 93.125L69.6222 93.0706C69.5485 92.8491 69.4787 92.6003 69.4787 92.1962C69.4787 91.8892 69.4942 91.7376 69.5058 91.586C69.5136 91.4889 69.5252 91.3917 69.5252 91.1974C69.5252 90.8671 69.5485 90.6883 69.5679 90.5406C69.5795 90.4551 69.5912 90.3696 69.5912 90.1986C69.5912 89.9616 69.5873 89.8411 69.5873 89.7245C69.5834 89.5924 69.5834 89.4641 69.5834 89.2038C69.5834 88.9084 69.5951 88.7568 69.6067 88.6092C69.6144 88.5081 69.6222 88.4071 69.6222 88.205C69.6222 88.1778 69.6222 88.1584 69.6183 88.1389L69.5989 88.0845C69.5291 87.8747 69.4554 87.6143 69.4554 87.2062C69.4554 86.8992 69.4709 86.7477 69.4865 86.5922C69.4942 86.4951 69.5058 86.3979 69.5058 86.2075C69.5058 85.8344 69.5563 85.609 69.6106 85.403C69.6338 85.3175 69.6377 85.302 69.6377 85.2048C69.6377 85.0222 69.6261 84.9328 69.6183 84.8434C69.5989 84.6841 69.5795 84.5247 69.5795 84.2061C69.5795 83.9729 69.5757 83.8524 69.5718 83.7358C69.5679 83.6037 69.564 83.4716 69.564 83.2073C69.564 82.9508 69.564 82.8225 69.5679 82.6904C69.5679 82.5699 69.5718 82.4495 69.5718 82.2085C69.5718 82.0414 69.5601 81.9559 69.5485 81.8704C69.5291 81.7227 69.502 81.5401 69.502 81.2098C69.502 80.8522 69.5485 80.6307 69.5951 80.4325C69.6144 80.3431 69.6222 80.3198 69.6222 80.211C69.6222 80.1838 69.6222 80.1605 69.6183 80.141L69.5989 80.0827C69.5291 79.8651 69.4593 79.6164 69.4593 79.2122C69.4593 78.9013 69.4826 78.7226 69.5097 78.5399C69.533 77.8909 68.4742 77.7704 67.9118 77.7549Z" fill="white"/>
<path d="M52.2587 50.59C52.2509 50.7182 52.2393 50.8192 52.2277 50.9125C52.216 50.9941 52.2044 51.0796 52.2044 51.2428C52.2044 51.3128 52.2044 51.3128 52.2277 51.3866C52.2897 51.5848 52.3518 51.8064 52.3518 52.1717C52.3518 52.4592 52.3285 52.6264 52.3014 52.7973C52.2897 52.8751 52.2781 52.9489 52.2781 53.1005C52.2781 53.4153 52.2432 53.6018 52.2083 53.7767C52.1889 53.8661 52.1811 53.901 52.1811 54.0254C52.1811 54.0915 52.1811 54.0915 52.2044 54.1614C52.2703 54.3596 52.3363 54.585 52.3363 54.9542C52.3363 55.199 52.3324 55.3195 52.3324 55.4439C52.3285 55.5527 52.3285 55.6654 52.3285 55.883C52.3285 56.0968 52.3324 56.2056 52.3363 56.3144C52.3401 56.4388 52.344 56.5631 52.344 56.8118C52.344 57.1733 52.282 57.3987 52.2199 57.5969C52.1966 57.6707 52.1966 57.6707 52.1966 57.7407C52.1966 57.9933 52.1928 58.1176 52.1889 58.242C52.185 58.3469 52.1811 58.4557 52.1811 58.6695C52.1811 58.8366 52.1928 58.9182 52.2044 59.0037C52.2238 59.1514 52.2432 59.299 52.2432 59.5983C52.2432 59.8936 52.2238 60.0413 52.2044 60.1929C52.1928 60.2784 52.1811 60.36 52.1811 60.5271C52.1811 60.6748 52.1928 60.7486 52.2044 60.8224C52.2277 60.9546 52.2587 61.1411 52.2587 61.4559C52.2587 61.7007 52.2548 61.8251 52.2509 61.9456C52.2471 62.0544 52.2471 62.1632 52.2471 62.3847C52.2471 62.6723 52.2238 62.8355 52.2005 63.0065C52.1889 63.0842 52.1772 63.162 52.1772 63.3135C52.1772 63.4068 52.1811 63.4185 52.2044 63.5001C52.2548 63.6866 52.3091 63.9004 52.3091 64.2423C52.3091 64.5571 52.2742 64.7476 52.2354 64.9263C52.216 65.0118 52.2083 65.0507 52.2083 65.1712C52.2083 65.3771 52.2122 65.4821 52.2199 65.5831C52.2277 65.7113 52.2315 65.8396 52.2315 66.1C52.2315 66.236 52.2393 66.2826 52.2587 66.3759C52.2858 66.5119 52.3208 66.7023 52.3208 67.0288C52.3208 67.2425 52.3246 67.3475 52.3285 67.4524C52.3324 67.5806 52.3401 67.705 52.3401 67.9576C52.3401 68.2063 52.3363 68.3346 52.3324 68.4589C52.3285 68.5677 52.3246 68.6727 52.3246 68.8864C52.3246 69.1429 52.3208 69.2711 52.313 69.3994C52.3091 69.5043 52.3014 69.6093 52.3014 69.8152C52.3014 70.0717 52.2975 70.1961 52.2897 70.3243C52.2858 70.4293 52.282 70.5342 52.282 70.744C52.282 71.0705 52.2471 71.257 52.2238 71.393C52.2083 71.4863 52.1966 71.5329 52.1966 71.6728C52.1966 71.8749 52.2005 71.976 52.2083 72.077C52.216 72.2092 52.2238 72.3413 52.2238 72.6017C52.2238 72.6872 52.2277 72.6988 52.2509 72.7765C52.3052 72.967 52.3595 73.1807 52.3595 73.5305C52.3595 73.8569 52.3246 74.0473 52.2975 74.1834C52.282 74.2766 52.2703 74.3194 52.2703 74.4593C52.2703 74.5254 52.2703 74.5836 52.2703 74.6381C52.5806 74.6381 52.759 74.6419 52.9297 74.6419C53.0926 74.6458 53.2555 74.6458 53.5813 74.6458C53.8799 74.6458 54.0312 74.6419 54.1786 74.6381C54.3841 74.6303 54.5858 74.6264 54.993 74.6264C55.3693 74.6264 55.5554 74.6303 55.7416 74.6303C55.9084 74.6303 56.0751 74.6342 56.4048 74.6342C56.8004 74.6342 57.0021 74.6381 57.1999 74.6458C57.355 74.6497 57.5102 74.6536 57.8166 74.6536C58.1346 74.6536 58.2936 74.6497 58.4527 74.6458C58.6466 74.6419 58.8405 74.6381 59.2245 74.6381C59.6046 74.6381 59.7946 74.6419 59.9847 74.6419C60.1476 74.6458 60.3105 74.6458 60.6401 74.6458C60.9543 74.6458 61.1133 74.6419 61.2723 74.6381C61.4663 74.6342 61.6641 74.6303 62.0519 74.6303H63.4637C63.805 74.6303 63.9756 74.6303 64.1502 74.6264C64.3325 74.6264 64.5148 74.6225 64.8793 74.6225C65.2711 74.6225 65.4689 74.6264 65.6628 74.6303C65.8179 74.6342 65.977 74.6381 66.2911 74.6381C66.6092 74.6381 66.7643 74.6342 66.9233 74.6303C67.1172 74.6264 67.315 74.6225 67.7029 74.6225C68.0985 74.6225 68.2963 74.6264 68.4941 74.6303C68.6492 74.6342 68.8044 74.6381 69.1147 74.6381C69.3047 74.6381 69.4366 74.6381 69.5452 74.6342C69.5491 74.5836 69.5491 74.5254 69.5491 74.4515C69.5491 74.1251 69.584 73.9346 69.6111 73.7947C69.6266 73.7015 69.6383 73.6587 69.6383 73.5188C69.6383 73.4333 69.6344 73.4217 69.6111 73.3439C69.5568 73.1535 69.5025 72.9398 69.5025 72.59C69.5025 72.3879 69.4986 72.2869 69.4909 72.1858C69.4831 72.0537 69.4754 71.9216 69.4754 71.6612C69.4754 71.3347 69.5103 71.1482 69.5335 71.0122C69.5491 70.9189 69.5607 70.8723 69.5607 70.7324C69.5607 70.4759 69.5646 70.3515 69.5723 70.2233C69.5762 70.1184 69.5801 70.0134 69.5801 69.8036C69.5801 69.5471 69.5878 69.4188 69.5917 69.2906C69.5956 69.1857 69.6034 69.0846 69.6034 68.8748C69.6034 68.626 69.6072 68.5017 69.6111 68.3773C69.615 68.2685 69.6189 68.1636 69.6189 67.9459C69.6189 67.7322 69.615 67.6273 69.6111 67.5223C69.6072 67.3941 69.5995 67.2697 69.5995 67.0171C69.5995 66.8772 69.5917 66.8345 69.5723 66.7412C69.5452 66.6052 69.5103 66.4148 69.5103 66.0883C69.5103 65.8823 69.5064 65.7774 69.4986 65.6764C69.4909 65.5481 69.487 65.4199 69.487 65.1595C69.487 64.8447 69.5219 64.6582 69.5607 64.4794C69.5801 64.39 69.5878 64.355 69.5878 64.2346C69.5878 64.1413 69.584 64.1296 69.5607 64.048C69.5103 63.8615 69.4599 63.6477 69.4599 63.3058C69.4599 63.0182 69.4831 62.855 69.5064 62.684C69.518 62.6062 69.5297 62.5285 69.5297 62.3769C69.5297 62.1321 69.5335 62.0078 69.5374 61.8873C69.5413 61.7785 69.5413 61.6697 69.5413 61.4481C69.5413 61.3005 69.5297 61.2305 69.518 61.1567C69.4948 61.0206 69.4637 60.838 69.4637 60.5193C69.4637 60.224 69.4831 60.0724 69.5025 59.9247C69.5141 59.8392 69.5258 59.7576 69.5258 59.5905C69.5258 59.4234 69.5141 59.3418 69.5025 59.2563C69.4831 59.1086 69.4637 58.957 69.4637 58.6617C69.4637 58.4091 69.4676 58.2847 69.4715 58.1604C69.4754 58.0554 69.4792 57.9466 69.4792 57.7329C69.4792 57.3715 69.5413 57.1461 69.6034 56.9517C69.6266 56.8779 69.6266 56.8779 69.6266 56.8041C69.6266 56.5903 69.6227 56.4815 69.6189 56.3727C69.615 56.2483 69.6111 56.124 69.6111 55.8753C69.6111 55.6304 69.615 55.5099 69.6189 55.3856C69.6227 55.2768 69.6227 55.1641 69.6227 54.9464C69.6227 54.8804 69.6227 54.8804 69.5995 54.8104C69.5335 54.6122 69.4715 54.3868 69.4715 54.0176C69.4715 53.7028 69.5064 53.5202 69.5413 53.3414C69.5607 53.252 69.5684 53.2171 69.5684 53.0888C69.5684 52.8012 69.5917 52.6341 69.6189 52.4631C69.6305 52.3893 69.6421 52.3116 69.6421 52.16C69.6421 52.0901 69.6421 52.0901 69.6189 52.0162C69.5529 51.818 69.4909 51.5965 69.4909 51.2312C69.4909 50.9319 69.5103 50.7843 69.5297 50.6327C69.5413 50.5511 69.5529 50.4656 69.5529 50.3024C69.5529 50.2324 69.5529 50.178 69.5491 50.1275C69.328 49.665 68.9712 49.3736 68.8742 49.2997C68.626 49.2997 68.4708 49.2958 68.3157 49.292C68.1606 49.2881 68.0054 49.2842 67.699 49.2842C67.381 49.2842 67.2258 49.2881 67.0668 49.292C66.8729 49.2958 66.6751 49.2997 66.2872 49.2997C65.8955 49.2997 65.6977 49.2958 65.5038 49.292C65.3486 49.2881 65.1896 49.2842 64.8755 49.2842C64.5342 49.2842 64.3635 49.2842 64.1928 49.2881C64.0106 49.2881 63.8283 49.292 63.4637 49.292H62.0519C61.7378 49.292 61.5787 49.2958 61.4197 49.2997C61.2258 49.3036 61.028 49.3075 60.6401 49.3075C60.26 49.3075 60.07 49.3036 59.88 49.3036C59.7171 49.2997 59.5542 49.2997 59.2245 49.2997C58.9064 49.2997 58.7474 49.3036 58.5884 49.3075C58.3945 49.3114 58.2006 49.3153 57.8127 49.3153C57.4132 49.3153 57.2154 49.3114 57.0176 49.3075C56.8625 49.3036 56.7112 49.2997 56.4009 49.2997C56.0247 49.2997 55.8386 49.2958 55.6524 49.2958C55.4856 49.2958 55.3188 49.292 54.9853 49.292C54.6866 49.292 54.5354 49.2958 54.388 49.2997C54.1824 49.3075 53.9807 49.3114 53.5735 49.3114C52.4836 49.3269 52.2587 50.59 52.2587 50.59Z" fill="white"/>
<path d="M74.2963 53.2633C74.3662 53.4615 74.436 53.683 74.436 54.0483C74.436 54.3359 74.4127 54.503 74.3817 54.674C74.37 54.7478 74.3545 54.8256 74.3545 54.9771C74.3545 55.2919 74.3157 55.4746 74.277 55.6533C74.2576 55.7427 74.2459 55.7777 74.2459 55.9059C74.2459 55.972 74.2459 55.972 74.2692 56.0419C74.3429 56.2401 74.4127 56.4655 74.4127 56.8347C74.4127 57.0796 74.4088 57.2 74.4049 57.3244C74.4011 57.4332 74.4011 57.5459 74.4011 57.7636C74.4011 57.9773 74.4049 58.0861 74.4088 58.1949C74.4127 58.3193 74.4166 58.4436 74.4166 58.6924C74.4166 59.0538 74.3002 59.3025 74.3002 59.6017C74.3002 59.8971 74.2808 60.0487 74.2576 60.1963C74.2459 60.278 74.2343 60.3635 74.2343 60.5306C74.2343 60.6782 74.2459 60.7482 74.2614 60.822C74.2847 60.9542 74.3196 61.1407 74.3196 61.4594C74.3196 61.7042 74.3157 61.8286 74.3119 61.949C74.308 62.0579 74.3041 62.1667 74.3041 62.3882C74.3041 62.6758 74.2808 62.839 74.2498 63.01C74.2382 63.0877 74.2227 63.1654 74.2227 63.317C74.2227 63.4103 74.2265 63.4219 74.2498 63.5035C74.308 63.6901 74.3623 63.9038 74.3623 64.2458C74.3623 64.5606 74.3235 64.7471 74.2808 64.9298C74.2614 65.0192 74.2498 65.0542 74.2498 65.1746C74.2498 65.3806 74.2537 65.4855 74.2614 65.5866C74.2692 65.7148 74.277 65.8431 74.277 66.1034C74.277 66.2433 74.2847 66.2861 74.3041 66.3794C74.308 66.4027 74.3157 66.4338 74.3196 66.461C74.4631 66.461 74.6299 66.461 74.8859 66.461L76.4799 66.4571C76.9105 66.4571 77.1238 66.461 77.341 66.4649C77.5233 66.4687 77.7094 66.4687 78.074 66.4687C78.4076 66.4687 78.5782 66.4649 78.745 66.461C78.9777 66.4532 79.2065 66.4493 79.6681 66.4493C80.0908 66.4493 80.3003 66.4532 80.5136 66.4532C80.6998 66.4571 80.8859 66.4571 81.2621 66.4571C81.712 66.4571 81.937 66.461 82.1619 66.4687C82.3326 66.4726 82.5071 66.4765 82.8523 66.4765C83.2091 66.4765 83.3914 66.4726 83.5698 66.4687C83.7909 66.4649 84.0081 66.461 84.4464 66.461C84.8769 66.461 85.0902 66.4649 85.3035 66.4687C85.4858 66.4726 85.672 66.4726 86.0405 66.4726C86.3934 66.4726 86.5718 66.4687 86.7502 66.4649C86.9713 66.461 87.1924 66.4571 87.6345 66.4571L89.2286 66.4532C89.6125 66.4532 89.8065 66.4532 90.0004 66.4493C90.206 66.4493 90.4115 66.4454 90.8226 66.4454C91.2687 66.4454 91.4897 66.4493 91.7108 66.4532C91.8582 66.4571 92.0095 66.461 92.2538 66.461C92.2538 66.4493 92.2499 66.4377 92.2499 66.426C92.2267 66.29 92.1918 66.1034 92.1918 65.777C92.1918 65.5283 92.1956 65.4039 92.1995 65.2796C92.2034 65.1707 92.2034 65.058 92.2034 64.8365C92.2034 64.5451 92.2267 64.3779 92.2538 64.2031C92.2654 64.1253 92.2771 64.0515 92.2771 63.8961C92.2771 63.8067 92.2732 63.7989 92.2499 63.7173C92.1956 63.5269 92.1762 62.4426 92.2189 62.2599C92.2383 62.1706 92.2461 62.1395 92.2461 62.019C92.2461 61.813 92.2383 61.7081 92.2344 61.6032C92.2267 61.471 92.2189 61.3428 92.2189 61.0785C92.2189 60.9425 92.2111 60.8959 92.1918 60.8065C92.1568 60.6316 92.1258 60.449 92.1258 60.1381C92.1258 59.9243 92.1219 59.8194 92.1181 59.7106C92.1142 59.5823 92.1064 59.4541 92.1064 59.1976C92.1064 58.945 92.1103 58.8167 92.1142 58.6885C92.1181 58.5797 92.1219 58.4709 92.1219 58.2571C92.1219 57.9967 92.1297 57.8685 92.1336 57.7364C92.1375 57.6314 92.1452 57.5265 92.1452 57.3166C92.1452 57.0563 92.2267 56.6404 92.2267 56.3762C92.2267 56.2946 92.2267 56.2868 92.1995 56.2091C92.1413 56.0147 92.0832 55.7932 92.0832 55.4357C92.0832 55.1287 92.1142 54.9421 92.1491 54.7673C92.1685 54.6779 92.1762 54.6312 92.1762 54.4952C92.1762 54.2154 92.1879 54.0755 92.1995 53.9356C92.2073 53.8423 92.215 53.7452 92.215 53.5547C92.215 53.3255 92.215 53.2128 92.2111 53.1001C92.2111 52.9835 92.2073 52.863 92.2073 52.6337C91.8931 52.6337 91.6992 52.6298 91.513 52.6259C91.3385 52.6221 91.1601 52.6182 90.8071 52.6182C90.4232 52.6182 90.2292 52.6182 90.0353 52.6221C89.8297 52.6221 89.6242 52.6259 89.2131 52.6259H87.619C87.2661 52.6259 87.0876 52.6298 86.9092 52.6337C86.6882 52.6376 86.4671 52.6415 86.0249 52.6415C85.5944 52.6415 85.3811 52.6376 85.1678 52.6337C84.9855 52.6298 84.7993 52.6298 84.4309 52.6298C84.0702 52.6298 83.8918 52.6337 83.7133 52.6376C83.4962 52.6415 83.2751 52.6454 82.8368 52.6454C82.3869 52.6454 82.1619 52.6415 81.937 52.6337C81.7625 52.6298 81.5918 52.6259 81.2466 52.6259C80.8239 52.6259 80.6144 52.6221 80.4011 52.6221C80.2149 52.6182 80.0288 52.6182 79.6526 52.6182C79.319 52.6182 79.1522 52.6221 78.9816 52.6298C78.7489 52.6376 78.52 52.6415 78.0585 52.6415C77.628 52.6415 77.4147 52.6376 77.1975 52.6337C77.0152 52.6298 76.829 52.6298 76.4644 52.6298H75.7236C74.4011 52.7697 74.2963 53.2633 74.2963 53.2633Z" fill="white"/>
<path d="M92.246 92.2968C92.2654 92.2074 92.2732 92.1763 92.2732 92.0559C92.2732 91.8538 92.2654 91.7527 92.2615 91.6517C92.2538 91.5195 92.2421 91.3835 92.2421 91.1154C92.2421 90.8939 92.2383 90.785 92.2344 90.6723C92.2305 90.548 92.2266 90.4236 92.2266 90.1788C92.2266 90.0544 92.2189 90.0195 92.1995 89.9301C92.1607 89.7474 92.1258 89.5609 92.1258 89.2422C92.1258 88.9313 92.1529 88.7603 92.1723 88.6204C92.184 88.5427 92.1956 88.4611 92.1956 88.3056C92.1956 88.1696 92.1878 88.1269 92.1685 88.0375C92.1336 87.8626 92.1025 87.6799 92.1025 87.369C92.1025 87.0309 92.1491 86.825 92.1956 86.6423C92.2189 86.5607 92.2228 86.5374 92.2228 86.4325C92.2228 86.1371 92.2421 85.9894 92.2577 85.8417C92.2693 85.7562 92.2771 85.6669 92.2771 85.4959C92.2771 85.422 92.2771 85.4181 92.2538 85.3404C92.1917 85.1422 92.1297 84.9207 92.1297 84.5554C92.1297 84.2639 92.1529 84.0968 92.1801 83.9258C92.1917 83.8481 92.2034 83.7704 92.2034 83.6188C92.2034 83.4051 92.1995 83.3001 92.1956 83.1913C92.1878 83.0631 92.184 82.9348 92.184 82.6783C92.184 82.4063 92.1956 82.2703 92.2034 82.1343C92.2111 82.0371 92.2189 81.9361 92.2189 81.7379C92.2189 81.5163 92.215 81.4036 92.215 81.2909C92.2111 81.1666 92.2111 81.0461 92.2111 80.7974C92.2111 80.4982 92.2305 80.3466 92.2499 80.195C92.2615 80.1095 92.2732 80.0279 92.2732 79.8569C92.2732 79.6548 92.2654 79.5538 92.2615 79.4528C92.2538 79.3206 92.246 79.1885 92.246 78.9203C92.246 78.7144 92.2421 78.6094 92.2344 78.5045C92.2266 78.3724 92.2189 78.2441 92.2189 77.9799C92.2189 77.7894 92.2111 77.6923 92.2034 77.599C92.1917 77.4591 92.1801 77.3231 92.1801 77.0433C92.1801 76.7402 92.2034 76.573 92.2228 76.437C92.2344 76.3554 92.246 76.2699 92.246 76.1067C92.246 76.0406 92.246 76.0406 92.2228 75.9707C92.1529 75.7686 92.087 75.5393 92.087 75.1662C92.087 74.8476 92.118 74.661 92.1413 74.5289C92.1529 74.455 92.1646 74.3773 92.1646 74.2296C92.1646 73.911 92.1995 73.7205 92.2421 73.5379C92.2615 73.4485 92.2693 73.4135 92.2693 73.2892C92.2693 73.227 92.2693 73.227 92.246 73.1609C92.1762 72.9549 92.1064 72.7257 92.1064 72.3487C92.1064 72.1 92.1103 71.9795 92.1142 71.8551C92.118 71.7424 92.118 71.6336 92.118 71.4121C92.118 71.1945 92.1142 71.0857 92.1103 70.9768C92.1064 70.8525 92.1025 70.7242 92.1025 70.4716C91.6953 69.8304 91.1135 69.6205 90.6752 69.5623C90.3921 69.5623 90.2214 69.5623 90.0547 69.5661C89.8491 69.5661 89.6436 69.57 89.2324 69.57L87.6384 69.5739C87.2854 69.5739 87.107 69.5778 86.9286 69.5817C86.7075 69.5856 86.4865 69.5895 86.0443 69.5895C85.6138 69.5895 85.4005 69.5856 85.1872 69.5817C85.0049 69.5778 84.8187 69.5778 84.4541 69.5778C84.0934 69.5778 83.915 69.5817 83.7366 69.5856C83.5194 69.5895 83.2983 69.5933 82.8601 69.5933C82.4101 69.5933 82.1852 69.5895 81.9602 69.5817C81.7896 69.5778 81.6151 69.5739 81.2699 69.5739C80.8471 69.5739 80.6377 69.57 80.4244 69.57C80.2382 69.5661 80.052 69.5661 79.6758 69.5661C79.3423 69.5661 79.1716 69.57 79.0048 69.5778C78.7721 69.5856 78.5433 69.5933 78.0817 69.5933C77.6512 69.5933 77.4379 69.5895 77.2207 69.5856C77.0384 69.5817 76.8523 69.5817 76.4877 69.5817L75.4831 69.5856C74.595 69.7371 74.3467 70.3667 74.3467 70.3667C74.3429 70.4755 74.3351 70.5882 74.3351 70.8059C74.3351 71.1478 74.2963 71.3422 74.2692 71.4859C74.2498 71.5831 74.242 71.6336 74.242 71.7774C74.242 71.9873 74.2498 72.0922 74.2537 72.201C74.2614 72.337 74.2692 72.4769 74.2692 72.7529C74.2692 72.8422 74.273 72.8539 74.2963 72.9355C74.3584 73.1337 74.4166 73.3591 74.4166 73.7244C74.4166 74.0664 74.3778 74.2646 74.3467 74.4123C74.3273 74.5094 74.3196 74.5561 74.3196 74.6999C74.3196 74.9875 74.308 75.1312 74.2924 75.275C74.2847 75.3722 74.273 75.4732 74.273 75.6714L74.2769 76.1456C74.2769 76.2699 74.2808 76.3943 74.2808 76.643C74.2808 76.915 74.273 77.0511 74.2653 77.1871C74.2614 77.292 74.2537 77.4008 74.2537 77.6146C74.2537 77.8089 74.2614 77.906 74.273 78.0032C74.2886 78.1509 74.3002 78.2947 74.3002 78.59C74.3002 78.8931 74.2769 79.068 74.2459 79.2468C74.2343 79.3245 74.2188 79.4061 74.2188 79.5655C74.2188 79.5927 74.2188 79.616 74.2226 79.6315L74.242 79.6859C74.3196 79.8997 74.3972 80.1406 74.3972 80.537C74.3972 80.8868 74.3467 81.1044 74.2963 81.2948C74.273 81.3803 74.2653 81.4036 74.2653 81.5125C74.2653 81.6757 74.2769 81.7573 74.2924 81.8428C74.3157 81.9866 74.3429 82.1654 74.3429 82.4879C74.3429 82.7405 74.339 82.8649 74.339 82.9892C74.339 83.1058 74.3351 83.2224 74.3351 83.4595C74.3351 83.6888 74.339 83.8015 74.3429 83.9181C74.3467 84.0463 74.3506 84.1745 74.3506 84.4349C74.3506 84.6137 74.3623 84.6992 74.3739 84.7886C74.3933 84.944 74.4166 85.0995 74.4166 85.4104C74.4166 85.7718 74.3584 85.9972 74.3002 86.1954C74.2769 86.2809 74.273 86.2925 74.273 86.3858C74.273 86.6851 74.2575 86.8327 74.242 86.9843C74.2304 87.0776 74.2226 87.1708 74.2226 87.3613C74.2226 87.3885 74.2226 87.4079 74.2265 87.4273L74.2459 87.4817C74.3235 87.6877 74.4049 87.9403 74.4049 88.3406C74.4049 88.6321 74.3933 88.7759 74.3778 88.9196C74.37 89.0168 74.3584 89.1178 74.3584 89.316C74.3584 89.5492 74.3623 89.6619 74.3623 89.7785C74.3661 89.9068 74.3661 90.035 74.3661 90.2876C74.3661 90.6063 74.339 90.785 74.3157 90.9288C74.3041 91.0105 74.2924 91.0959 74.2924 91.2631C74.2924 91.5623 74.2769 91.71 74.2614 91.8577C74.2498 91.9509 74.242 92.0481 74.242 92.2385C74.242 92.2657 74.242 92.2851 74.2459 92.3046L74.2653 92.359C74.3467 92.5727 74.4243 92.8176 74.4243 93.214C74.4243 93.2645 74.4204 93.3111 74.4204 93.3577C74.5252 93.3616 74.6454 93.3616 74.8277 93.3616C75.1729 93.3616 75.3435 93.3616 75.5142 93.3577C75.6965 93.3577 75.8787 93.3539 76.2472 93.3539C76.6389 93.3539 76.8367 93.3577 77.0307 93.3616C77.1897 93.3655 77.3487 93.3694 77.6667 93.3694C78.0003 93.3694 78.1671 93.3694 78.3338 93.3655C78.5239 93.3616 78.7101 93.3616 79.0863 93.3616C79.5245 93.3616 79.7417 93.3733 79.9628 93.3811C80.0986 93.3888 80.2343 93.3927 80.5097 93.3927C80.6997 93.3927 80.7579 93.3888 80.8937 93.3772C81.1651 93.3539 81.4483 93.3305 81.9292 93.3305C82.3481 93.3305 82.5575 93.3383 82.7631 93.3461C82.9105 93.35 83.054 93.3577 83.3487 93.3577C83.8374 93.3577 84.1206 93.3772 84.3261 93.3927C84.4386 93.4005 84.5472 93.4083 84.7683 93.4083C85.0204 93.4083 85.1484 93.4005 85.2725 93.3927C85.5013 93.3811 85.7301 93.3655 86.1878 93.3655C86.6222 93.3655 86.8355 93.3733 87.0527 93.3849C87.1923 93.3927 87.3281 93.3966 87.6073 93.3966C87.8517 93.3966 87.9719 93.3888 88.096 93.3811C88.3055 93.3694 88.5615 93.3539 89.0307 93.3539C89.3721 93.3539 89.5427 93.3539 89.7134 93.35C89.8995 93.35 90.0818 93.3461 90.4503 93.3461C90.7024 93.3461 90.8536 93.3461 90.9894 93.3422C91.8698 93.0546 92.246 92.2968 92.246 92.2968Z" fill="white"/>
</svg>
