<svg width="56" height="56" viewBox="0 0 56 56" fill="none" xmlns="http://www.w3.org/2000/svg">
<g>
<circle cx="28" cy="28" r="15.5" stroke="white"/>
<path d="M31.8081 33.238C31.7241 33.238 31.5561 33.168 31.3041 33.028C31.0614 32.888 30.8281 32.664 30.6041 32.356C30.5667 32.3093 30.4501 32.1693 30.2541 31.936C30.0674 31.7027 29.8247 31.4133 29.5261 31.068C29.2367 30.7133 28.9194 30.3307 28.5741 29.92C28.2287 29.5093 27.8834 29.0987 27.5381 28.688C27.1927 28.2773 26.8707 27.8993 26.5721 27.554C26.2734 27.1993 26.0214 26.9053 25.8161 26.672C25.6201 26.4293 25.4987 26.28 25.4521 26.224C25.3867 26.14 25.3307 26.084 25.2841 26.056C25.2374 26.0187 25.1954 26 25.1581 26C25.1114 26 25.0787 26.0373 25.0601 26.112C25.0414 26.1773 25.0321 26.238 25.0321 26.294C25.0227 26.7513 25.0134 27.2787 25.0041 27.876C24.9947 28.4733 24.9854 29.0893 24.9761 29.724C24.9667 30.3587 24.9621 30.9653 24.9621 31.544C24.9621 31.796 25.0227 32.0293 25.1441 32.244C25.2747 32.4587 25.5127 32.5987 25.8581 32.664C26.0167 32.692 26.1334 32.7247 26.2081 32.762C26.2827 32.7993 26.3201 32.8507 26.3201 32.916C26.3201 32.972 26.2827 33.0093 26.2081 33.028C26.1334 33.056 26.0354 33.07 25.9141 33.07C25.6621 33.07 25.4707 33.0607 25.3401 33.042C25.2187 33.0327 25.1067 33.0233 25.0041 33.014C24.9107 33.0047 24.7754 33 24.5981 33C24.4301 33 24.2994 33.0047 24.2061 33.014C24.1127 33.0233 24.0054 33.0327 23.8841 33.042C23.7627 33.0607 23.5761 33.07 23.3241 33.07C23.2027 33.07 23.1047 33.056 23.0301 33.028C22.9554 33.0093 22.9181 32.972 22.9181 32.916C22.9181 32.8507 22.9554 32.7993 23.0301 32.762C23.1047 32.7247 23.2214 32.6873 23.3801 32.65C23.6507 32.5753 23.8467 32.44 23.9681 32.244C24.0894 32.0387 24.1641 31.7913 24.1921 31.502C24.2294 31.1473 24.2667 30.6807 24.3041 30.102C24.3414 29.514 24.3741 28.8607 24.4021 28.142C24.4301 27.414 24.4441 26.6673 24.4441 25.902C24.4441 25.4073 24.3134 25.0527 24.0521 24.838C23.8001 24.6233 23.4687 24.4507 23.0581 24.32C23.0207 24.3013 22.9367 24.264 22.8061 24.208C22.6847 24.1427 22.6241 24.068 22.6241 23.984C22.6241 23.9 22.6661 23.8487 22.7501 23.83C22.8341 23.802 22.8994 23.788 22.9461 23.788C23.2167 23.7973 23.4361 23.8067 23.6041 23.816C23.7721 23.816 23.9214 23.8207 24.0521 23.83C24.1827 23.8393 24.3274 23.8487 24.4861 23.858C24.6447 23.858 24.8501 23.858 25.1021 23.858C25.1861 23.858 25.2514 23.8813 25.2981 23.928C25.3447 23.9747 25.3914 24.0307 25.4381 24.096C25.4754 24.152 25.5967 24.3107 25.8021 24.572C26.0167 24.824 26.2781 25.146 26.5861 25.538C26.9034 25.9207 27.2487 26.3407 27.6221 26.798C27.9954 27.246 28.3687 27.6987 28.7421 28.156C29.1154 28.604 29.4607 29.024 29.7781 29.416C30.0954 29.7987 30.3567 30.116 30.5621 30.368C30.7767 30.62 30.9027 30.7693 30.9401 30.816C30.9774 30.8533 31.0287 30.9093 31.0941 30.984C31.1687 31.0587 31.2341 31.096 31.2901 31.096C31.3741 31.096 31.4207 30.998 31.4301 30.802C31.4301 30.6713 31.4301 30.424 31.4301 30.06C31.4394 29.6867 31.4441 29.2387 31.4441 28.716C31.4534 28.184 31.4581 27.61 31.4581 26.994C31.4581 26.378 31.4581 25.748 31.4581 25.104C31.4487 24.9173 31.3507 24.7493 31.1641 24.6C30.9774 24.4507 30.8047 24.362 30.6461 24.334C30.4874 24.306 30.3427 24.2687 30.2121 24.222C30.0814 24.1753 30.0161 24.1193 30.0161 24.054C30.0161 23.998 30.0814 23.9607 30.2121 23.942C30.3427 23.914 30.4687 23.9 30.5901 23.9C30.6834 23.9 30.7721 23.9 30.8561 23.9C30.9494 23.9 31.0381 23.9 31.1221 23.9C31.2154 23.9 31.3041 23.9 31.3881 23.9C31.6121 23.9 31.7894 23.9 31.9201 23.9C32.0507 23.8907 32.1907 23.8813 32.3401 23.872C32.4987 23.8627 32.7181 23.858 32.9981 23.858C33.1194 23.858 33.2174 23.872 33.2921 23.9C33.3667 23.9187 33.4041 23.956 33.4041 24.012C33.4041 24.1427 33.2501 24.236 32.9421 24.292C32.5967 24.3573 32.3681 24.4413 32.2561 24.544C32.1441 24.6467 32.0787 24.8147 32.0601 25.048C32.0601 25.0947 32.0554 25.2767 32.0461 25.594C32.0461 25.9113 32.0461 26.3127 32.0461 26.798C32.0461 27.2833 32.0414 27.806 32.0321 28.366C32.0321 28.926 32.0321 29.486 32.0321 30.046C32.0321 30.5967 32.0321 31.0913 32.0321 31.53C32.0321 31.754 32.0367 31.9593 32.0461 32.146C32.0647 32.3233 32.0787 32.4773 32.0881 32.608C32.0974 32.7293 32.1021 32.8227 32.1021 32.888C32.1021 33.0373 32.0694 33.1307 32.0041 33.168C31.9481 33.2147 31.8827 33.238 31.8081 33.238Z" fill="white"/>
</g>
</svg>
