<svg width="84" height="84" viewBox="0 0 84 84" fill="none" xmlns="http://www.w3.org/2000/svg">
<path d="M4.97216 47.595C4.80749 47.595 4.67449 47.576 4.57316 47.538C4.47183 47.5127 4.42116 47.462 4.42116 47.386C4.42116 47.2973 4.47183 47.2277 4.57316 47.177C4.67449 47.1263 4.83283 47.082 5.04816 47.044C5.52949 46.9553 5.89683 46.7843 6.15016 46.531C6.40349 46.265 6.53016 45.904 6.53016 45.448V42.636C6.53016 42.3827 6.46049 42.1103 6.32116 41.819C6.19449 41.515 6.10583 41.3187 6.05516 41.23L3.83216 37.582C3.74349 37.43 3.60416 37.221 3.41416 36.955C3.22416 36.6763 3.01516 36.4167 2.78716 36.176C2.57183 35.9353 2.35649 35.7833 2.14116 35.72C1.93849 35.6567 1.78016 35.5933 1.66616 35.53C1.56483 35.4667 1.51416 35.3907 1.51416 35.302C1.51416 35.226 1.56483 35.1753 1.66616 35.15C1.76749 35.112 1.90049 35.093 2.06516 35.093C2.35649 35.093 2.69216 35.1057 3.07216 35.131C3.45216 35.1437 3.85749 35.15 4.28816 35.15C4.57949 35.15 4.85183 35.1437 5.10516 35.131C5.37116 35.1183 5.60549 35.112 5.80816 35.112C5.97283 35.112 6.10583 35.131 6.20716 35.169C6.30849 35.1943 6.35916 35.245 6.35916 35.321C6.35916 35.4097 6.30849 35.4857 6.20716 35.549C6.10583 35.5997 5.94749 35.6503 5.73216 35.701C5.55483 35.7517 5.40916 35.8087 5.29516 35.872C5.18116 35.9353 5.12416 36.0367 5.12416 36.176C5.12416 36.3407 5.20649 36.5687 5.37116 36.86L7.11916 40.09C7.37249 40.5713 7.54983 40.812 7.65116 40.812C7.72716 40.812 7.80949 40.7613 7.89816 40.66C7.98683 40.546 8.11349 40.356 8.27816 40.09C8.56949 39.6467 8.82916 39.2223 9.05716 38.817C9.28516 38.4117 9.55749 37.924 9.87416 37.354C10.0008 37.1387 10.0895 36.955 10.1402 36.803C10.1908 36.6383 10.2162 36.499 10.2162 36.385C10.2162 36.1443 10.1275 35.9797 9.95016 35.891C9.78549 35.8023 9.61449 35.7453 9.43716 35.72C9.31049 35.6947 9.17116 35.6503 9.01916 35.587C8.87983 35.511 8.81016 35.4287 8.81016 35.34C8.81016 35.264 8.86083 35.2133 8.96216 35.188C9.06349 35.15 9.19649 35.131 9.36116 35.131C9.65249 35.131 9.89316 35.1373 10.0832 35.15C10.2732 35.15 10.5075 35.15 10.7862 35.15C11.1788 35.15 11.5525 35.1437 11.9072 35.131C12.2618 35.1057 12.5468 35.093 12.7622 35.093C12.9268 35.093 13.0598 35.112 13.1612 35.15C13.2625 35.1753 13.3132 35.226 13.3132 35.302C13.3132 35.3907 13.2118 35.473 13.0092 35.549C12.8065 35.625 12.5722 35.701 12.3062 35.777C11.9768 35.8657 11.6982 36.0493 11.4702 36.328C11.2548 36.594 10.9762 36.9867 10.6342 37.506C10.3808 37.8987 10.1655 38.228 9.98816 38.494C9.82349 38.76 9.66516 39.007 9.51316 39.235C9.37383 39.463 9.22816 39.7037 9.07616 39.957C8.92416 40.1977 8.74049 40.4953 8.52516 40.85C8.36049 41.116 8.24649 41.3313 8.18316 41.496C8.11983 41.6607 8.08183 41.819 8.06916 41.971C8.05649 42.1103 8.05016 42.3067 8.05016 42.56V45.448C8.05016 45.8787 8.18316 46.2333 8.44916 46.512C8.71516 46.778 9.08249 46.9553 9.55116 47.044C9.76649 47.082 9.92483 47.1263 10.0262 47.177C10.1275 47.2277 10.1782 47.2973 10.1782 47.386C10.1782 47.462 10.1275 47.5127 10.0262 47.538C9.92483 47.576 9.79183 47.595 9.62716 47.595C9.28516 47.595 9.00016 47.5823 8.77216 47.557C8.55683 47.5443 8.34783 47.5317 8.14516 47.519C7.94249 47.5063 7.69549 47.5 7.40416 47.5C7.08749 47.5 6.80883 47.5063 6.56816 47.519C6.34016 47.5317 6.09949 47.5443 5.84616 47.557C5.60549 47.5823 5.31416 47.595 4.97216 47.595ZM19.5665 47.766C18.4392 47.766 17.4955 47.5697 16.7355 47.177C15.9755 46.7717 15.4055 46.208 15.0255 45.486C14.6455 44.7513 14.4555 43.9027 14.4555 42.94V37.107C14.4555 36.651 14.3605 36.3217 14.1705 36.119C13.9932 35.9037 13.7969 35.7707 13.5815 35.72C13.1635 35.606 12.9545 35.4667 12.9545 35.302C12.9545 35.226 13.0052 35.1753 13.1065 35.15C13.2079 35.112 13.3409 35.093 13.5055 35.093C13.7969 35.093 14.0819 35.1057 14.3605 35.131C14.6519 35.1437 14.9749 35.15 15.3295 35.15C15.6209 35.15 15.8932 35.1437 16.1465 35.131C16.4125 35.1183 16.6469 35.112 16.8495 35.112C17.0142 35.112 17.1472 35.131 17.2485 35.169C17.3499 35.1943 17.4005 35.245 17.4005 35.321C17.4005 35.4097 17.3499 35.4793 17.2485 35.53C17.1472 35.5807 16.9889 35.6377 16.7735 35.701C16.6215 35.7517 16.4505 35.8973 16.2605 36.138C16.0705 36.3787 15.9755 36.689 15.9755 37.069V42.408C15.9755 43.4213 16.1465 44.2573 16.4885 44.916C16.8305 45.562 17.2992 46.0433 17.8945 46.36C18.5025 46.664 19.1929 46.816 19.9655 46.816C21.2702 46.816 22.2265 46.3663 22.8345 45.467C23.4425 44.555 23.7465 43.358 23.7465 41.876C23.7465 41.5973 23.7402 41.23 23.7275 40.774C23.7275 40.318 23.7212 39.8303 23.7085 39.311C23.6959 38.779 23.6832 38.2723 23.6705 37.791C23.6705 37.4617 23.6389 37.1513 23.5755 36.86C23.5249 36.5687 23.4425 36.3217 23.3285 36.119C23.2145 35.9037 23.0689 35.7707 22.8915 35.72C22.7649 35.682 22.6255 35.6313 22.4735 35.568C22.3342 35.5047 22.2645 35.4287 22.2645 35.34C22.2645 35.264 22.3152 35.2133 22.4165 35.188C22.5179 35.15 22.6509 35.131 22.8155 35.131C23.1069 35.131 23.3475 35.1373 23.5375 35.15C23.7275 35.15 23.9619 35.15 24.2405 35.15C24.4432 35.15 24.6332 35.15 24.8105 35.15C24.9879 35.1373 25.1589 35.1247 25.3235 35.112C25.4882 35.0993 25.6402 35.093 25.7795 35.093C25.9442 35.093 26.0772 35.112 26.1785 35.15C26.2799 35.1753 26.3305 35.226 26.3305 35.302C26.3305 35.4667 26.1215 35.5933 25.7035 35.682C25.3742 35.7453 25.1399 35.9037 25.0005 36.157C24.8612 36.4103 24.7789 36.727 24.7535 37.107C24.6902 38.1963 24.6459 39.1907 24.6205 40.09C24.6079 40.9893 24.5889 41.876 24.5635 42.75C24.5382 43.7253 24.3039 44.593 23.8605 45.353C23.4172 46.113 22.8219 46.7083 22.0745 47.139C21.3399 47.557 20.5039 47.766 19.5665 47.766ZM27.6659 47.595C27.5012 47.595 27.3682 47.576 27.2669 47.538C27.1655 47.5127 27.1149 47.462 27.1149 47.386C27.1149 47.234 27.3239 47.12 27.7419 47.044C28.2232 46.9553 28.5525 46.8097 28.7299 46.607C28.9199 46.3917 29.0149 46.0497 29.0149 45.581V37.031C29.0149 36.5877 28.9199 36.2773 28.7299 36.1C28.5525 35.91 28.2232 35.7707 27.7419 35.682C27.3239 35.606 27.1149 35.4793 27.1149 35.302C27.1149 35.226 27.1655 35.1753 27.2669 35.15C27.3682 35.112 27.5012 35.093 27.6659 35.093C28.0079 35.093 28.2802 35.0993 28.4829 35.112C28.6982 35.112 28.9009 35.1183 29.0909 35.131C29.2809 35.131 29.5152 35.131 29.7939 35.131C30.0345 35.131 30.2245 35.131 30.3639 35.131C30.5159 35.1183 30.6805 35.112 30.8579 35.112C31.0352 35.0993 31.2949 35.093 31.6369 35.093C31.8015 35.093 31.9345 35.112 32.0359 35.15C32.1372 35.1753 32.1879 35.226 32.1879 35.302C32.1879 35.3907 32.1372 35.4667 32.0359 35.53C31.9345 35.5933 31.7762 35.644 31.5609 35.682C31.0922 35.7707 30.8009 35.929 30.6869 36.157C30.5855 36.3723 30.5349 36.6637 30.5349 37.031V40.584C30.5349 40.6347 30.5349 40.7107 30.5349 40.812C30.5475 40.9007 30.5792 40.945 30.6299 40.945C30.6932 40.945 30.7755 40.907 30.8769 40.831C30.9909 40.755 31.0795 40.679 31.1429 40.603L34.9429 36.727C35.0442 36.6257 35.1139 36.5307 35.1519 36.442C35.2025 36.3407 35.2279 36.2457 35.2279 36.157C35.2279 35.929 35.1075 35.7833 34.8669 35.72C34.6515 35.6567 34.4995 35.5997 34.4109 35.549C34.3222 35.4983 34.2779 35.4287 34.2779 35.34C34.2779 35.264 34.3285 35.2133 34.4299 35.188C34.5312 35.15 34.6642 35.131 34.8289 35.131H35.8549C36.2222 35.131 36.6275 35.1247 37.0709 35.112C37.5142 35.0993 37.9132 35.0867 38.2679 35.074C38.6352 35.0613 38.8569 35.055 38.9329 35.055C39.0595 35.055 39.1609 35.074 39.2369 35.112C39.3129 35.15 39.3509 35.2007 39.3509 35.264C39.3509 35.3527 39.3002 35.4287 39.1989 35.492C39.0975 35.5553 38.9392 35.606 38.7239 35.644C38.2552 35.7327 37.7675 35.872 37.2609 36.062C36.7542 36.252 36.2792 36.5307 35.8359 36.898C35.3799 37.278 34.9555 37.6517 34.5629 38.019C34.1829 38.3737 33.8029 38.7473 33.4229 39.14C33.0429 39.52 32.6312 39.957 32.1879 40.451C32.1119 40.527 32.1435 40.641 32.2829 40.793L36.8809 45.695C37.1595 45.999 37.3812 46.2333 37.5459 46.398C37.7232 46.5627 37.9132 46.6957 38.1159 46.797C38.3312 46.8857 38.6162 46.968 38.9709 47.044C39.1862 47.0947 39.3445 47.1453 39.4459 47.196C39.5472 47.234 39.5979 47.2973 39.5979 47.386C39.5979 47.462 39.5472 47.5127 39.4459 47.538C39.3445 47.576 39.2115 47.595 39.0469 47.595C38.6795 47.595 38.3629 47.5823 38.0969 47.557C37.8309 47.5443 37.5712 47.5317 37.3179 47.519C37.0645 47.5063 36.7605 47.5 36.4059 47.5C36.1652 47.5 35.9562 47.5 35.7789 47.5C35.6015 47.5127 35.2975 47.519 34.8669 47.519C34.7022 47.519 34.5692 47.5063 34.4679 47.481C34.3665 47.443 34.3159 47.386 34.3159 47.31C34.3159 47.1707 34.4869 47.063 34.8289 46.987C35.1835 46.8983 35.3609 46.7717 35.3609 46.607C35.3609 46.531 35.3292 46.455 35.2659 46.379C35.2152 46.303 35.1519 46.2207 35.0759 46.132L31.0479 41.686C30.9719 41.61 30.8895 41.5403 30.8009 41.477C30.7249 41.401 30.6615 41.363 30.6109 41.363C30.5602 41.363 30.5349 41.4137 30.5349 41.515C30.5349 41.6163 30.5349 41.6987 30.5349 41.762C30.5349 42.3573 30.5412 42.9273 30.5539 43.472C30.5792 44.004 30.6045 44.65 30.6299 45.41C30.6425 45.676 30.6805 45.923 30.7439 46.151C30.8199 46.379 30.9402 46.569 31.1049 46.721C31.2822 46.873 31.5292 46.9807 31.8459 47.044C32.0612 47.082 32.2195 47.1263 32.3209 47.177C32.4222 47.2277 32.4729 47.2973 32.4729 47.386C32.4729 47.462 32.4222 47.5127 32.3209 47.538C32.2195 47.576 32.0865 47.595 31.9219 47.595C31.5799 47.595 31.3139 47.5823 31.1239 47.557C30.9465 47.5317 30.7819 47.5127 30.6299 47.5C30.4905 47.4747 30.3005 47.462 30.0599 47.462C29.7559 47.462 29.4835 47.4747 29.2429 47.5C29.0149 47.5127 28.7805 47.5317 28.5399 47.557C28.2992 47.5823 28.0079 47.595 27.6659 47.595ZM46.6215 47.766C45.7855 47.766 44.9875 47.6203 44.2275 47.329C43.4675 47.025 42.7962 46.6007 42.2135 46.056C41.6308 45.4987 41.1685 44.84 40.8265 44.08C40.4845 43.3073 40.3135 42.4523 40.3135 41.515C40.3135 40.6537 40.4528 39.8303 40.7315 39.045C41.0102 38.247 41.4218 37.5377 41.9665 36.917C42.5112 36.2963 43.1888 35.8023 43.9995 35.435C44.8102 35.0677 45.7412 34.884 46.7925 34.884C47.6285 34.884 48.4265 35.036 49.1865 35.34C49.9465 35.6313 50.6178 36.0557 51.2005 36.613C51.7832 37.1577 52.2455 37.8163 52.5875 38.589C52.9295 39.349 53.1005 40.1977 53.1005 41.135C53.1005 41.9837 52.9612 42.807 52.6825 43.605C52.4038 44.403 51.9922 45.1123 51.4475 45.733C50.9028 46.3537 50.2252 46.8477 49.4145 47.215C48.6038 47.5823 47.6728 47.766 46.6215 47.766ZM46.9065 47.006C47.8818 47.006 48.6925 46.8033 49.3385 46.398C49.9845 45.98 50.4658 45.4037 50.7825 44.669C51.1118 43.9217 51.2765 43.054 51.2765 42.066C51.2765 41.192 51.1752 40.3687 50.9725 39.596C50.7698 38.8233 50.4658 38.1457 50.0605 37.563C49.6678 36.9677 49.1738 36.5053 48.5785 36.176C47.9832 35.8467 47.2865 35.682 46.4885 35.682C45.5385 35.682 44.7405 35.8847 44.0945 36.29C43.4485 36.6953 42.9608 37.2653 42.6315 38C42.3022 38.722 42.1375 39.577 42.1375 40.565C42.1375 41.4517 42.2325 42.2813 42.4225 43.054C42.6252 43.8267 42.9228 44.5107 43.3155 45.106C43.7208 45.7013 44.2212 46.17 44.8165 46.512C45.4118 46.8413 46.1085 47.006 46.9065 47.006ZM66.0527 47.899C65.698 47.899 65.3624 47.8673 65.0457 47.804C64.729 47.7533 64.4377 47.652 64.1717 47.5C63.9057 47.348 63.6587 47.139 63.4307 46.873C63.1267 46.493 62.8354 46.132 62.5567 45.79C62.278 45.4353 61.9804 45.03 61.6637 44.574C61.3597 44.118 60.986 43.5353 60.5427 42.826C60.3527 42.5093 60.0804 42.2623 59.7257 42.085C59.447 41.9457 59.1684 41.8507 58.8897 41.8C58.6237 41.7367 58.402 41.6987 58.2247 41.686C58.1234 41.6733 58.0474 41.705 57.9967 41.781C57.9587 41.857 57.9397 41.952 57.9397 42.066V45.41C57.9397 45.8153 58.0347 46.17 58.2247 46.474C58.4147 46.7653 58.744 46.9553 59.2127 47.044C59.428 47.082 59.5864 47.1263 59.6877 47.177C59.789 47.2277 59.8397 47.2973 59.8397 47.386C59.8397 47.462 59.789 47.5127 59.6877 47.538C59.5864 47.576 59.4534 47.595 59.2887 47.595C58.9467 47.595 58.6807 47.5823 58.4907 47.557C58.3134 47.5317 58.1487 47.5127 57.9967 47.5C57.8574 47.4747 57.6674 47.462 57.4267 47.462C57.11 47.462 56.825 47.4747 56.5717 47.5C56.331 47.5127 56.084 47.5317 55.8307 47.557C55.59 47.5823 55.2987 47.595 54.9567 47.595C54.792 47.595 54.659 47.576 54.5577 47.538C54.4564 47.5127 54.4057 47.462 54.4057 47.386C54.4057 47.234 54.6147 47.12 55.0327 47.044C55.514 46.9553 55.8624 46.8097 56.0777 46.607C56.3057 46.4043 56.4197 46.0687 56.4197 45.6V37.506C56.4197 37.0247 56.3944 36.6637 56.3437 36.423C56.3057 36.1697 56.2044 35.9923 56.0397 35.891C55.8877 35.7897 55.628 35.72 55.2607 35.682C55.0454 35.6567 54.887 35.6123 54.7857 35.549C54.6844 35.473 54.6337 35.3907 54.6337 35.302C54.6337 35.226 54.6844 35.1753 54.7857 35.15C54.887 35.112 55.02 35.093 55.1847 35.093C55.5267 35.093 55.78 35.093 55.9447 35.093C56.122 35.093 56.2867 35.0993 56.4387 35.112C56.5907 35.112 56.7934 35.112 57.0467 35.112C57.2874 35.112 57.5027 35.1057 57.6927 35.093C57.8827 35.0677 58.0917 35.0487 58.3197 35.036C58.5604 35.0233 58.8644 35.017 59.2317 35.017C60.625 35.017 61.6827 35.2767 62.4047 35.796C63.1394 36.3153 63.5067 37.0943 63.5067 38.133C63.5067 38.703 63.3927 39.197 63.1647 39.615C62.9367 40.0203 62.6517 40.3623 62.3097 40.641C61.9677 40.9197 61.6194 41.1477 61.2647 41.325C61.214 41.3377 61.1887 41.3693 61.1887 41.42C61.2014 41.458 61.2267 41.5087 61.2647 41.572C61.6574 42.1673 62.031 42.731 62.3857 43.263C62.753 43.795 63.152 44.3143 63.5827 44.821C64.0134 45.3277 64.5264 45.8533 65.1217 46.398C65.451 46.6893 65.7867 46.8667 66.1287 46.93C66.4707 46.9933 66.8634 47.025 67.3067 47.025C67.4967 47.025 67.5917 47.0947 67.5917 47.234C67.5917 47.424 67.4967 47.5633 67.3067 47.652C67.1167 47.7533 66.9014 47.8167 66.6607 47.842C66.42 47.88 66.2174 47.899 66.0527 47.899ZM58.9467 41.249C59.5294 41.249 60.0297 41.116 60.4477 40.85C60.8784 40.584 61.2077 40.2357 61.4357 39.805C61.6764 39.3743 61.7967 38.9183 61.7967 38.437C61.7967 37.9177 61.727 37.4427 61.5877 37.012C61.461 36.5813 61.195 36.2393 60.7897 35.986C60.397 35.72 59.8017 35.587 59.0037 35.587C58.5984 35.587 58.3324 35.72 58.2057 35.986C58.079 36.2393 58.003 36.6953 57.9777 37.354C57.965 37.6707 57.9524 38.1013 57.9397 38.646C57.9397 39.178 57.9397 39.824 57.9397 40.584C57.9397 40.9007 58.0284 41.0907 58.2057 41.154C58.383 41.2173 58.63 41.249 58.9467 41.249ZM74.6576 47.766C73.8216 47.766 73.0236 47.6203 72.2636 47.329C71.5036 47.025 70.8323 46.6007 70.2496 46.056C69.667 45.4987 69.2046 44.84 68.8626 44.08C68.5206 43.3073 68.3496 42.4523 68.3496 41.515C68.3496 40.6537 68.489 39.8303 68.7676 39.045C69.0463 38.247 69.458 37.5377 70.0026 36.917C70.5473 36.2963 71.225 35.8023 72.0356 35.435C72.8463 35.0677 73.7773 34.884 74.8286 34.884C75.6646 34.884 76.4626 35.036 77.2226 35.34C77.9826 35.6313 78.654 36.0557 79.2366 36.613C79.8193 37.1577 80.2816 37.8163 80.6236 38.589C80.9656 39.349 81.1366 40.1977 81.1366 41.135C81.1366 41.9837 80.9973 42.807 80.7186 43.605C80.44 44.403 80.0283 45.1123 79.4836 45.733C78.939 46.3537 78.2613 46.8477 77.4506 47.215C76.64 47.5823 75.709 47.766 74.6576 47.766ZM74.9426 47.006C75.918 47.006 76.7286 46.8033 77.3746 46.398C78.0206 45.98 78.502 45.4037 78.8186 44.669C79.148 43.9217 79.3126 43.054 79.3126 42.066C79.3126 41.192 79.2113 40.3687 79.0086 39.596C78.806 38.8233 78.502 38.1457 78.0966 37.563C77.704 36.9677 77.21 36.5053 76.6146 36.176C76.0193 35.8467 75.3226 35.682 74.5246 35.682C73.5746 35.682 72.7766 35.8847 72.1306 36.29C71.4846 36.6953 70.997 37.2653 70.6676 38C70.3383 38.722 70.1736 39.577 70.1736 40.565C70.1736 41.4517 70.2686 42.2813 70.4586 43.054C70.6613 43.8267 70.959 44.5107 71.3516 45.106C71.757 45.7013 72.2573 46.17 72.8526 46.512C73.448 46.8413 74.1446 47.006 74.9426 47.006Z" fill="white"/>
</svg>
