<svg width="224" height="126" viewBox="0 0 224 126" fill="none" xmlns="http://www.w3.org/2000/svg">
<path d="M113.803 65.5815L113.797 65.5605L113.792 65.5815H113.803Z" fill="white"/>
<path d="M35.6791 71.3462L17.1777 78.862V79.841L35.2181 72.5076L35.6791 71.3462Z" fill="white"/>
<path d="M35.6011 75.153L39.612 65.0361H40.4651L44.4222 75.153H43.638L42.3419 71.9117H37.6664L36.3703 75.153H35.6011ZM42.0845 71.2622L40.0042 65.8204L37.873 71.2622H42.0845Z" fill="white"/>
<path d="M61.4453 75.153V65.0361H66.2734C66.9679 65.0361 67.5576 65.2965 68.0484 65.8204C68.5364 66.3322 68.7818 66.9578 68.7818 67.6972C68.7818 68.3467 68.6351 68.9094 68.3388 69.3854C68.0305 69.8643 67.6504 70.1427 67.1954 70.2205C67.6174 70.3342 67.9587 70.6934 68.2191 71.2951C68.4795 71.8967 68.6112 72.6271 68.6112 73.48C68.6112 73.959 68.6232 74.315 68.6441 74.555C68.6681 74.839 68.713 75.037 68.7818 75.15H68.0993C67.9856 75.013 67.9108 74.764 67.8778 74.399L67.827 72.9504C67.827 72.2679 67.6623 71.6812 67.3331 71.1933C67.0158 70.7144 66.6207 70.4779 66.1567 70.4779H62.1308V75.153H61.4453ZM66.1567 69.8463C66.6925 69.8463 67.1505 69.6428 67.5396 69.2327C67.9138 68.8346 68.1023 68.3467 68.1023 67.766C68.1023 67.1973 67.9138 66.7094 67.5396 66.2993C67.1535 65.9012 66.6925 65.7036 66.1567 65.7036H62.1308V69.8493H66.1567V69.8463Z" fill="white"/>
<path d="M87.154 73.857C86.245 72.8213 85.7896 71.5701 85.7896 70.1034C85.7896 68.6367 86.245 67.3795 87.154 66.3318C88.052 65.2962 89.145 64.7783 90.429 64.7783C91.486 64.7783 92.381 65.0627 93.108 65.6314C93.835 66.1882 94.284 66.9395 94.455 67.8824H93.773C93.647 67.1759 93.267 66.5923 92.629 66.1253C92.004 65.6583 91.27 65.4249 90.429 65.4249C89.337 65.4249 88.406 65.8798 87.63 66.7898C86.858 67.7117 86.469 68.8133 86.469 70.1004C86.469 71.3875 86.855 72.489 87.63 73.411C88.403 74.321 89.337 74.776 90.429 74.776C91.363 74.776 92.129 74.503 92.731 73.956C93.345 73.411 93.692 72.6806 93.773 71.7706H94.455C94.365 72.8752 93.949 73.755 93.21 74.417C92.482 75.075 91.555 75.407 90.429 75.407C89.145 75.407 88.052 74.893 87.154 73.857Z" fill="white"/>
<path d="M110.729 75.153L114.739 65.0361H115.593L119.55 75.153H118.765L117.469 71.9117H112.794L111.498 75.153H110.729ZM117.212 71.2622L115.132 65.8204L113 71.2622H117.212Z" fill="white"/>
<path d="M136.573 65.0361H140.584C141.652 65.0361 142.568 65.5181 143.332 66.4849C144.083 67.4397 144.457 68.6011 144.457 69.9661C144.457 71.3999 144.083 72.6211 143.332 73.636C142.568 74.648 141.652 75.153 140.584 75.153H136.573V65.0361ZM140.584 74.504C141.461 74.504 142.209 74.061 142.835 73.172C143.46 72.2859 143.772 71.2143 143.772 69.9631C143.772 68.7807 143.46 67.775 142.835 66.9429C142.209 66.1137 141.458 65.6976 140.584 65.6976H137.255V74.501H140.584V74.504Z" fill="white"/>
<path d="M161.854 75.153V65.0361H162.537V75.153H161.854Z" fill="white"/>
<path d="M188.315 71.2803L188.767 72.4417L206.823 80.075V79.108L188.315 71.2803Z" fill="white"/>
<path d="M180.92 68.1529L129.46 46.3947L118.432 46.6102L115.822 45.802L104.484 46.4306L100.542 44.9849L43.1758 68.2995L43.505 69.1407L100.733 45.8799L104.544 47.2777L115.739 46.6581L117.651 47.2478H129.756L131.372 48.1727L180.591 68.982L180.92 68.1529Z" fill="white"/>
<path d="M179.578 75.153L183.589 65.0361H184.442L188.399 75.153H187.615L186.318 71.9117H181.643L180.347 75.153H179.578ZM186.061 71.2622L183.981 65.8204L181.85 71.2622H186.061Z" fill="white"/>
</svg>
