<svg width="114" height="84" viewBox="0 0 114 84" fill="none" xmlns="http://www.w3.org/2000/svg">
<path d="M0.778672 47.595C0.614005 47.595 0.481005 47.576 0.379672 47.538C0.278339 47.5127 0.227672 47.462 0.227672 47.386C0.227672 47.234 0.436672 47.12 0.854672 47.044C1.33601 46.9553 1.66534 46.8097 1.84267 46.607C2.03267 46.3917 2.12767 46.0497 2.12767 45.581V37.031C2.12767 36.5877 2.03267 36.2773 1.84267 36.1C1.66534 35.91 1.33601 35.7707 0.854672 35.682C0.436672 35.606 0.227672 35.4793 0.227672 35.302C0.227672 35.226 0.278339 35.1753 0.379672 35.15C0.481005 35.112 0.614005 35.093 0.778672 35.093C1.12067 35.093 1.39301 35.0993 1.59567 35.112C1.81101 35.112 2.01367 35.1183 2.20367 35.131C2.39367 35.131 2.62801 35.131 2.90667 35.131C3.14734 35.131 3.33734 35.131 3.47667 35.131C3.62867 35.1183 3.79334 35.112 3.97067 35.112C4.14801 35.0993 4.40767 35.093 4.74967 35.093C4.91434 35.093 5.04734 35.112 5.14867 35.15C5.25001 35.1753 5.30067 35.226 5.30067 35.302C5.30067 35.3907 5.25001 35.4667 5.14867 35.53C5.04734 35.5933 4.88901 35.644 4.67367 35.682C4.20501 35.7707 3.91367 35.929 3.79967 36.157C3.69834 36.3723 3.64767 36.6637 3.64767 37.031V40.584C3.64767 40.6347 3.64767 40.7107 3.64767 40.812C3.66034 40.9007 3.69201 40.945 3.74267 40.945C3.80601 40.945 3.88834 40.907 3.98967 40.831C4.10367 40.755 4.19234 40.679 4.25567 40.603L8.05567 36.727C8.15701 36.6257 8.22667 36.5307 8.26467 36.442C8.31534 36.3407 8.34067 36.2457 8.34067 36.157C8.34067 35.929 8.22034 35.7833 7.97967 35.72C7.76434 35.6567 7.61234 35.5997 7.52367 35.549C7.43501 35.4983 7.39067 35.4287 7.39067 35.34C7.39067 35.264 7.44134 35.2133 7.54267 35.188C7.64401 35.15 7.77701 35.131 7.94167 35.131H8.96767C9.33501 35.131 9.74034 35.1247 10.1837 35.112C10.627 35.0993 11.026 35.0867 11.3807 35.074C11.748 35.0613 11.9697 35.055 12.0457 35.055C12.1723 35.055 12.2737 35.074 12.3497 35.112C12.4257 35.15 12.4637 35.2007 12.4637 35.264C12.4637 35.3527 12.413 35.4287 12.3117 35.492C12.2103 35.5553 12.052 35.606 11.8367 35.644C11.368 35.7327 10.8803 35.872 10.3737 36.062C9.86701 36.252 9.39201 36.5307 8.94867 36.898C8.49267 37.278 8.06834 37.6517 7.67567 38.019C7.29567 38.3737 6.91567 38.7473 6.53567 39.14C6.15567 39.52 5.74401 39.957 5.30067 40.451C5.22467 40.527 5.25634 40.641 5.39567 40.793L9.99367 45.695C10.2723 45.999 10.494 46.2333 10.6587 46.398C10.836 46.5627 11.026 46.6957 11.2287 46.797C11.444 46.8857 11.729 46.968 12.0837 47.044C12.299 47.0947 12.4573 47.1453 12.5587 47.196C12.66 47.234 12.7107 47.2973 12.7107 47.386C12.7107 47.462 12.66 47.5127 12.5587 47.538C12.4573 47.576 12.3243 47.595 12.1597 47.595C11.7923 47.595 11.4757 47.5823 11.2097 47.557C10.9437 47.5443 10.684 47.5317 10.4307 47.519C10.1773 47.5063 9.87334 47.5 9.51867 47.5C9.27801 47.5 9.06901 47.5 8.89167 47.5C8.71434 47.5127 8.41034 47.519 7.97967 47.519C7.81501 47.519 7.68201 47.5063 7.58067 47.481C7.47934 47.443 7.42867 47.386 7.42867 47.31C7.42867 47.1707 7.59967 47.063 7.94167 46.987C8.29634 46.8983 8.47367 46.7717 8.47367 46.607C8.47367 46.531 8.44201 46.455 8.37867 46.379C8.32801 46.303 8.26467 46.2207 8.18867 46.132L4.16067 41.686C4.08467 41.61 4.00234 41.5403 3.91367 41.477C3.83767 41.401 3.77434 41.363 3.72367 41.363C3.67301 41.363 3.64767 41.4137 3.64767 41.515C3.64767 41.6163 3.64767 41.6987 3.64767 41.762C3.64767 42.3573 3.65401 42.9273 3.66667 43.472C3.69201 44.004 3.71734 44.65 3.74267 45.41C3.75534 45.676 3.79334 45.923 3.85667 46.151C3.93267 46.379 4.05301 46.569 4.21767 46.721C4.39501 46.873 4.64201 46.9807 4.95867 47.044C5.17401 47.082 5.33234 47.1263 5.43367 47.177C5.53501 47.2277 5.58567 47.2973 5.58567 47.386C5.58567 47.462 5.53501 47.5127 5.43367 47.538C5.33234 47.576 5.19934 47.595 5.03467 47.595C4.69267 47.595 4.42667 47.5823 4.23667 47.557C4.05934 47.5317 3.89467 47.5127 3.74267 47.5C3.60334 47.4747 3.41334 47.462 3.17267 47.462C2.86867 47.462 2.59634 47.4747 2.35567 47.5C2.12767 47.5127 1.89334 47.5317 1.65267 47.557C1.41201 47.5823 1.12067 47.595 0.778672 47.595ZM13.0843 47.595C12.9196 47.595 12.7866 47.5697 12.6853 47.519C12.584 47.481 12.5333 47.424 12.5333 47.348C12.5333 47.2593 12.584 47.1833 12.6853 47.12C12.7993 47.044 12.9576 46.9743 13.1603 46.911C13.4896 46.8097 13.7936 46.6577 14.0723 46.455C14.351 46.2523 14.5916 45.9167 14.7943 45.448C15.149 44.6373 15.472 43.8773 15.7633 43.168C16.0673 42.4587 16.3523 41.762 16.6183 41.078C16.8843 40.394 17.1566 39.6847 17.4353 38.95C17.7266 38.2027 18.0306 37.392 18.3473 36.518C18.4106 36.3407 18.4676 36.1633 18.5183 35.986C18.569 35.8087 18.6006 35.6187 18.6133 35.416C18.7273 35.378 18.8413 35.34 18.9553 35.302C19.0693 35.264 19.1833 35.207 19.2973 35.131C19.4113 35.055 19.4873 34.941 19.5253 34.789C19.576 34.637 19.6203 34.5357 19.6583 34.485C19.671 34.4723 19.6836 34.466 19.6963 34.466C19.7216 34.466 19.7406 34.4787 19.7533 34.504C19.7786 34.5547 19.7976 34.618 19.8103 34.694C19.8356 34.77 19.861 34.846 19.8863 34.922C20.1903 35.8847 20.507 36.8663 20.8363 37.867C21.1656 38.8677 21.4823 39.8367 21.7863 40.774C22.103 41.6987 22.388 42.5347 22.6413 43.282C22.9073 44.0167 23.1163 44.612 23.2683 45.068C23.4456 45.5747 23.6356 45.9547 23.8383 46.208C24.041 46.4613 24.25 46.6387 24.4653 46.74C24.6933 46.8413 24.934 46.9173 25.1873 46.968C25.4026 47.006 25.561 47.0693 25.6623 47.158C25.7636 47.234 25.8143 47.3163 25.8143 47.405C25.8143 47.481 25.7636 47.5317 25.6623 47.557C25.561 47.5823 25.428 47.595 25.2633 47.595C25.086 47.595 24.8453 47.5823 24.5413 47.557C24.2373 47.5443 23.9143 47.5253 23.5723 47.5C23.2303 47.4873 22.9136 47.481 22.6223 47.481C22.3816 47.481 22.1346 47.481 21.8813 47.481C21.628 47.481 21.3936 47.4873 21.1783 47.5C20.963 47.5 20.7793 47.5 20.6273 47.5C20.4626 47.5 20.3296 47.481 20.2283 47.443C20.127 47.405 20.0763 47.348 20.0763 47.272C20.0763 47.1833 20.1396 47.1073 20.2663 47.044C20.393 46.9807 20.5386 46.9363 20.7033 46.911C21.1213 46.8477 21.419 46.74 21.5963 46.588C21.7736 46.436 21.8623 46.2587 21.8623 46.056C21.8623 45.866 21.818 45.5937 21.7293 45.239C21.6533 44.8717 21.5583 44.4853 21.4443 44.08C21.3303 43.662 21.2226 43.2947 21.1213 42.978C21.096 42.8767 21.0453 42.8197 20.9693 42.807C20.906 42.7817 20.7856 42.769 20.6083 42.769H17.0173C16.9666 42.769 16.9096 42.7943 16.8463 42.845C16.7956 42.883 16.745 42.9717 16.6943 43.111C16.6563 43.2377 16.593 43.4403 16.5043 43.719C16.4156 43.985 16.327 44.27 16.2383 44.574C16.1496 44.878 16.0736 45.1503 16.0103 45.391C15.947 45.6317 15.9153 45.7837 15.9153 45.847C15.9153 46.1257 16.023 46.36 16.2383 46.55C16.4536 46.7273 16.7133 46.854 17.0173 46.93C17.4353 47.044 17.6443 47.1707 17.6443 47.31C17.6443 47.386 17.5936 47.443 17.4923 47.481C17.391 47.5063 17.258 47.519 17.0933 47.519C16.9286 47.519 16.688 47.5127 16.3713 47.5C16.0546 47.4873 15.719 47.481 15.3643 47.481C14.9463 47.481 14.541 47.5 14.1483 47.538C13.7556 47.576 13.401 47.595 13.0843 47.595ZM17.5303 42.142H20.4753C20.6526 42.142 20.7413 42.1103 20.7413 42.047C20.7413 42.0217 20.735 41.9963 20.7223 41.971C20.7223 41.933 20.716 41.895 20.7033 41.857L19.2213 37.221C19.1453 36.993 19.0883 36.879 19.0503 36.879C19.025 36.879 18.9743 36.9867 18.8983 37.202L17.1693 41.857C17.144 41.933 17.1313 41.9837 17.1313 42.009C17.1313 42.0723 17.163 42.1103 17.2263 42.123C17.3023 42.1357 17.4036 42.142 17.5303 42.142ZM38.4186 47.823C38.3046 47.823 38.0766 47.728 37.7346 47.538C37.4052 47.348 37.0886 47.044 36.7846 46.626C36.7339 46.5627 36.5756 46.3727 36.3096 46.056C36.0562 45.7393 35.7269 45.3467 35.3216 44.878C34.9289 44.3967 34.4982 43.8773 34.0296 43.32C33.5609 42.7627 33.0922 42.2053 32.6236 41.648C32.1549 41.0907 31.7179 40.5777 31.3126 40.109C30.9072 39.6277 30.5652 39.2287 30.2866 38.912C30.0206 38.5827 29.8559 38.38 29.7926 38.304C29.7039 38.19 29.6279 38.114 29.5646 38.076C29.5012 38.0253 29.4442 38 29.3936 38C29.3302 38 29.2859 38.0507 29.2606 38.152C29.2352 38.2407 29.2226 38.323 29.2226 38.399C29.2099 39.0197 29.1972 39.7353 29.1846 40.546C29.1719 41.3567 29.1592 42.1927 29.1466 43.054C29.1339 43.9153 29.1276 44.7387 29.1276 45.524C29.1276 45.866 29.2099 46.1827 29.3746 46.474C29.5519 46.7653 29.8749 46.9553 30.3436 47.044C30.5589 47.082 30.7172 47.1263 30.8186 47.177C30.9199 47.2277 30.9706 47.2973 30.9706 47.386C30.9706 47.462 30.9199 47.5127 30.8186 47.538C30.7172 47.576 30.5842 47.595 30.4196 47.595C30.0776 47.595 29.8179 47.5823 29.6406 47.557C29.4759 47.5443 29.3239 47.5317 29.1846 47.519C29.0579 47.5063 28.8742 47.5 28.6336 47.5C28.4056 47.5 28.2282 47.5063 28.1016 47.519C27.9749 47.5317 27.8292 47.5443 27.6646 47.557C27.4999 47.5823 27.2466 47.595 26.9046 47.595C26.7399 47.595 26.6069 47.576 26.5056 47.538C26.4042 47.5127 26.3536 47.462 26.3536 47.386C26.3536 47.2973 26.4042 47.2277 26.5056 47.177C26.6069 47.1263 26.7652 47.0757 26.9806 47.025C27.3479 46.9237 27.6139 46.74 27.7786 46.474C27.9432 46.1953 28.0446 45.8597 28.0826 45.467C28.1332 44.9857 28.1839 44.3523 28.2346 43.567C28.2852 42.769 28.3296 41.8823 28.3676 40.907C28.4056 39.919 28.4246 38.9057 28.4246 37.867C28.4246 37.1957 28.2472 36.7143 27.8926 36.423C27.5506 36.1317 27.1009 35.8973 26.5436 35.72C26.4929 35.6947 26.3789 35.644 26.2016 35.568C26.0369 35.4793 25.9546 35.378 25.9546 35.264C25.9546 35.15 26.0116 35.0803 26.1256 35.055C26.2396 35.017 26.3282 34.998 26.3916 34.998C26.7589 35.0107 27.0566 35.0233 27.2846 35.036C27.5126 35.036 27.7152 35.0423 27.8926 35.055C28.0699 35.0677 28.2662 35.0803 28.4816 35.093C28.6969 35.093 28.9756 35.093 29.3176 35.093C29.4316 35.093 29.5202 35.1247 29.5836 35.188C29.6469 35.2513 29.7102 35.3273 29.7736 35.416C29.8242 35.492 29.9889 35.7073 30.2676 36.062C30.5589 36.404 30.9136 36.841 31.3316 37.373C31.7622 37.8923 32.2309 38.4623 32.7376 39.083C33.2442 39.691 33.7509 40.3053 34.2576 40.926C34.7642 41.534 35.2329 42.104 35.6636 42.636C36.0942 43.1553 36.4489 43.586 36.7276 43.928C37.0189 44.27 37.1899 44.4727 37.2406 44.536C37.2912 44.5867 37.3609 44.6627 37.4496 44.764C37.5509 44.8653 37.6396 44.916 37.7156 44.916C37.8296 44.916 37.8929 44.783 37.9056 44.517C37.9056 44.3397 37.9056 44.004 37.9056 43.51C37.9182 43.0033 37.9246 42.3953 37.9246 41.686C37.9372 40.964 37.9436 40.185 37.9436 39.349C37.9436 38.513 37.9436 37.658 37.9436 36.784C37.9309 36.5307 37.7979 36.3027 37.5446 36.1C37.2912 35.8973 37.0569 35.777 36.8416 35.739C36.6262 35.701 36.4299 35.6503 36.2526 35.587C36.0752 35.5237 35.9866 35.4477 35.9866 35.359C35.9866 35.283 36.0752 35.2323 36.2526 35.207C36.4299 35.169 36.6009 35.15 36.7656 35.15C36.8922 35.15 37.0126 35.15 37.1266 35.15C37.2532 35.15 37.3736 35.15 37.4876 35.15C37.6142 35.15 37.7346 35.15 37.8486 35.15C38.1526 35.15 38.3932 35.15 38.5706 35.15C38.7479 35.1373 38.9379 35.1247 39.1406 35.112C39.3559 35.0993 39.6536 35.093 40.0336 35.093C40.1982 35.093 40.3312 35.112 40.4326 35.15C40.5339 35.1753 40.5846 35.226 40.5846 35.302C40.5846 35.4793 40.3756 35.606 39.9576 35.682C39.4889 35.7707 39.1786 35.8847 39.0266 36.024C38.8746 36.1633 38.7859 36.3913 38.7606 36.708C38.7606 36.7713 38.7542 37.0183 38.7416 37.449C38.7416 37.8797 38.7416 38.4243 38.7416 39.083C38.7416 39.7417 38.7352 40.451 38.7226 41.211C38.7226 41.971 38.7226 42.731 38.7226 43.491C38.7226 44.2383 38.7226 44.9097 38.7226 45.505C38.7226 45.809 38.7289 46.0877 38.7416 46.341C38.7669 46.5817 38.7859 46.7907 38.7986 46.968C38.8112 47.1327 38.8176 47.2593 38.8176 47.348C38.8176 47.5507 38.7732 47.6773 38.6846 47.728C38.6086 47.7913 38.5199 47.823 38.4186 47.823ZM52.8774 47.899C52.5227 47.899 52.1871 47.8673 51.8704 47.804C51.5537 47.7533 51.2624 47.652 50.9964 47.5C50.7304 47.348 50.4834 47.139 50.2554 46.873C49.9514 46.493 49.6601 46.132 49.3814 45.79C49.1027 45.4353 48.8051 45.03 48.4884 44.574C48.1844 44.118 47.8107 43.5353 47.3674 42.826C47.1774 42.5093 46.9051 42.2623 46.5504 42.085C46.2717 41.9457 45.9931 41.8507 45.7144 41.8C45.4484 41.7367 45.2267 41.6987 45.0494 41.686C44.9481 41.6733 44.8721 41.705 44.8214 41.781C44.7834 41.857 44.7644 41.952 44.7644 42.066V45.41C44.7644 45.8153 44.8594 46.17 45.0494 46.474C45.2394 46.7653 45.5687 46.9553 46.0374 47.044C46.2527 47.082 46.4111 47.1263 46.5124 47.177C46.6137 47.2277 46.6644 47.2973 46.6644 47.386C46.6644 47.462 46.6137 47.5127 46.5124 47.538C46.4111 47.576 46.2781 47.595 46.1134 47.595C45.7714 47.595 45.5054 47.5823 45.3154 47.557C45.1381 47.5317 44.9734 47.5127 44.8214 47.5C44.6821 47.4747 44.4921 47.462 44.2514 47.462C43.9347 47.462 43.6497 47.4747 43.3964 47.5C43.1557 47.5127 42.9087 47.5317 42.6554 47.557C42.4147 47.5823 42.1234 47.595 41.7814 47.595C41.6167 47.595 41.4837 47.576 41.3824 47.538C41.2811 47.5127 41.2304 47.462 41.2304 47.386C41.2304 47.234 41.4394 47.12 41.8574 47.044C42.3387 46.9553 42.6871 46.8097 42.9024 46.607C43.1304 46.4043 43.2444 46.0687 43.2444 45.6V37.506C43.2444 37.0247 43.2191 36.6637 43.1684 36.423C43.1304 36.1697 43.0291 35.9923 42.8644 35.891C42.7124 35.7897 42.4527 35.72 42.0854 35.682C41.8701 35.6567 41.7117 35.6123 41.6104 35.549C41.5091 35.473 41.4584 35.3907 41.4584 35.302C41.4584 35.226 41.5091 35.1753 41.6104 35.15C41.7117 35.112 41.8447 35.093 42.0094 35.093C42.3514 35.093 42.6047 35.093 42.7694 35.093C42.9467 35.093 43.1114 35.0993 43.2634 35.112C43.4154 35.112 43.6181 35.112 43.8714 35.112C44.1121 35.112 44.3274 35.1057 44.5174 35.093C44.7074 35.0677 44.9164 35.0487 45.1444 35.036C45.3851 35.0233 45.6891 35.017 46.0564 35.017C47.4497 35.017 48.5074 35.2767 49.2294 35.796C49.9641 36.3153 50.3314 37.0943 50.3314 38.133C50.3314 38.703 50.2174 39.197 49.9894 39.615C49.7614 40.0203 49.4764 40.3623 49.1344 40.641C48.7924 40.9197 48.4441 41.1477 48.0894 41.325C48.0387 41.3377 48.0134 41.3693 48.0134 41.42C48.0261 41.458 48.0514 41.5087 48.0894 41.572C48.4821 42.1673 48.8557 42.731 49.2104 43.263C49.5777 43.795 49.9767 44.3143 50.4074 44.821C50.8381 45.3277 51.3511 45.8533 51.9464 46.398C52.2757 46.6893 52.6114 46.8667 52.9534 46.93C53.2954 46.9933 53.6881 47.025 54.1314 47.025C54.3214 47.025 54.4164 47.0947 54.4164 47.234C54.4164 47.424 54.3214 47.5633 54.1314 47.652C53.9414 47.7533 53.7261 47.8167 53.4854 47.842C53.2447 47.88 53.0421 47.899 52.8774 47.899ZM45.7714 41.249C46.3541 41.249 46.8544 41.116 47.2724 40.85C47.7031 40.584 48.0324 40.2357 48.2604 39.805C48.5011 39.3743 48.6214 38.9183 48.6214 38.437C48.6214 37.9177 48.5517 37.4427 48.4124 37.012C48.2857 36.5813 48.0197 36.2393 47.6144 35.986C47.2217 35.72 46.6264 35.587 45.8284 35.587C45.4231 35.587 45.1571 35.72 45.0304 35.986C44.9037 36.2393 44.8277 36.6953 44.8024 37.354C44.7897 37.6707 44.7771 38.1013 44.7644 38.646C44.7644 39.178 44.7644 39.824 44.7644 40.584C44.7644 40.9007 44.8531 41.0907 45.0304 41.154C45.2077 41.2173 45.4547 41.249 45.7714 41.249ZM55.2313 47.595C55.0667 47.595 54.9337 47.576 54.8323 47.538C54.731 47.5127 54.6803 47.462 54.6803 47.386C54.6803 47.234 54.8893 47.12 55.3073 47.044C55.7887 46.9553 56.156 46.8097 56.4093 46.607C56.6627 46.4043 56.7893 46.0813 56.7893 45.638V37.05C56.7893 36.6067 56.6943 36.29 56.5043 36.1C56.327 35.91 55.9977 35.7707 55.5163 35.682C55.0983 35.606 54.8893 35.4793 54.8893 35.302C54.8893 35.226 54.94 35.1753 55.0413 35.15C55.1427 35.112 55.2757 35.093 55.4403 35.093C55.7823 35.093 56.061 35.0993 56.2763 35.112C56.5043 35.1247 56.7197 35.1373 56.9223 35.15C57.125 35.15 57.372 35.15 57.6633 35.15C57.942 35.15 58.17 35.15 58.3473 35.15C58.5247 35.1373 58.7147 35.1247 58.9173 35.112C59.12 35.0993 59.3923 35.093 59.7343 35.093C59.899 35.093 60.032 35.112 60.1333 35.15C60.2347 35.1753 60.2853 35.226 60.2853 35.302C60.2853 35.3907 60.2347 35.4667 60.1333 35.53C60.032 35.5933 59.8737 35.644 59.6583 35.682C59.1897 35.7707 58.8477 35.91 58.6323 36.1C58.417 36.29 58.3093 36.6067 58.3093 37.05V45.638C58.3093 46.0813 58.4423 46.4043 58.7083 46.607C58.9743 46.8097 59.3417 46.9553 59.8103 47.044C60.0257 47.082 60.184 47.1263 60.2853 47.177C60.3867 47.2277 60.4373 47.2973 60.4373 47.386C60.4373 47.462 60.3867 47.5127 60.2853 47.538C60.184 47.576 60.051 47.595 59.8863 47.595C59.5443 47.595 59.2593 47.5823 59.0313 47.557C58.816 47.5443 58.607 47.5317 58.4043 47.519C58.2017 47.5063 57.9547 47.5 57.6633 47.5C57.3467 47.5 57.068 47.5063 56.8273 47.519C56.5993 47.5317 56.3587 47.5443 56.1053 47.557C55.8647 47.5823 55.5733 47.595 55.2313 47.595ZM73.4684 47.823C73.3544 47.823 73.1264 47.728 72.7844 47.538C72.455 47.348 72.1384 47.044 71.8344 46.626C71.7837 46.5627 71.6254 46.3727 71.3594 46.056C71.106 45.7393 70.7767 45.3467 70.3714 44.878C69.9787 44.3967 69.548 43.8773 69.0794 43.32C68.6107 42.7627 68.142 42.2053 67.6734 41.648C67.2047 41.0907 66.7677 40.5777 66.3624 40.109C65.957 39.6277 65.615 39.2287 65.3364 38.912C65.0704 38.5827 64.9057 38.38 64.8424 38.304C64.7537 38.19 64.6777 38.114 64.6144 38.076C64.551 38.0253 64.494 38 64.4434 38C64.38 38 64.3357 38.0507 64.3104 38.152C64.285 38.2407 64.2724 38.323 64.2724 38.399C64.2597 39.0197 64.247 39.7353 64.2344 40.546C64.2217 41.3567 64.209 42.1927 64.1964 43.054C64.1837 43.9153 64.1774 44.7387 64.1774 45.524C64.1774 45.866 64.2597 46.1827 64.4244 46.474C64.6017 46.7653 64.9247 46.9553 65.3934 47.044C65.6087 47.082 65.767 47.1263 65.8684 47.177C65.9697 47.2277 66.0204 47.2973 66.0204 47.386C66.0204 47.462 65.9697 47.5127 65.8684 47.538C65.767 47.576 65.634 47.595 65.4694 47.595C65.1274 47.595 64.8677 47.5823 64.6904 47.557C64.5257 47.5443 64.3737 47.5317 64.2344 47.519C64.1077 47.5063 63.924 47.5 63.6834 47.5C63.4554 47.5 63.278 47.5063 63.1514 47.519C63.0247 47.5317 62.879 47.5443 62.7144 47.557C62.5497 47.5823 62.2964 47.595 61.9544 47.595C61.7897 47.595 61.6567 47.576 61.5554 47.538C61.454 47.5127 61.4034 47.462 61.4034 47.386C61.4034 47.2973 61.454 47.2277 61.5554 47.177C61.6567 47.1263 61.815 47.0757 62.0304 47.025C62.3977 46.9237 62.6637 46.74 62.8284 46.474C62.993 46.1953 63.0944 45.8597 63.1324 45.467C63.183 44.9857 63.2337 44.3523 63.2844 43.567C63.335 42.769 63.3794 41.8823 63.4174 40.907C63.4554 39.919 63.4744 38.9057 63.4744 37.867C63.4744 37.1957 63.297 36.7143 62.9424 36.423C62.6004 36.1317 62.1507 35.8973 61.5934 35.72C61.5427 35.6947 61.4287 35.644 61.2514 35.568C61.0867 35.4793 61.0044 35.378 61.0044 35.264C61.0044 35.15 61.0614 35.0803 61.1754 35.055C61.2894 35.017 61.378 34.998 61.4414 34.998C61.8087 35.0107 62.1064 35.0233 62.3344 35.036C62.5624 35.036 62.765 35.0423 62.9424 35.055C63.1197 35.0677 63.316 35.0803 63.5314 35.093C63.7467 35.093 64.0254 35.093 64.3674 35.093C64.4814 35.093 64.57 35.1247 64.6334 35.188C64.6967 35.2513 64.76 35.3273 64.8234 35.416C64.874 35.492 65.0387 35.7073 65.3174 36.062C65.6087 36.404 65.9634 36.841 66.3814 37.373C66.812 37.8923 67.2807 38.4623 67.7874 39.083C68.294 39.691 68.8007 40.3053 69.3074 40.926C69.814 41.534 70.2827 42.104 70.7134 42.636C71.144 43.1553 71.4987 43.586 71.7774 43.928C72.0687 44.27 72.2397 44.4727 72.2904 44.536C72.341 44.5867 72.4107 44.6627 72.4994 44.764C72.6007 44.8653 72.6894 44.916 72.7654 44.916C72.8794 44.916 72.9427 44.783 72.9554 44.517C72.9554 44.3397 72.9554 44.004 72.9554 43.51C72.968 43.0033 72.9744 42.3953 72.9744 41.686C72.987 40.964 72.9934 40.185 72.9934 39.349C72.9934 38.513 72.9934 37.658 72.9934 36.784C72.9807 36.5307 72.8477 36.3027 72.5944 36.1C72.341 35.8973 72.1067 35.777 71.8914 35.739C71.676 35.701 71.4797 35.6503 71.3024 35.587C71.125 35.5237 71.0364 35.4477 71.0364 35.359C71.0364 35.283 71.125 35.2323 71.3024 35.207C71.4797 35.169 71.6507 35.15 71.8154 35.15C71.942 35.15 72.0624 35.15 72.1764 35.15C72.303 35.15 72.4234 35.15 72.5374 35.15C72.664 35.15 72.7844 35.15 72.8984 35.15C73.2024 35.15 73.443 35.15 73.6204 35.15C73.7977 35.1373 73.9877 35.1247 74.1904 35.112C74.4057 35.0993 74.7034 35.093 75.0834 35.093C75.248 35.093 75.381 35.112 75.4824 35.15C75.5837 35.1753 75.6344 35.226 75.6344 35.302C75.6344 35.4793 75.4254 35.606 75.0074 35.682C74.5387 35.7707 74.2284 35.8847 74.0764 36.024C73.9244 36.1633 73.8357 36.3913 73.8104 36.708C73.8104 36.7713 73.804 37.0183 73.7914 37.449C73.7914 37.8797 73.7914 38.4243 73.7914 39.083C73.7914 39.7417 73.785 40.451 73.7724 41.211C73.7724 41.971 73.7724 42.731 73.7724 43.491C73.7724 44.2383 73.7724 44.9097 73.7724 45.505C73.7724 45.809 73.7787 46.0877 73.7914 46.341C73.8167 46.5817 73.8357 46.7907 73.8484 46.968C73.861 47.1327 73.8674 47.2593 73.8674 47.348C73.8674 47.5507 73.823 47.6773 73.7344 47.728C73.6584 47.7913 73.5697 47.823 73.4684 47.823ZM76.9642 47.595C76.7996 47.595 76.6666 47.576 76.5652 47.538C76.4639 47.5127 76.4132 47.462 76.4132 47.386C76.4132 47.234 76.6222 47.12 77.0402 47.044C77.5216 46.9553 77.8509 46.8097 78.0282 46.607C78.2182 46.3917 78.3132 46.0497 78.3132 45.581V37.031C78.3132 36.5877 78.2182 36.2773 78.0282 36.1C77.8509 35.91 77.5216 35.7707 77.0402 35.682C76.6222 35.606 76.4132 35.4793 76.4132 35.302C76.4132 35.226 76.4639 35.1753 76.5652 35.15C76.6666 35.112 76.7996 35.093 76.9642 35.093C77.3062 35.093 77.5786 35.0993 77.7812 35.112C77.9966 35.112 78.1992 35.1183 78.3892 35.131C78.5792 35.131 78.8136 35.131 79.0922 35.131C79.3329 35.131 79.5229 35.131 79.6622 35.131C79.8142 35.1183 79.9789 35.112 80.1562 35.112C80.3336 35.0993 80.5932 35.093 80.9352 35.093C81.0999 35.093 81.2329 35.112 81.3342 35.15C81.4356 35.1753 81.4862 35.226 81.4862 35.302C81.4862 35.3907 81.4356 35.4667 81.3342 35.53C81.2329 35.5933 81.0746 35.644 80.8592 35.682C80.3906 35.7707 80.0992 35.929 79.9852 36.157C79.8839 36.3723 79.8332 36.6637 79.8332 37.031V40.584C79.8332 40.6347 79.8332 40.7107 79.8332 40.812C79.8459 40.9007 79.8776 40.945 79.9282 40.945C79.9916 40.945 80.0739 40.907 80.1752 40.831C80.2892 40.755 80.3779 40.679 80.4412 40.603L84.2412 36.727C84.3426 36.6257 84.4122 36.5307 84.4502 36.442C84.5009 36.3407 84.5262 36.2457 84.5262 36.157C84.5262 35.929 84.4059 35.7833 84.1652 35.72C83.9499 35.6567 83.7979 35.5997 83.7092 35.549C83.6206 35.4983 83.5762 35.4287 83.5762 35.34C83.5762 35.264 83.6269 35.2133 83.7282 35.188C83.8296 35.15 83.9626 35.131 84.1272 35.131H85.1532C85.5206 35.131 85.9259 35.1247 86.3692 35.112C86.8126 35.0993 87.2116 35.0867 87.5662 35.074C87.9336 35.0613 88.1552 35.055 88.2312 35.055C88.3579 35.055 88.4592 35.074 88.5352 35.112C88.6112 35.15 88.6492 35.2007 88.6492 35.264C88.6492 35.3527 88.5986 35.4287 88.4972 35.492C88.3959 35.5553 88.2376 35.606 88.0222 35.644C87.5536 35.7327 87.0659 35.872 86.5592 36.062C86.0526 36.252 85.5776 36.5307 85.1342 36.898C84.6782 37.278 84.2539 37.6517 83.8612 38.019C83.4812 38.3737 83.1012 38.7473 82.7212 39.14C82.3412 39.52 81.9296 39.957 81.4862 40.451C81.4102 40.527 81.4419 40.641 81.5812 40.793L86.1792 45.695C86.4579 45.999 86.6796 46.2333 86.8442 46.398C87.0216 46.5627 87.2116 46.6957 87.4142 46.797C87.6296 46.8857 87.9146 46.968 88.2692 47.044C88.4846 47.0947 88.6429 47.1453 88.7442 47.196C88.8456 47.234 88.8962 47.2973 88.8962 47.386C88.8962 47.462 88.8456 47.5127 88.7442 47.538C88.6429 47.576 88.5099 47.595 88.3452 47.595C87.9779 47.595 87.6612 47.5823 87.3952 47.557C87.1292 47.5443 86.8696 47.5317 86.6162 47.519C86.3629 47.5063 86.0589 47.5 85.7042 47.5C85.4636 47.5 85.2546 47.5 85.0772 47.5C84.8999 47.5127 84.5959 47.519 84.1652 47.519C84.0006 47.519 83.8676 47.5063 83.7662 47.481C83.6649 47.443 83.6142 47.386 83.6142 47.31C83.6142 47.1707 83.7852 47.063 84.1272 46.987C84.4819 46.8983 84.6592 46.7717 84.6592 46.607C84.6592 46.531 84.6276 46.455 84.5642 46.379C84.5136 46.303 84.4502 46.2207 84.3742 46.132L80.3462 41.686C80.2702 41.61 80.1879 41.5403 80.0992 41.477C80.0232 41.401 79.9599 41.363 79.9092 41.363C79.8586 41.363 79.8332 41.4137 79.8332 41.515C79.8332 41.6163 79.8332 41.6987 79.8332 41.762C79.8332 42.3573 79.8396 42.9273 79.8522 43.472C79.8776 44.004 79.9029 44.65 79.9282 45.41C79.9409 45.676 79.9789 45.923 80.0422 46.151C80.1182 46.379 80.2386 46.569 80.4032 46.721C80.5806 46.873 80.8276 46.9807 81.1442 47.044C81.3596 47.082 81.5179 47.1263 81.6192 47.177C81.7206 47.2277 81.7712 47.2973 81.7712 47.386C81.7712 47.462 81.7206 47.5127 81.6192 47.538C81.5179 47.576 81.3849 47.595 81.2202 47.595C80.8782 47.595 80.6122 47.5823 80.4222 47.557C80.2449 47.5317 80.0802 47.5127 79.9282 47.5C79.7889 47.4747 79.5989 47.462 79.3582 47.462C79.0542 47.462 78.7819 47.4747 78.5412 47.5C78.3132 47.5127 78.0789 47.5317 77.8382 47.557C77.5976 47.5823 77.3062 47.595 76.9642 47.595ZM92.2148 47.595C92.0502 47.595 91.9172 47.576 91.8158 47.538C91.7145 47.5127 91.6638 47.462 91.6638 47.386C91.6638 47.2973 91.7145 47.2277 91.8158 47.177C91.9172 47.1263 92.0755 47.082 92.2908 47.044C92.7722 46.9553 93.1395 46.7843 93.3928 46.531C93.6462 46.265 93.7728 45.904 93.7728 45.448V42.636C93.7728 42.3827 93.7032 42.1103 93.5638 41.819C93.4372 41.515 93.3485 41.3187 93.2978 41.23L91.0748 37.582C90.9862 37.43 90.8468 37.221 90.6568 36.955C90.4668 36.6763 90.2578 36.4167 90.0298 36.176C89.8145 35.9353 89.5992 35.7833 89.3838 35.72C89.1812 35.6567 89.0228 35.5933 88.9088 35.53C88.8075 35.4667 88.7568 35.3907 88.7568 35.302C88.7568 35.226 88.8075 35.1753 88.9088 35.15C89.0102 35.112 89.1432 35.093 89.3078 35.093C89.5992 35.093 89.9348 35.1057 90.3148 35.131C90.6948 35.1437 91.1002 35.15 91.5308 35.15C91.8222 35.15 92.0945 35.1437 92.3478 35.131C92.6138 35.1183 92.8482 35.112 93.0508 35.112C93.2155 35.112 93.3485 35.131 93.4498 35.169C93.5512 35.1943 93.6018 35.245 93.6018 35.321C93.6018 35.4097 93.5512 35.4857 93.4498 35.549C93.3485 35.5997 93.1902 35.6503 92.9748 35.701C92.7975 35.7517 92.6518 35.8087 92.5378 35.872C92.4238 35.9353 92.3668 36.0367 92.3668 36.176C92.3668 36.3407 92.4492 36.5687 92.6138 36.86L94.3618 40.09C94.6152 40.5713 94.7925 40.812 94.8938 40.812C94.9698 40.812 95.0522 40.7613 95.1408 40.66C95.2295 40.546 95.3562 40.356 95.5208 40.09C95.8122 39.6467 96.0718 39.2223 96.2998 38.817C96.5278 38.4117 96.8002 37.924 97.1168 37.354C97.2435 37.1387 97.3322 36.955 97.3828 36.803C97.4335 36.6383 97.4588 36.499 97.4588 36.385C97.4588 36.1443 97.3702 35.9797 97.1928 35.891C97.0282 35.8023 96.8572 35.7453 96.6798 35.72C96.5532 35.6947 96.4138 35.6503 96.2618 35.587C96.1225 35.511 96.0528 35.4287 96.0528 35.34C96.0528 35.264 96.1035 35.2133 96.2048 35.188C96.3062 35.15 96.4392 35.131 96.6038 35.131C96.8952 35.131 97.1358 35.1373 97.3258 35.15C97.5158 35.15 97.7502 35.15 98.0288 35.15C98.4215 35.15 98.7952 35.1437 99.1498 35.131C99.5045 35.1057 99.7895 35.093 100.005 35.093C100.17 35.093 100.303 35.112 100.404 35.15C100.505 35.1753 100.556 35.226 100.556 35.302C100.556 35.3907 100.455 35.473 100.252 35.549C100.049 35.625 99.8148 35.701 99.5488 35.777C99.2195 35.8657 98.9408 36.0493 98.7128 36.328C98.4975 36.594 98.2188 36.9867 97.8768 37.506C97.6235 37.8987 97.4082 38.228 97.2308 38.494C97.0662 38.76 96.9078 39.007 96.7558 39.235C96.6165 39.463 96.4708 39.7037 96.3188 39.957C96.1668 40.1977 95.9832 40.4953 95.7678 40.85C95.6032 41.116 95.4892 41.3313 95.4258 41.496C95.3625 41.6607 95.3245 41.819 95.3118 41.971C95.2992 42.1103 95.2928 42.3067 95.2928 42.56V45.448C95.2928 45.8787 95.4258 46.2333 95.6918 46.512C95.9578 46.778 96.3252 46.9553 96.7938 47.044C97.0092 47.082 97.1675 47.1263 97.2688 47.177C97.3702 47.2277 97.4208 47.2973 97.4208 47.386C97.4208 47.462 97.3702 47.5127 97.2688 47.538C97.1675 47.576 97.0345 47.595 96.8698 47.595C96.5278 47.595 96.2428 47.5823 96.0148 47.557C95.7995 47.5443 95.5905 47.5317 95.3878 47.519C95.1852 47.5063 94.9382 47.5 94.6468 47.5C94.3302 47.5 94.0515 47.5063 93.8108 47.519C93.5828 47.5317 93.3422 47.5443 93.0888 47.557C92.8482 47.5823 92.5568 47.595 92.2148 47.595ZM106.533 47.766C105.697 47.766 104.899 47.6203 104.139 47.329C103.379 47.025 102.708 46.6007 102.125 46.056C101.542 45.4987 101.08 44.84 100.738 44.08C100.396 43.3073 100.225 42.4523 100.225 41.515C100.225 40.6537 100.364 39.8303 100.643 39.045C100.922 38.247 101.333 37.5377 101.878 36.917C102.423 36.2963 103.1 35.8023 103.911 35.435C104.722 35.0677 105.653 34.884 106.704 34.884C107.54 34.884 108.338 35.036 109.098 35.34C109.858 35.6313 110.529 36.0557 111.112 36.613C111.695 37.1577 112.157 37.8163 112.499 38.589C112.841 39.349 113.012 40.1977 113.012 41.135C113.012 41.9837 112.873 42.807 112.594 43.605C112.315 44.403 111.904 45.1123 111.359 45.733C110.814 46.3537 110.137 46.8477 109.326 47.215C108.515 47.5823 107.584 47.766 106.533 47.766ZM106.818 47.006C107.793 47.006 108.604 46.8033 109.25 46.398C109.896 45.98 110.377 45.4037 110.694 44.669C111.023 43.9217 111.188 43.054 111.188 42.066C111.188 41.192 111.087 40.3687 110.884 39.596C110.681 38.8233 110.377 38.1457 109.972 37.563C109.579 36.9677 109.085 36.5053 108.49 36.176C107.895 35.8467 107.198 35.682 106.4 35.682C105.45 35.682 104.652 35.8847 104.006 36.29C103.36 36.6953 102.872 37.2653 102.543 38C102.214 38.722 102.049 39.577 102.049 40.565C102.049 41.4517 102.144 42.2813 102.334 43.054C102.537 43.8267 102.834 44.5107 103.227 45.106C103.632 45.7013 104.133 46.17 104.728 46.512C105.323 46.8413 106.02 47.006 106.818 47.006Z" fill="white"/>
</svg>
