<svg width="137" height="84" viewBox="0 0 137 84" fill="none" xmlns="http://www.w3.org/2000/svg">
<path d="M7.42343 47.785C6.53676 47.785 5.68176 47.633 4.85843 47.329C4.0351 47.025 3.30043 46.5943 2.65443 46.037C2.00843 45.467 1.49543 44.7893 1.11543 44.004C0.748096 43.206 0.56443 42.3257 0.56443 41.363C0.56443 40.4383 0.760763 39.5833 1.15343 38.798C1.5461 38.0127 2.08443 37.3287 2.76843 36.746C3.45243 36.1633 4.23143 35.7137 5.10543 35.397C5.9921 35.0677 6.9231 34.903 7.89843 34.903C8.39243 34.903 8.81043 34.922 9.15243 34.96C9.49443 34.998 9.82376 35.055 10.1404 35.131C10.4698 35.1943 10.8498 35.283 11.2804 35.397C11.4704 35.4477 11.6034 35.5237 11.6794 35.625C11.7681 35.7263 11.8188 35.8657 11.8314 36.043C11.8568 36.3343 11.8884 36.651 11.9264 36.993C11.9644 37.3223 11.9898 37.734 12.0024 38.228C12.0151 38.3167 11.9708 38.3927 11.8694 38.456C11.7808 38.5067 11.6794 38.5193 11.5654 38.494C11.4641 38.4687 11.3944 38.3863 11.3564 38.247C11.2298 37.7657 11.0841 37.354 10.9194 37.012C10.7548 36.6573 10.5078 36.366 10.1784 36.138C9.86176 35.9227 9.47543 35.7643 9.01943 35.663C8.5761 35.549 8.09476 35.492 7.57543 35.492C6.84076 35.492 6.15676 35.644 5.52343 35.948C4.90276 36.2393 4.36443 36.6447 3.90843 37.164C3.4651 37.6707 3.11676 38.247 2.86343 38.893C2.6101 39.539 2.48343 40.2103 2.48343 40.907C2.48343 41.6797 2.60376 42.4397 2.84443 43.187C3.09776 43.9343 3.45243 44.612 3.90843 45.22C4.3771 45.8153 4.9281 46.2967 5.56143 46.664C6.20743 47.0187 6.9231 47.196 7.70843 47.196C8.62043 47.196 9.3741 46.987 9.96943 46.569C10.5648 46.151 11.0714 45.5683 11.4894 44.821C11.5781 44.6563 11.7048 44.574 11.8694 44.574C12.0468 44.574 12.1354 44.6753 12.1354 44.878C12.1354 44.9793 12.1101 45.144 12.0594 45.372C12.0088 45.5873 11.9391 45.8217 11.8504 46.075C11.7744 46.3157 11.6984 46.531 11.6224 46.721C11.5338 46.8983 11.4578 47.0123 11.3944 47.063C11.3438 47.1137 11.2171 47.1707 11.0144 47.234C10.5458 47.424 9.9821 47.5633 9.32343 47.652C8.67743 47.7407 8.0441 47.785 7.42343 47.785ZM20.3427 47.766C19.5067 47.766 18.7087 47.6203 17.9487 47.329C17.1887 47.025 16.5174 46.6007 15.9347 46.056C15.352 45.4987 14.8897 44.84 14.5477 44.08C14.2057 43.3073 14.0347 42.4523 14.0347 41.515C14.0347 40.6537 14.174 39.8303 14.4527 39.045C14.7314 38.247 15.143 37.5377 15.6877 36.917C16.2324 36.2963 16.91 35.8023 17.7207 35.435C18.5314 35.0677 19.4624 34.884 20.5137 34.884C21.3497 34.884 22.1477 35.036 22.9077 35.34C23.6677 35.6313 24.339 36.0557 24.9217 36.613C25.5044 37.1577 25.9667 37.8163 26.3087 38.589C26.6507 39.349 26.8217 40.1977 26.8217 41.135C26.8217 41.9837 26.6824 42.807 26.4037 43.605C26.125 44.403 25.7134 45.1123 25.1687 45.733C24.624 46.3537 23.9464 46.8477 23.1357 47.215C22.325 47.5823 21.394 47.766 20.3427 47.766ZM20.6277 47.006C21.603 47.006 22.4137 46.8033 23.0597 46.398C23.7057 45.98 24.187 45.4037 24.5037 44.669C24.833 43.9217 24.9977 43.054 24.9977 42.066C24.9977 41.192 24.8964 40.3687 24.6937 39.596C24.491 38.8233 24.187 38.1457 23.7817 37.563C23.389 36.9677 22.895 36.5053 22.2997 36.176C21.7044 35.8467 21.0077 35.682 20.2097 35.682C19.2597 35.682 18.4617 35.8847 17.8157 36.29C17.1697 36.6953 16.682 37.2653 16.3527 38C16.0234 38.722 15.8587 39.577 15.8587 40.565C15.8587 41.4517 15.9537 42.2813 16.1437 43.054C16.3464 43.8267 16.644 44.5107 17.0367 45.106C17.442 45.7013 17.9424 46.17 18.5377 46.512C19.133 46.8413 19.8297 47.006 20.6277 47.006ZM28.5829 47.595C28.4182 47.595 28.2852 47.576 28.1839 47.538C28.0826 47.5127 28.0319 47.462 28.0319 47.386C28.0319 47.2973 28.0826 47.2277 28.1839 47.177C28.2852 47.1263 28.4436 47.082 28.6589 47.044C28.9756 46.9807 29.2352 46.8287 29.4379 46.588C29.6406 46.3473 29.7736 46.0053 29.8369 45.562C29.9889 44.422 30.1219 43.339 30.2359 42.313C30.3499 41.2743 30.4386 40.3433 30.5019 39.52C30.5779 38.684 30.6159 38 30.6159 37.468C30.6159 37.3667 30.6159 37.259 30.6159 37.145C30.6159 37.031 30.6096 36.9297 30.5969 36.841C30.5842 36.7397 30.5652 36.6383 30.5399 36.537C30.5146 36.423 30.4386 36.3153 30.3119 36.214C30.0839 36.024 29.8622 35.8973 29.6469 35.834C29.4316 35.758 29.1782 35.6947 28.8869 35.644C28.7602 35.6187 28.6589 35.5743 28.5829 35.511C28.5069 35.435 28.4689 35.3527 28.4689 35.264C28.4689 35.1627 28.5259 35.1057 28.6399 35.093C28.7666 35.0677 28.9249 35.055 29.1149 35.055C29.2416 35.055 29.4316 35.0613 29.6849 35.074C29.9509 35.0867 30.2359 35.1057 30.5399 35.131C30.8439 35.1563 31.1226 35.1753 31.3759 35.188C31.6419 35.2007 31.8382 35.207 31.9649 35.207C32.0536 35.207 32.1296 35.2323 32.1929 35.283C32.2562 35.3337 32.3006 35.4097 32.3259 35.511C32.3892 35.739 32.4526 35.9797 32.5159 36.233C32.5792 36.4863 32.6552 36.7333 32.7439 36.974L35.7459 44.593C35.7839 44.6817 35.8536 44.7387 35.9549 44.764C36.0562 44.7767 36.1322 44.7387 36.1829 44.65L39.9259 36.86C39.9892 36.6447 40.0526 36.404 40.1159 36.138C40.1792 35.872 40.2299 35.6377 40.2679 35.435C40.3059 35.2703 40.3692 35.188 40.4579 35.188H41.1419C41.5219 35.188 41.9209 35.1627 42.3389 35.112C42.7696 35.0613 43.0926 35.036 43.3079 35.036C43.3712 35.036 43.4536 35.0487 43.5549 35.074C43.6562 35.0867 43.7069 35.1373 43.7069 35.226C43.7069 35.3147 43.6689 35.3843 43.5929 35.435C43.5296 35.4857 43.4029 35.549 43.2129 35.625C43.0482 35.6883 42.8646 35.758 42.6619 35.834C42.4592 35.91 42.2692 35.986 42.0919 36.062C41.9652 36.1127 41.8576 36.2013 41.7689 36.328C41.6802 36.442 41.6359 36.5687 41.6359 36.708C41.6359 37.5947 41.6486 38.4307 41.6739 39.216C41.7119 39.9887 41.7499 40.736 41.7879 41.458C41.8259 42.1673 41.8702 42.8703 41.9209 43.567C41.9716 44.2637 42.0159 44.973 42.0539 45.695C42.0792 46.0877 42.2059 46.3917 42.4339 46.607C42.6619 46.8097 43.0102 46.9553 43.4789 47.044C43.6942 47.082 43.8526 47.1263 43.9539 47.177C44.0552 47.2277 44.1059 47.2973 44.1059 47.386C44.1059 47.462 44.0552 47.5127 43.9539 47.538C43.8526 47.576 43.7196 47.595 43.5549 47.595C43.2129 47.595 42.9279 47.5823 42.6999 47.557C42.4846 47.5443 42.2756 47.5317 42.0729 47.519C41.8702 47.5063 41.6232 47.5 41.3319 47.5C41.0786 47.5 40.8632 47.5063 40.6859 47.519C40.5212 47.5317 40.3376 47.5443 40.1349 47.557C39.9449 47.5823 39.6789 47.595 39.3369 47.595C39.1722 47.595 39.0392 47.576 38.9379 47.538C38.8366 47.5127 38.7859 47.462 38.7859 47.386C38.7859 47.2973 38.8366 47.2277 38.9379 47.177C39.0392 47.1137 39.1976 47.0693 39.4129 47.044C39.7802 46.9933 40.0336 46.8667 40.1729 46.664C40.3122 46.4487 40.3819 46.1193 40.3819 45.676C40.3819 44.764 40.3692 43.9407 40.3439 43.206C40.3312 42.4713 40.3059 41.7493 40.2679 41.04C40.2299 40.318 40.1919 39.5327 40.1539 38.684C40.1412 38.5447 40.1032 38.4813 40.0399 38.494C39.9766 38.494 39.9132 38.5573 39.8499 38.684L35.4799 47.595C35.4546 47.6583 35.3976 47.69 35.3089 47.69C35.2202 47.7027 35.1632 47.6647 35.1379 47.576C34.6439 46.094 34.1119 44.6373 33.5419 43.206C32.9846 41.762 32.3512 40.2103 31.6419 38.551C31.6166 38.4877 31.5722 38.456 31.5089 38.456C31.4456 38.456 31.4076 38.4877 31.3949 38.551C31.2809 39.4377 31.1732 40.2547 31.0719 41.002C30.9832 41.7367 30.9136 42.465 30.8629 43.187C30.8122 43.909 30.7869 44.7007 30.7869 45.562C30.7869 45.904 30.8946 46.2207 31.1099 46.512C31.3252 46.7907 31.6292 46.968 32.0219 47.044C32.2372 47.082 32.3956 47.1263 32.4969 47.177C32.5982 47.2277 32.6489 47.2973 32.6489 47.386C32.6489 47.462 32.5982 47.5127 32.4969 47.538C32.3956 47.576 32.2626 47.595 32.0979 47.595C31.7559 47.595 31.4962 47.5823 31.3189 47.557C31.1542 47.5443 31.0022 47.5317 30.8629 47.519C30.7362 47.5063 30.5526 47.5 30.3119 47.5C30.0839 47.5 29.9066 47.5063 29.7799 47.519C29.6532 47.5317 29.5076 47.5443 29.3429 47.557C29.1782 47.5823 28.9249 47.595 28.5829 47.595ZM45.7089 47.595C45.5442 47.595 45.4112 47.576 45.3099 47.538C45.2085 47.5127 45.1579 47.462 45.1579 47.386C45.1579 47.234 45.3669 47.12 45.7849 47.044C46.2662 46.9553 46.6335 46.8097 46.8869 46.607C47.1402 46.4043 47.2669 46.0813 47.2669 45.638V37.05C47.2669 36.6067 47.1719 36.29 46.9819 36.1C46.8045 35.91 46.4752 35.7707 45.9939 35.682C45.5759 35.606 45.3669 35.4793 45.3669 35.302C45.3669 35.226 45.4175 35.1753 45.5189 35.15C45.6202 35.112 45.7532 35.093 45.9179 35.093C46.2599 35.093 46.5385 35.0993 46.7539 35.112C46.9819 35.1247 47.1972 35.1373 47.3999 35.15C47.6025 35.15 47.8495 35.15 48.1409 35.15C48.4195 35.15 48.6475 35.15 48.8249 35.15C49.0022 35.1373 49.1922 35.1247 49.3949 35.112C49.5975 35.0993 49.8699 35.093 50.2119 35.093C50.3765 35.093 50.5095 35.112 50.6109 35.15C50.7122 35.1753 50.7629 35.226 50.7629 35.302C50.7629 35.3907 50.7122 35.4667 50.6109 35.53C50.5095 35.5933 50.3512 35.644 50.1359 35.682C49.6672 35.7707 49.3252 35.91 49.1099 36.1C48.8945 36.29 48.7869 36.6067 48.7869 37.05V45.638C48.7869 46.0813 48.9199 46.4043 49.1859 46.607C49.4519 46.8097 49.8192 46.9553 50.2879 47.044C50.5032 47.082 50.6615 47.1263 50.7629 47.177C50.8642 47.2277 50.9149 47.2973 50.9149 47.386C50.9149 47.462 50.8642 47.5127 50.7629 47.538C50.6615 47.576 50.5285 47.595 50.3639 47.595C50.0219 47.595 49.7369 47.5823 49.5089 47.557C49.2935 47.5443 49.0845 47.5317 48.8819 47.519C48.6792 47.5063 48.4322 47.5 48.1409 47.5C47.8242 47.5 47.5455 47.5063 47.3049 47.519C47.0769 47.5317 46.8362 47.5443 46.5829 47.557C46.3422 47.5823 46.0509 47.595 45.7089 47.595ZM63.9459 47.823C63.8319 47.823 63.6039 47.728 63.2619 47.538C62.9326 47.348 62.6159 47.044 62.3119 46.626C62.2612 46.5627 62.1029 46.3727 61.8369 46.056C61.5836 45.7393 61.2542 45.3467 60.8489 44.878C60.4562 44.3967 60.0256 43.8773 59.5569 43.32C59.0882 42.7627 58.6196 42.2053 58.1509 41.648C57.6822 41.0907 57.2452 40.5777 56.8399 40.109C56.4346 39.6277 56.0926 39.2287 55.8139 38.912C55.5479 38.5827 55.3832 38.38 55.3199 38.304C55.2312 38.19 55.1552 38.114 55.0919 38.076C55.0286 38.0253 54.9716 38 54.9209 38C54.8576 38 54.8132 38.0507 54.7879 38.152C54.7626 38.2407 54.7499 38.323 54.7499 38.399C54.7372 39.0197 54.7246 39.7353 54.7119 40.546C54.6992 41.3567 54.6866 42.1927 54.6739 43.054C54.6612 43.9153 54.6549 44.7387 54.6549 45.524C54.6549 45.866 54.7372 46.1827 54.9019 46.474C55.0792 46.7653 55.4022 46.9553 55.8709 47.044C56.0862 47.082 56.2446 47.1263 56.3459 47.177C56.4472 47.2277 56.4979 47.2973 56.4979 47.386C56.4979 47.462 56.4472 47.5127 56.3459 47.538C56.2446 47.576 56.1116 47.595 55.9469 47.595C55.6049 47.595 55.3452 47.5823 55.1679 47.557C55.0032 47.5443 54.8512 47.5317 54.7119 47.519C54.5852 47.5063 54.4016 47.5 54.1609 47.5C53.9329 47.5 53.7556 47.5063 53.6289 47.519C53.5022 47.5317 53.3566 47.5443 53.1919 47.557C53.0272 47.5823 52.7739 47.595 52.4319 47.595C52.2672 47.595 52.1342 47.576 52.0329 47.538C51.9316 47.5127 51.8809 47.462 51.8809 47.386C51.8809 47.2973 51.9316 47.2277 52.0329 47.177C52.1342 47.1263 52.2926 47.0757 52.5079 47.025C52.8752 46.9237 53.1412 46.74 53.3059 46.474C53.4706 46.1953 53.5719 45.8597 53.6099 45.467C53.6606 44.9857 53.7112 44.3523 53.7619 43.567C53.8126 42.769 53.8569 41.8823 53.8949 40.907C53.9329 39.919 53.9519 38.9057 53.9519 37.867C53.9519 37.1957 53.7746 36.7143 53.4199 36.423C53.0779 36.1317 52.6282 35.8973 52.0709 35.72C52.0202 35.6947 51.9062 35.644 51.7289 35.568C51.5642 35.4793 51.4819 35.378 51.4819 35.264C51.4819 35.15 51.5389 35.0803 51.6529 35.055C51.7669 35.017 51.8556 34.998 51.9189 34.998C52.2862 35.0107 52.5839 35.0233 52.8119 35.036C53.0399 35.036 53.2426 35.0423 53.4199 35.055C53.5972 35.0677 53.7936 35.0803 54.0089 35.093C54.2242 35.093 54.5029 35.093 54.8449 35.093C54.9589 35.093 55.0476 35.1247 55.1109 35.188C55.1742 35.2513 55.2376 35.3273 55.3009 35.416C55.3516 35.492 55.5162 35.7073 55.7949 36.062C56.0862 36.404 56.4409 36.841 56.8589 37.373C57.2896 37.8923 57.7582 38.4623 58.2649 39.083C58.7716 39.691 59.2782 40.3053 59.7849 40.926C60.2916 41.534 60.7602 42.104 61.1909 42.636C61.6216 43.1553 61.9762 43.586 62.2549 43.928C62.5462 44.27 62.7172 44.4727 62.7679 44.536C62.8186 44.5867 62.8882 44.6627 62.9769 44.764C63.0782 44.8653 63.1669 44.916 63.2429 44.916C63.3569 44.916 63.4202 44.783 63.4329 44.517C63.4329 44.3397 63.4329 44.004 63.4329 43.51C63.4456 43.0033 63.4519 42.3953 63.4519 41.686C63.4646 40.964 63.4709 40.185 63.4709 39.349C63.4709 38.513 63.4709 37.658 63.4709 36.784C63.4582 36.5307 63.3252 36.3027 63.0719 36.1C62.8186 35.8973 62.5842 35.777 62.3689 35.739C62.1536 35.701 61.9572 35.6503 61.7799 35.587C61.6026 35.5237 61.5139 35.4477 61.5139 35.359C61.5139 35.283 61.6026 35.2323 61.7799 35.207C61.9572 35.169 62.1282 35.15 62.2929 35.15C62.4196 35.15 62.5399 35.15 62.6539 35.15C62.7806 35.15 62.9009 35.15 63.0149 35.15C63.1416 35.15 63.2619 35.15 63.3759 35.15C63.6799 35.15 63.9206 35.15 64.0979 35.15C64.2752 35.1373 64.4652 35.1247 64.6679 35.112C64.8832 35.0993 65.1809 35.093 65.5609 35.093C65.7256 35.093 65.8586 35.112 65.9599 35.15C66.0612 35.1753 66.1119 35.226 66.1119 35.302C66.1119 35.4793 65.9029 35.606 65.4849 35.682C65.0162 35.7707 64.7059 35.8847 64.5539 36.024C64.4019 36.1633 64.3132 36.3913 64.2879 36.708C64.2879 36.7713 64.2816 37.0183 64.2689 37.449C64.2689 37.8797 64.2689 38.4243 64.2689 39.083C64.2689 39.7417 64.2626 40.451 64.2499 41.211C64.2499 41.971 64.2499 42.731 64.2499 43.491C64.2499 44.2383 64.2499 44.9097 64.2499 45.505C64.2499 45.809 64.2562 46.0877 64.2689 46.341C64.2942 46.5817 64.3132 46.7907 64.3259 46.968C64.3386 47.1327 64.3449 47.2593 64.3449 47.348C64.3449 47.5507 64.3006 47.6773 64.2119 47.728C64.1359 47.7913 64.0472 47.823 63.9459 47.823ZM73.7498 47.766C72.8758 47.766 72.0398 47.614 71.2418 47.31C70.4564 46.9933 69.7534 46.5563 69.1328 45.999C68.5248 45.4417 68.0434 44.7893 67.6888 44.042C67.3341 43.282 67.1568 42.465 67.1568 41.591C67.1568 40.6537 67.3404 39.7797 67.7078 38.969C68.0751 38.1583 68.5818 37.449 69.2278 36.841C69.8738 36.233 70.6148 35.758 71.4508 35.416C72.2994 35.074 73.1988 34.903 74.1488 34.903C74.3641 34.903 74.6554 34.9283 75.0228 34.979C75.4028 35.017 75.7891 35.0677 76.1818 35.131C76.5871 35.1943 76.9481 35.264 77.2648 35.34C77.5941 35.4033 77.8221 35.4667 77.9488 35.53C78.0121 35.5553 78.0501 35.587 78.0628 35.625C78.0881 35.6503 78.1071 35.6947 78.1198 35.758C78.1704 36.1253 78.2148 36.4927 78.2528 36.86C78.2908 37.2147 78.3098 37.5187 78.3098 37.772C78.3098 37.8607 78.2781 37.9493 78.2148 38.038C78.1641 38.114 78.1008 38.152 78.0248 38.152C77.8981 38.152 77.8031 38.095 77.7398 37.981C77.6764 37.867 77.6258 37.753 77.5878 37.639C77.5118 37.4363 77.4294 37.2653 77.3408 37.126C77.2648 36.974 77.1508 36.8093 76.9988 36.632C76.9228 36.5307 76.7581 36.404 76.5048 36.252C76.2641 36.0873 75.9348 35.9417 75.5168 35.815C75.0988 35.6883 74.5858 35.625 73.9778 35.625C73.2431 35.625 72.5718 35.7833 71.9638 36.1C71.3558 36.404 70.8301 36.8283 70.3868 37.373C69.9561 37.905 69.6204 38.513 69.3798 39.197C69.1518 39.881 69.0378 40.5967 69.0378 41.344C69.0378 42.2433 69.1771 43.0477 69.4558 43.757C69.7344 44.4663 70.1081 45.068 70.5768 45.562C71.0454 46.056 71.5774 46.4297 72.1728 46.683C72.7681 46.9363 73.3824 47.063 74.0158 47.063C74.7504 47.063 75.2888 46.9743 75.6308 46.797C75.9854 46.6197 76.2198 46.474 76.3338 46.36C76.4731 46.2207 76.5998 46.0243 76.7138 45.771C76.8404 45.5177 76.9038 45.2263 76.9038 44.897C76.9038 44.783 76.9038 44.6627 76.9038 44.536C76.9164 44.4093 76.9228 44.2827 76.9228 44.156C76.9354 44.0293 76.9418 43.909 76.9418 43.795C76.9418 43.6557 76.9354 43.5417 76.9228 43.453C76.9101 43.3517 76.8848 43.2757 76.8468 43.225C76.7454 43.0857 76.5681 42.9717 76.3148 42.883C76.0614 42.7943 75.8081 42.731 75.5548 42.693C75.3014 42.655 75.1114 42.636 74.9848 42.636C74.9341 42.636 74.8581 42.6043 74.7568 42.541C74.6554 42.4777 74.6048 42.4017 74.6048 42.313C74.6048 42.2117 74.6554 42.1357 74.7568 42.085C74.8581 42.0217 74.9341 41.99 74.9848 41.99C75.3014 41.99 75.5738 41.9963 75.8018 42.009C76.0298 42.0217 76.2641 42.0343 76.5048 42.047C76.7454 42.0597 77.0368 42.066 77.3788 42.066C77.7081 42.066 77.9868 42.0533 78.2148 42.028C78.4428 42.0027 78.7278 41.99 79.0698 41.99C79.1204 41.99 79.1964 42.009 79.2978 42.047C79.4118 42.085 79.4688 42.1673 79.4688 42.294C79.4688 42.3827 79.4118 42.4587 79.2978 42.522C79.1964 42.5853 79.1204 42.6233 79.0698 42.636C78.7911 42.712 78.5948 42.826 78.4808 42.978C78.3794 43.1173 78.3098 43.3137 78.2718 43.567C78.2338 43.8457 78.2084 44.0927 78.1958 44.308C78.1831 44.5233 78.1768 44.7513 78.1768 44.992V45.505C78.1768 45.5683 78.1894 45.619 78.2148 45.657C78.2401 45.695 78.2654 45.7457 78.2908 45.809C78.3288 45.8723 78.3794 45.9293 78.4428 45.98C78.5061 46.0307 78.5378 46.0813 78.5378 46.132C78.5378 46.1827 78.5251 46.2523 78.4998 46.341C78.4871 46.417 78.4111 46.4677 78.2718 46.493C78.1831 46.5057 78.0058 46.5817 77.7398 46.721C77.4864 46.8477 77.1634 46.9933 76.7708 47.158C76.3781 47.3227 75.9284 47.462 75.4218 47.576C74.9151 47.7027 74.3578 47.766 73.7498 47.766ZM87.8233 47.804C87.2913 47.804 86.7973 47.7217 86.3413 47.557C85.8979 47.405 85.4989 47.1833 85.1443 46.892C85.0936 46.8413 85.0429 46.7843 84.9923 46.721C84.9543 46.6577 84.9226 46.588 84.8973 46.512C84.8339 46.2587 84.7896 45.9293 84.7643 45.524C84.7516 45.1187 84.7326 44.783 84.7073 44.517C84.7073 44.4283 84.7453 44.365 84.8213 44.327C84.8973 44.2763 84.9859 44.251 85.0873 44.251C85.1506 44.251 85.2139 44.27 85.2773 44.308C85.3406 44.3333 85.3786 44.384 85.3913 44.46C85.6446 45.4353 86.0183 46.132 86.5123 46.55C87.0189 46.968 87.5446 47.177 88.0893 47.177C88.5326 47.177 88.9253 47.082 89.2673 46.892C89.6093 46.702 89.8753 46.436 90.0653 46.094C90.2679 45.7393 90.3693 45.3277 90.3693 44.859C90.3693 44.3397 90.2806 43.9217 90.1033 43.605C89.9386 43.2757 89.6979 42.9907 89.3813 42.75C89.0646 42.5093 88.6783 42.2497 88.2223 41.971C87.7283 41.6543 87.2406 41.3377 86.7593 41.021C86.2779 40.6917 85.8789 40.318 85.5623 39.9C85.2456 39.4693 85.0873 38.95 85.0873 38.342C85.0873 37.696 85.2329 37.1133 85.5243 36.594C85.8156 36.0747 86.2526 35.663 86.8353 35.359C87.4306 35.0423 88.1716 34.884 89.0583 34.884C89.5143 34.884 89.9069 34.9347 90.2363 35.036C90.5783 35.1247 90.8506 35.2133 91.0533 35.302C91.1546 35.34 91.2369 35.4033 91.3003 35.492C91.3763 35.5807 91.4269 35.6757 91.4523 35.777C91.5283 36.043 91.6106 36.347 91.6993 36.689C91.7879 37.031 91.8323 37.354 91.8323 37.658C91.8323 37.7973 91.7373 37.867 91.5473 37.867C91.4333 37.867 91.3193 37.8417 91.2053 37.791C91.1039 37.7403 91.0406 37.677 91.0153 37.601C90.7493 36.9297 90.4389 36.4167 90.0843 36.062C89.7296 35.7073 89.2799 35.53 88.7353 35.53C88.3553 35.53 88.0006 35.5997 87.6713 35.739C87.3419 35.8783 87.0696 36.1063 86.8543 36.423C86.6516 36.7397 86.5503 37.164 86.5503 37.696C86.5503 38.076 86.6706 38.4243 86.9113 38.741C87.1646 39.045 87.4939 39.3363 87.8993 39.615C88.3046 39.8937 88.7416 40.1787 89.2103 40.47C89.6536 40.736 90.0843 41.0273 90.5023 41.344C90.9329 41.6607 91.2813 42.0407 91.5473 42.484C91.8259 42.9147 91.9653 43.4467 91.9653 44.08C91.9653 44.8273 91.7943 45.486 91.4523 46.056C91.1103 46.6133 90.6289 47.044 90.0083 47.348C89.3876 47.652 88.6593 47.804 87.8233 47.804ZM99.9423 47.766C99.1063 47.766 98.3083 47.6203 97.5483 47.329C96.7883 47.025 96.117 46.6007 95.5343 46.056C94.9516 45.4987 94.4893 44.84 94.1473 44.08C93.8053 43.3073 93.6343 42.4523 93.6343 41.515C93.6343 40.6537 93.7736 39.8303 94.0523 39.045C94.331 38.247 94.7426 37.5377 95.2873 36.917C95.832 36.2963 96.5096 35.8023 97.3203 35.435C98.131 35.0677 99.062 34.884 100.113 34.884C100.949 34.884 101.747 35.036 102.507 35.34C103.267 35.6313 103.939 36.0557 104.521 36.613C105.104 37.1577 105.566 37.8163 105.908 38.589C106.25 39.349 106.421 40.1977 106.421 41.135C106.421 41.9837 106.282 42.807 106.003 43.605C105.725 44.403 105.313 45.1123 104.768 45.733C104.224 46.3537 103.546 46.8477 102.735 47.215C101.925 47.5823 100.994 47.766 99.9423 47.766ZM100.227 47.006C101.203 47.006 102.013 46.8033 102.659 46.398C103.305 45.98 103.787 45.4037 104.103 44.669C104.433 43.9217 104.597 43.054 104.597 42.066C104.597 41.192 104.496 40.3687 104.293 39.596C104.091 38.8233 103.787 38.1457 103.381 37.563C102.989 36.9677 102.495 36.5053 101.899 36.176C101.304 35.8467 100.607 35.682 99.8093 35.682C98.8593 35.682 98.0613 35.8847 97.4153 36.29C96.7693 36.6953 96.2816 37.2653 95.9523 38C95.623 38.722 95.4583 39.577 95.4583 40.565C95.4583 41.4517 95.5533 42.2813 95.7433 43.054C95.946 43.8267 96.2436 44.5107 96.6363 45.106C97.0416 45.7013 97.542 46.17 98.1373 46.512C98.7326 46.8413 99.4293 47.006 100.227 47.006ZM114.434 47.766C113.598 47.766 112.8 47.6203 112.04 47.329C111.28 47.025 110.608 46.6007 110.026 46.056C109.443 45.4987 108.981 44.84 108.639 44.08C108.297 43.3073 108.126 42.4523 108.126 41.515C108.126 40.6537 108.265 39.8303 108.544 39.045C108.822 38.247 109.234 37.5377 109.779 36.917C110.323 36.2963 111.001 35.8023 111.812 35.435C112.622 35.0677 113.553 34.884 114.605 34.884C115.441 34.884 116.239 35.036 116.999 35.34C117.759 35.6313 118.43 36.0557 119.013 36.613C119.595 37.1577 120.058 37.8163 120.4 38.589C120.742 39.349 120.913 40.1977 120.913 41.135C120.913 41.9837 120.773 42.807 120.495 43.605C120.216 44.403 119.804 45.1123 119.26 45.733C118.715 46.3537 118.037 46.8477 117.227 47.215C116.416 47.5823 115.485 47.766 114.434 47.766ZM114.719 47.006C115.694 47.006 116.505 46.8033 117.151 46.398C117.797 45.98 118.278 45.4037 118.595 44.669C118.924 43.9217 119.089 43.054 119.089 42.066C119.089 41.192 118.987 40.3687 118.785 39.596C118.582 38.8233 118.278 38.1457 117.873 37.563C117.48 36.9677 116.986 36.5053 116.391 36.176C115.795 35.8467 115.099 35.682 114.301 35.682C113.351 35.682 112.553 35.8847 111.907 36.29C111.261 36.6953 110.773 37.2653 110.444 38C110.114 38.722 109.95 39.577 109.95 40.565C109.95 41.4517 110.045 42.2813 110.235 43.054C110.437 43.8267 110.735 44.5107 111.128 45.106C111.533 45.7013 112.033 46.17 112.629 46.512C113.224 46.8413 113.921 47.006 114.719 47.006ZM134.454 47.823C134.34 47.823 134.112 47.728 133.77 47.538C133.44 47.348 133.124 47.044 132.82 46.626C132.769 46.5627 132.611 46.3727 132.345 46.056C132.091 45.7393 131.762 45.3467 131.357 44.878C130.964 44.3967 130.533 43.8773 130.065 43.32C129.596 42.7627 129.127 42.2053 128.659 41.648C128.19 41.0907 127.753 40.5777 127.348 40.109C126.942 39.6277 126.6 39.2287 126.322 38.912C126.056 38.5827 125.891 38.38 125.828 38.304C125.739 38.19 125.663 38.114 125.6 38.076C125.536 38.0253 125.479 38 125.429 38C125.365 38 125.321 38.0507 125.296 38.152C125.27 38.2407 125.258 38.323 125.258 38.399C125.245 39.0197 125.232 39.7353 125.22 40.546C125.207 41.3567 125.194 42.1927 125.182 43.054C125.169 43.9153 125.163 44.7387 125.163 45.524C125.163 45.866 125.245 46.1827 125.41 46.474C125.587 46.7653 125.91 46.9553 126.379 47.044C126.594 47.082 126.752 47.1263 126.854 47.177C126.955 47.2277 127.006 47.2973 127.006 47.386C127.006 47.462 126.955 47.5127 126.854 47.538C126.752 47.576 126.619 47.595 126.455 47.595C126.113 47.595 125.853 47.5823 125.676 47.557C125.511 47.5443 125.359 47.5317 125.22 47.519C125.093 47.5063 124.909 47.5 124.669 47.5C124.441 47.5 124.263 47.5063 124.137 47.519C124.01 47.5317 123.864 47.5443 123.7 47.557C123.535 47.5823 123.282 47.595 122.94 47.595C122.775 47.595 122.642 47.576 122.541 47.538C122.439 47.5127 122.389 47.462 122.389 47.386C122.389 47.2973 122.439 47.2277 122.541 47.177C122.642 47.1263 122.8 47.0757 123.016 47.025C123.383 46.9237 123.649 46.74 123.814 46.474C123.978 46.1953 124.08 45.8597 124.118 45.467C124.168 44.9857 124.219 44.3523 124.27 43.567C124.32 42.769 124.365 41.8823 124.403 40.907C124.441 39.919 124.46 38.9057 124.46 37.867C124.46 37.1957 124.282 36.7143 123.928 36.423C123.586 36.1317 123.136 35.8973 122.579 35.72C122.528 35.6947 122.414 35.644 122.237 35.568C122.072 35.4793 121.99 35.378 121.99 35.264C121.99 35.15 122.047 35.0803 122.161 35.055C122.275 35.017 122.363 34.998 122.427 34.998C122.794 35.0107 123.092 35.0233 123.32 35.036C123.548 35.036 123.75 35.0423 123.928 35.055C124.105 35.0677 124.301 35.0803 124.517 35.093C124.732 35.093 125.011 35.093 125.353 35.093C125.467 35.093 125.555 35.1247 125.619 35.188C125.682 35.2513 125.745 35.3273 125.809 35.416C125.859 35.492 126.024 35.7073 126.303 36.062C126.594 36.404 126.949 36.841 127.367 37.373C127.797 37.8923 128.266 38.4623 128.773 39.083C129.279 39.691 129.786 40.3053 130.293 40.926C130.799 41.534 131.268 42.104 131.699 42.636C132.129 43.1553 132.484 43.586 132.763 43.928C133.054 44.27 133.225 44.4727 133.276 44.536C133.326 44.5867 133.396 44.6627 133.485 44.764C133.586 44.8653 133.675 44.916 133.751 44.916C133.865 44.916 133.928 44.783 133.941 44.517C133.941 44.3397 133.941 44.004 133.941 43.51C133.953 43.0033 133.96 42.3953 133.96 41.686C133.972 40.964 133.979 40.185 133.979 39.349C133.979 38.513 133.979 37.658 133.979 36.784C133.966 36.5307 133.833 36.3027 133.58 36.1C133.326 35.8973 133.092 35.777 132.877 35.739C132.661 35.701 132.465 35.6503 132.288 35.587C132.11 35.5237 132.022 35.4477 132.022 35.359C132.022 35.283 132.11 35.2323 132.288 35.207C132.465 35.169 132.636 35.15 132.801 35.15C132.927 35.15 133.048 35.15 133.162 35.15C133.288 35.15 133.409 35.15 133.523 35.15C133.649 35.15 133.77 35.15 133.884 35.15C134.188 35.15 134.428 35.15 134.606 35.15C134.783 35.1373 134.973 35.1247 135.176 35.112C135.391 35.0993 135.689 35.093 136.069 35.093C136.233 35.093 136.366 35.112 136.468 35.15C136.569 35.1753 136.62 35.226 136.62 35.302C136.62 35.4793 136.411 35.606 135.993 35.682C135.524 35.7707 135.214 35.8847 135.062 36.024C134.91 36.1633 134.821 36.3913 134.796 36.708C134.796 36.7713 134.789 37.0183 134.777 37.449C134.777 37.8797 134.777 38.4243 134.777 39.083C134.777 39.7417 134.77 40.451 134.758 41.211C134.758 41.971 134.758 42.731 134.758 43.491C134.758 44.2383 134.758 44.9097 134.758 45.505C134.758 45.809 134.764 46.0877 134.777 46.341C134.802 46.5817 134.821 46.7907 134.834 46.968C134.846 47.1327 134.853 47.2593 134.853 47.348C134.853 47.5507 134.808 47.6773 134.72 47.728C134.644 47.7913 134.555 47.823 134.454 47.823Z" fill="white"/>
</svg>
