<svg width="101" height="84" viewBox="0 0 101 84" fill="none" xmlns="http://www.w3.org/2000/svg">
<path d="M13.1402 47.823C13.0262 47.823 12.7982 47.728 12.4562 47.538C12.1269 47.348 11.8102 47.044 11.5062 46.626C11.4556 46.5627 11.2972 46.3727 11.0312 46.056C10.7779 45.7393 10.4486 45.3467 10.0432 44.878C9.65058 44.3967 9.21991 43.8773 8.75124 43.32C8.28258 42.7627 7.81391 42.2053 7.34524 41.648C6.87658 41.0907 6.43958 40.5777 6.03424 40.109C5.62891 39.6277 5.28691 39.2287 5.00824 38.912C4.74224 38.5827 4.57758 38.38 4.51424 38.304C4.42558 38.19 4.34958 38.114 4.28624 38.076C4.22291 38.0253 4.16591 38 4.11524 38C4.05191 38 4.00758 38.0507 3.98224 38.152C3.95691 38.2407 3.94424 38.323 3.94424 38.399C3.93158 39.0197 3.91891 39.7353 3.90624 40.546C3.89358 41.3567 3.88091 42.1927 3.86824 43.054C3.85558 43.9153 3.84924 44.7387 3.84924 45.524C3.84924 45.866 3.93158 46.1827 4.09624 46.474C4.27358 46.7653 4.59658 46.9553 5.06524 47.044C5.28058 47.082 5.43891 47.1263 5.54024 47.177C5.64158 47.2277 5.69224 47.2973 5.69224 47.386C5.69224 47.462 5.64158 47.5127 5.54024 47.538C5.43891 47.576 5.30591 47.595 5.14124 47.595C4.79924 47.595 4.53958 47.5823 4.36224 47.557C4.19758 47.5443 4.04558 47.5317 3.90624 47.519C3.77958 47.5063 3.59591 47.5 3.35524 47.5C3.12724 47.5 2.94991 47.5063 2.82324 47.519C2.69658 47.5317 2.55091 47.5443 2.38624 47.557C2.22158 47.5823 1.96824 47.595 1.62624 47.595C1.46158 47.595 1.32858 47.576 1.22724 47.538C1.12591 47.5127 1.07524 47.462 1.07524 47.386C1.07524 47.2973 1.12591 47.2277 1.22724 47.177C1.32858 47.1263 1.48691 47.0757 1.70224 47.025C2.06958 46.9237 2.33558 46.74 2.50024 46.474C2.66491 46.1953 2.76624 45.8597 2.80424 45.467C2.85491 44.9857 2.90558 44.3523 2.95624 43.567C3.00691 42.769 3.05124 41.8823 3.08924 40.907C3.12724 39.919 3.14624 38.9057 3.14624 37.867C3.14624 37.1957 2.96891 36.7143 2.61424 36.423C2.27224 36.1317 1.82258 35.8973 1.26524 35.72C1.21458 35.6947 1.10058 35.644 0.923242 35.568C0.758576 35.4793 0.676242 35.378 0.676242 35.264C0.676242 35.15 0.733242 35.0803 0.847242 35.055C0.961242 35.017 1.04991 34.998 1.11324 34.998C1.48058 35.0107 1.77824 35.0233 2.00624 35.036C2.23424 35.036 2.43691 35.0423 2.61424 35.055C2.79158 35.0677 2.98791 35.0803 3.20324 35.093C3.41858 35.093 3.69724 35.093 4.03924 35.093C4.15324 35.093 4.24191 35.1247 4.30524 35.188C4.36858 35.2513 4.43191 35.3273 4.49524 35.416C4.54591 35.492 4.71058 35.7073 4.98924 36.062C5.28058 36.404 5.63524 36.841 6.05324 37.373C6.48391 37.8923 6.95258 38.4623 7.45924 39.083C7.96591 39.691 8.47258 40.3053 8.97924 40.926C9.48591 41.534 9.95458 42.104 10.3852 42.636C10.8159 43.1553 11.1706 43.586 11.4492 43.928C11.7406 44.27 11.9116 44.4727 11.9622 44.536C12.0129 44.5867 12.0826 44.6627 12.1712 44.764C12.2726 44.8653 12.3612 44.916 12.4372 44.916C12.5512 44.916 12.6146 44.783 12.6272 44.517C12.6272 44.3397 12.6272 44.004 12.6272 43.51C12.6399 43.0033 12.6462 42.3953 12.6462 41.686C12.6589 40.964 12.6652 40.185 12.6652 39.349C12.6652 38.513 12.6652 37.658 12.6652 36.784C12.6526 36.5307 12.5196 36.3027 12.2662 36.1C12.0129 35.8973 11.7786 35.777 11.5632 35.739C11.3479 35.701 11.1516 35.6503 10.9742 35.587C10.7969 35.5237 10.7082 35.4477 10.7082 35.359C10.7082 35.283 10.7969 35.2323 10.9742 35.207C11.1516 35.169 11.3226 35.15 11.4872 35.15C11.6139 35.15 11.7342 35.15 11.8482 35.15C11.9749 35.15 12.0952 35.15 12.2092 35.15C12.3359 35.15 12.4562 35.15 12.5702 35.15C12.8742 35.15 13.1149 35.15 13.2922 35.15C13.4696 35.1373 13.6596 35.1247 13.8622 35.112C14.0776 35.0993 14.3752 35.093 14.7552 35.093C14.9199 35.093 15.0529 35.112 15.1542 35.15C15.2556 35.1753 15.3062 35.226 15.3062 35.302C15.3062 35.4793 15.0972 35.606 14.6792 35.682C14.2106 35.7707 13.9002 35.8847 13.7482 36.024C13.5962 36.1633 13.5076 36.3913 13.4822 36.708C13.4822 36.7713 13.4759 37.0183 13.4632 37.449C13.4632 37.8797 13.4632 38.4243 13.4632 39.083C13.4632 39.7417 13.4569 40.451 13.4442 41.211C13.4442 41.971 13.4442 42.731 13.4442 43.491C13.4442 44.2383 13.4442 44.9097 13.4442 45.505C13.4442 45.809 13.4506 46.0877 13.4632 46.341C13.4886 46.5817 13.5076 46.7907 13.5202 46.968C13.5329 47.1327 13.5392 47.2593 13.5392 47.348C13.5392 47.5507 13.4949 47.6773 13.4062 47.728C13.3302 47.7913 13.2416 47.823 13.1402 47.823ZM16.7501 47.595C16.5854 47.595 16.4524 47.576 16.3511 47.538C16.2498 47.5127 16.1991 47.462 16.1991 47.386C16.1991 47.234 16.4081 47.12 16.8261 47.044C17.3074 46.9553 17.6621 46.8097 17.8901 46.607C18.1181 46.4043 18.2321 46.075 18.2321 45.619V37.069C18.2321 36.613 18.1371 36.29 17.9471 36.1C17.7698 35.91 17.4404 35.7707 16.9591 35.682C16.7438 35.644 16.5854 35.5933 16.4841 35.53C16.3828 35.4667 16.3321 35.3907 16.3321 35.302C16.3321 35.226 16.3828 35.1753 16.4841 35.15C16.5854 35.112 16.7184 35.093 16.8831 35.093C17.3644 35.093 17.7698 35.0993 18.0991 35.112C18.4411 35.1247 18.7704 35.1373 19.0871 35.15C19.4164 35.15 19.8028 35.15 20.2461 35.15C20.6641 35.15 21.1011 35.15 21.5571 35.15C22.0258 35.1373 22.4564 35.131 22.8491 35.131C23.2798 35.1183 23.6408 35.112 23.9321 35.112C24.2361 35.0993 24.4134 35.093 24.4641 35.093C24.5274 35.093 24.5971 35.1057 24.6731 35.131C24.7491 35.1563 24.7934 35.2007 24.8061 35.264C24.8694 35.6187 24.9328 35.9733 24.9961 36.328C25.0594 36.67 25.0911 36.9677 25.0911 37.221C25.0911 37.335 25.0594 37.411 24.9961 37.449C24.9454 37.487 24.8884 37.506 24.8251 37.506C24.7618 37.506 24.7174 37.4933 24.6921 37.468C24.6668 37.43 24.6414 37.3793 24.6161 37.316C24.5528 37.1007 24.4894 36.898 24.4261 36.708C24.3628 36.5053 24.2868 36.3597 24.1981 36.271C24.0208 36.0683 23.8244 35.9353 23.6091 35.872C23.3938 35.796 23.1658 35.758 22.9251 35.758H20.4361C20.3348 35.758 20.1954 35.815 20.0181 35.929C19.8408 36.043 19.7521 36.1887 19.7521 36.366V40.394C19.7521 40.508 19.7838 40.6093 19.8471 40.698C19.9231 40.774 20.0054 40.812 20.0941 40.812H21.9751C22.3424 40.812 22.5958 40.7487 22.7351 40.622C22.8744 40.4827 22.9884 40.2357 23.0771 39.881C23.1531 39.6023 23.2671 39.463 23.4191 39.463C23.4698 39.463 23.5204 39.4883 23.5711 39.539C23.6344 39.5897 23.6661 39.6657 23.6661 39.767C23.6661 39.8177 23.6598 39.9317 23.6471 40.109C23.6471 40.2863 23.6408 40.47 23.6281 40.66C23.6154 40.85 23.6091 40.9957 23.6091 41.097C23.6091 41.2237 23.6091 41.3947 23.6091 41.61C23.6218 41.8127 23.6281 42.009 23.6281 42.199C23.6408 42.389 23.6471 42.5093 23.6471 42.56C23.6471 42.6487 23.6344 42.7247 23.6091 42.788C23.5964 42.8513 23.5521 42.883 23.4761 42.883C23.2861 42.883 23.1404 42.6803 23.0391 42.275C22.9631 41.9837 22.8618 41.7683 22.7351 41.629C22.6084 41.4897 22.4184 41.42 22.1651 41.42H20.3981C20.1828 41.42 20.0181 41.4517 19.9041 41.515C19.8028 41.5657 19.7521 41.6987 19.7521 41.914V45.562C19.7521 46.0433 19.8534 46.379 20.0561 46.569C20.2588 46.7463 20.5754 46.835 21.0061 46.835H22.4121C22.8174 46.835 23.1531 46.816 23.4191 46.778C23.6978 46.7273 23.9384 46.6387 24.1411 46.512C24.3438 46.3727 24.5211 46.189 24.6731 45.961C24.8378 45.733 25.0214 45.429 25.2241 45.049C25.2621 44.973 25.3064 44.9097 25.3571 44.859C25.4078 44.8083 25.4648 44.7893 25.5281 44.802C25.5914 44.8147 25.6421 44.8463 25.6801 44.897C25.7181 44.935 25.7371 44.992 25.7371 45.068C25.7371 45.182 25.7054 45.3847 25.6421 45.676C25.5788 45.9547 25.4964 46.246 25.3951 46.55C25.3064 46.854 25.2241 47.0947 25.1481 47.272C25.1101 47.3607 25.0721 47.4367 25.0341 47.5C25.0088 47.5633 24.9581 47.595 24.8821 47.595C24.2741 47.595 23.7104 47.5887 23.1911 47.576C22.6718 47.5633 22.1778 47.5507 21.7091 47.538C21.2404 47.5253 20.7781 47.5127 20.3221 47.5C19.8788 47.4873 19.4164 47.481 18.9351 47.481C18.6564 47.481 18.4158 47.4873 18.2131 47.5C18.0104 47.5253 17.8014 47.5443 17.5861 47.557C17.3708 47.5823 17.0921 47.595 16.7501 47.595ZM32.5857 47.804C32.5604 47.804 32.5224 47.747 32.4717 47.633C32.421 47.519 32.3704 47.3987 32.3197 47.272L28.2157 36.974C28.0637 36.6447 27.88 36.3787 27.6647 36.176C27.4494 35.9607 27.177 35.8087 26.8477 35.72C26.645 35.6567 26.4867 35.5933 26.3727 35.53C26.2714 35.4667 26.2207 35.3907 26.2207 35.302C26.2207 35.226 26.2714 35.1753 26.3727 35.15C26.474 35.112 26.607 35.093 26.7717 35.093C27.063 35.093 27.3354 35.1057 27.5887 35.131C27.8547 35.1437 28.146 35.15 28.4627 35.15C28.8174 35.15 29.153 35.1437 29.4697 35.131C29.7864 35.1183 30.0397 35.112 30.2297 35.112C30.3944 35.112 30.5274 35.131 30.6287 35.169C30.73 35.1943 30.7807 35.245 30.7807 35.321C30.7807 35.4097 30.73 35.4793 30.6287 35.53C30.5274 35.5807 30.369 35.6377 30.1537 35.701C30.0017 35.739 29.9004 35.8213 29.8497 35.948C29.799 36.062 29.7737 36.1887 29.7737 36.328C29.7737 36.5307 29.799 36.7207 29.8497 36.898C29.9004 37.0627 29.9257 37.145 29.9257 37.145C30.217 37.8797 30.483 38.551 30.7237 39.159C30.9644 39.767 31.1987 40.356 31.4267 40.926C31.6674 41.4833 31.9144 42.0597 32.1677 42.655C32.4337 43.2377 32.725 43.89 33.0417 44.612C33.105 44.7513 33.1557 44.8147 33.1937 44.802C33.2444 44.7893 33.2887 44.7323 33.3267 44.631L34.8087 40.964C34.8467 40.8627 34.872 40.7803 34.8847 40.717C34.91 40.641 34.9227 40.5777 34.9227 40.527C34.9227 40.451 34.91 40.375 34.8847 40.299C34.8594 40.2103 34.8214 40.1027 34.7707 39.976L33.6877 37.278C33.523 36.8727 33.2634 36.537 32.9087 36.271C32.554 35.9923 32.212 35.8087 31.8827 35.72C31.68 35.6567 31.5217 35.5933 31.4077 35.53C31.3064 35.4667 31.2557 35.3907 31.2557 35.302C31.2557 35.226 31.3064 35.1753 31.4077 35.15C31.509 35.112 31.642 35.093 31.8067 35.093C32.0094 35.093 32.1994 35.0993 32.3767 35.112C32.5667 35.1247 32.7567 35.1373 32.9467 35.15C33.1494 35.15 33.3647 35.15 33.5927 35.15C33.884 35.15 34.15 35.1437 34.3907 35.131C34.644 35.1183 34.8657 35.112 35.0557 35.112C35.2204 35.112 35.3534 35.131 35.4547 35.169C35.556 35.1943 35.6067 35.245 35.6067 35.321C35.6067 35.4223 35.5434 35.5047 35.4167 35.568C35.29 35.6313 35.157 35.701 35.0177 35.777C34.891 35.853 34.8277 35.967 34.8277 36.119C34.8277 36.1443 34.8277 36.1697 34.8277 36.195C34.8404 36.2203 34.853 36.2457 34.8657 36.271C34.891 36.3217 34.9354 36.4483 34.9987 36.651C35.0747 36.841 35.157 37.0563 35.2457 37.297C35.347 37.5377 35.442 37.7657 35.5307 37.981C35.6194 38.1837 35.6827 38.3293 35.7207 38.418C35.784 38.57 35.8347 38.6523 35.8727 38.665C35.9234 38.665 35.9867 38.5827 36.0627 38.418C36.164 38.19 36.2654 37.9303 36.3667 37.639C36.4807 37.3477 36.5757 37.0753 36.6517 36.822C36.7404 36.556 36.7974 36.3723 36.8227 36.271C36.8354 36.233 36.8417 36.1887 36.8417 36.138C36.8417 35.986 36.7847 35.872 36.6707 35.796C36.5567 35.72 36.4364 35.6503 36.3097 35.587C36.1957 35.511 36.1387 35.4223 36.1387 35.321C36.1387 35.245 36.1894 35.1943 36.2907 35.169C36.392 35.131 36.525 35.112 36.6897 35.112C36.9684 35.112 37.1584 35.1183 37.2597 35.131C37.361 35.1437 37.5004 35.15 37.6777 35.15C37.893 35.15 38.0767 35.1437 38.2287 35.131C38.3807 35.1057 38.5707 35.093 38.7987 35.093C38.9634 35.093 39.0964 35.112 39.1977 35.15C39.299 35.1753 39.3497 35.226 39.3497 35.302C39.3497 35.3907 39.299 35.4667 39.1977 35.53C39.0964 35.5807 38.938 35.6313 38.7227 35.682C38.3174 35.7707 38.0387 35.8783 37.8867 36.005C37.7474 36.1317 37.5954 36.328 37.4307 36.594C37.3674 36.708 37.2724 36.898 37.1457 37.164C37.0317 37.43 36.905 37.7213 36.7657 38.038C36.639 38.3547 36.525 38.6523 36.4237 38.931C36.3857 39.0197 36.3477 39.1463 36.3097 39.311C36.2844 39.4757 36.2844 39.5897 36.3097 39.653L38.2667 44.688C38.292 44.7513 38.3237 44.7703 38.3617 44.745C38.3997 44.7197 38.4377 44.6627 38.4757 44.574C38.7924 43.738 39.147 42.6677 39.5397 41.363C39.945 40.0583 40.363 38.6777 40.7937 37.221C40.8317 37.107 40.857 36.993 40.8697 36.879C40.895 36.7523 40.9077 36.6383 40.9077 36.537C40.9077 36.347 40.8634 36.176 40.7747 36.024C40.6987 35.872 40.553 35.7707 40.3377 35.72C40.211 35.682 40.0717 35.6313 39.9197 35.568C39.7804 35.5047 39.7107 35.4287 39.7107 35.34C39.7107 35.264 39.7614 35.2133 39.8627 35.188C39.964 35.15 40.097 35.131 40.2617 35.131C40.515 35.131 40.743 35.1373 40.9457 35.15C41.161 35.15 41.389 35.15 41.6297 35.15C41.9464 35.15 42.2504 35.1437 42.5417 35.131C42.833 35.1057 43.099 35.093 43.3397 35.093C43.5044 35.093 43.6374 35.112 43.7387 35.15C43.84 35.1753 43.8907 35.226 43.8907 35.302C43.8907 35.3907 43.84 35.4667 43.7387 35.53C43.6374 35.5807 43.479 35.6313 43.2637 35.682C42.9597 35.7453 42.7 35.8783 42.4847 36.081C42.282 36.271 42.1174 36.4863 41.9907 36.727C41.8767 36.955 41.7817 37.164 41.7057 37.354L38.3427 47.291C38.33 47.3417 38.292 47.424 38.2287 47.538C38.1654 47.6647 38.102 47.728 38.0387 47.728C37.988 47.728 37.931 47.69 37.8677 47.614C37.8044 47.538 37.7537 47.4557 37.7157 47.367C37.3864 46.607 37.1014 45.9293 36.8607 45.334C36.62 44.726 36.3857 44.118 36.1577 43.51C35.9424 42.902 35.6827 42.2307 35.3787 41.496C35.3407 41.4073 35.309 41.3757 35.2837 41.401C35.2584 41.4137 35.2204 41.4833 35.1697 41.61C34.8657 42.332 34.5997 42.9717 34.3717 43.529C34.1564 44.0863 33.941 44.6563 33.7257 45.239C33.5104 45.809 33.2697 46.4677 33.0037 47.215C32.953 47.3417 32.8897 47.4683 32.8137 47.595C32.7377 47.7343 32.6617 47.804 32.5857 47.804ZM48.4737 47.595C48.309 47.595 48.176 47.5697 48.0747 47.519C47.986 47.481 47.9417 47.4303 47.9417 47.367C47.9417 47.253 47.9987 47.177 48.1127 47.139C48.2394 47.0883 48.3217 47.0567 48.3597 47.044C48.8537 46.9427 49.2337 46.797 49.4997 46.607C49.7657 46.4043 49.8987 46.094 49.8987 45.676V36.86C49.8987 36.556 49.867 36.3343 49.8037 36.195C49.7404 36.043 49.6264 35.9353 49.4617 35.872C49.297 35.796 49.0564 35.7327 48.7397 35.682C48.3217 35.606 48.1127 35.4793 48.1127 35.302C48.1127 35.226 48.1634 35.1753 48.2647 35.15C48.366 35.112 48.499 35.093 48.6637 35.093C49.0057 35.093 49.278 35.0993 49.4807 35.112C49.696 35.1247 49.8987 35.1373 50.0887 35.15C50.2787 35.15 50.513 35.15 50.7917 35.15C51.1084 35.15 51.3807 35.15 51.6087 35.15C51.8367 35.1373 52.071 35.1247 52.3117 35.112C52.5524 35.0993 52.8437 35.093 53.1857 35.093C53.3504 35.093 53.4834 35.112 53.5847 35.15C53.686 35.1753 53.7367 35.226 53.7367 35.302C53.7367 35.3907 53.686 35.4667 53.5847 35.53C53.4834 35.5933 53.325 35.644 53.1097 35.682C52.641 35.7707 52.242 35.8783 51.9127 36.005C51.5834 36.119 51.4187 36.3597 51.4187 36.727V45.676C51.4187 46.0687 51.5074 46.36 51.6847 46.55C51.862 46.74 52.261 46.835 52.8817 46.835H55.2377C55.5797 46.835 55.8774 46.7843 56.1307 46.683C56.3967 46.569 56.593 46.455 56.7197 46.341C56.973 46.1257 57.1567 45.9357 57.2707 45.771C57.3974 45.5937 57.543 45.334 57.7077 44.992C57.733 44.916 57.7837 44.802 57.8597 44.65C57.9484 44.498 58.037 44.422 58.1257 44.422C58.2017 44.422 58.2587 44.46 58.2967 44.536C58.3347 44.612 58.3537 44.688 58.3537 44.764C58.3537 44.7767 58.3474 44.7957 58.3347 44.821C58.3347 44.8337 58.3347 44.8463 58.3347 44.859C58.246 45.1883 58.1637 45.486 58.0877 45.752C58.0244 46.018 57.9674 46.2713 57.9167 46.512C57.8787 46.7527 57.847 47.006 57.8217 47.272C57.809 47.3607 57.7837 47.4367 57.7457 47.5C57.7204 47.5633 57.657 47.595 57.5557 47.595C56.9224 47.595 56.3144 47.5887 55.7317 47.576C55.149 47.5633 54.5854 47.5507 54.0407 47.538C53.5087 47.538 52.9957 47.5317 52.5017 47.519C52.0077 47.5063 51.52 47.5 51.0387 47.5C50.722 47.5 50.361 47.5063 49.9557 47.519C49.563 47.5317 49.2147 47.5443 48.9107 47.557C48.6194 47.5823 48.4737 47.595 48.4737 47.595ZM59.0374 47.595C58.8727 47.595 58.7397 47.5697 58.6384 47.519C58.5371 47.481 58.4864 47.424 58.4864 47.348C58.4864 47.2593 58.5371 47.1833 58.6384 47.12C58.7524 47.044 58.9107 46.9743 59.1134 46.911C59.4427 46.8097 59.7467 46.6577 60.0254 46.455C60.3041 46.2523 60.5447 45.9167 60.7474 45.448C61.1021 44.6373 61.4251 43.8773 61.7164 43.168C62.0204 42.4587 62.3054 41.762 62.5714 41.078C62.8374 40.394 63.1097 39.6847 63.3884 38.95C63.6797 38.2027 63.9837 37.392 64.3004 36.518C64.3637 36.3407 64.4207 36.1633 64.4714 35.986C64.5221 35.8087 64.5537 35.6187 64.5664 35.416C64.6804 35.378 64.7944 35.34 64.9084 35.302C65.0224 35.264 65.1364 35.207 65.2504 35.131C65.3644 35.055 65.4404 34.941 65.4784 34.789C65.5291 34.637 65.5734 34.5357 65.6114 34.485C65.6241 34.4723 65.6367 34.466 65.6494 34.466C65.6747 34.466 65.6937 34.4787 65.7064 34.504C65.7317 34.5547 65.7507 34.618 65.7634 34.694C65.7887 34.77 65.8141 34.846 65.8394 34.922C66.1434 35.8847 66.4601 36.8663 66.7894 37.867C67.1187 38.8677 67.4354 39.8367 67.7394 40.774C68.0561 41.6987 68.3411 42.5347 68.5944 43.282C68.8604 44.0167 69.0694 44.612 69.2214 45.068C69.3987 45.5747 69.5887 45.9547 69.7914 46.208C69.9941 46.4613 70.2031 46.6387 70.4184 46.74C70.6464 46.8413 70.8871 46.9173 71.1404 46.968C71.3557 47.006 71.5141 47.0693 71.6154 47.158C71.7167 47.234 71.7674 47.3163 71.7674 47.405C71.7674 47.481 71.7167 47.5317 71.6154 47.557C71.5141 47.5823 71.3811 47.595 71.2164 47.595C71.0391 47.595 70.7984 47.5823 70.4944 47.557C70.1904 47.5443 69.8674 47.5253 69.5254 47.5C69.1834 47.4873 68.8667 47.481 68.5754 47.481C68.3347 47.481 68.0877 47.481 67.8344 47.481C67.5811 47.481 67.3467 47.4873 67.1314 47.5C66.9161 47.5 66.7324 47.5 66.5804 47.5C66.4157 47.5 66.2827 47.481 66.1814 47.443C66.0801 47.405 66.0294 47.348 66.0294 47.272C66.0294 47.1833 66.0927 47.1073 66.2194 47.044C66.3461 46.9807 66.4917 46.9363 66.6564 46.911C67.0744 46.8477 67.3721 46.74 67.5494 46.588C67.7267 46.436 67.8154 46.2587 67.8154 46.056C67.8154 45.866 67.7711 45.5937 67.6824 45.239C67.6064 44.8717 67.5114 44.4853 67.3974 44.08C67.2834 43.662 67.1757 43.2947 67.0744 42.978C67.0491 42.8767 66.9984 42.8197 66.9224 42.807C66.8591 42.7817 66.7387 42.769 66.5614 42.769H62.9704C62.9197 42.769 62.8627 42.7943 62.7994 42.845C62.7487 42.883 62.6981 42.9717 62.6474 43.111C62.6094 43.2377 62.5461 43.4403 62.4574 43.719C62.3687 43.985 62.2801 44.27 62.1914 44.574C62.1027 44.878 62.0267 45.1503 61.9634 45.391C61.9001 45.6317 61.8684 45.7837 61.8684 45.847C61.8684 46.1257 61.9761 46.36 62.1914 46.55C62.4067 46.7273 62.6664 46.854 62.9704 46.93C63.3884 47.044 63.5974 47.1707 63.5974 47.31C63.5974 47.386 63.5467 47.443 63.4454 47.481C63.3441 47.5063 63.2111 47.519 63.0464 47.519C62.8817 47.519 62.6411 47.5127 62.3244 47.5C62.0077 47.4873 61.6721 47.481 61.3174 47.481C60.8994 47.481 60.4941 47.5 60.1014 47.538C59.7087 47.576 59.3541 47.595 59.0374 47.595ZM63.4834 42.142H66.4284C66.6057 42.142 66.6944 42.1103 66.6944 42.047C66.6944 42.0217 66.6881 41.9963 66.6754 41.971C66.6754 41.933 66.6691 41.895 66.6564 41.857L65.1744 37.221C65.0984 36.993 65.0414 36.879 65.0034 36.879C64.9781 36.879 64.9274 36.9867 64.8514 37.202L63.1224 41.857C63.0971 41.933 63.0844 41.9837 63.0844 42.009C63.0844 42.0723 63.1161 42.1103 63.1794 42.123C63.2554 42.1357 63.3567 42.142 63.4834 42.142ZM84.3717 47.823C84.2577 47.823 84.0297 47.728 83.6877 47.538C83.3584 47.348 83.0417 47.044 82.7377 46.626C82.687 46.5627 82.5287 46.3727 82.2627 46.056C82.0094 45.7393 81.68 45.3467 81.2747 44.878C80.882 44.3967 80.4514 43.8773 79.9827 43.32C79.514 42.7627 79.0454 42.2053 78.5767 41.648C78.108 41.0907 77.671 40.5777 77.2657 40.109C76.8604 39.6277 76.5184 39.2287 76.2397 38.912C75.9737 38.5827 75.809 38.38 75.7457 38.304C75.657 38.19 75.581 38.114 75.5177 38.076C75.4544 38.0253 75.3974 38 75.3467 38C75.2834 38 75.239 38.0507 75.2137 38.152C75.1884 38.2407 75.1757 38.323 75.1757 38.399C75.163 39.0197 75.1504 39.7353 75.1377 40.546C75.125 41.3567 75.1124 42.1927 75.0997 43.054C75.087 43.9153 75.0807 44.7387 75.0807 45.524C75.0807 45.866 75.163 46.1827 75.3277 46.474C75.505 46.7653 75.828 46.9553 76.2967 47.044C76.512 47.082 76.6704 47.1263 76.7717 47.177C76.873 47.2277 76.9237 47.2973 76.9237 47.386C76.9237 47.462 76.873 47.5127 76.7717 47.538C76.6704 47.576 76.5374 47.595 76.3727 47.595C76.0307 47.595 75.771 47.5823 75.5937 47.557C75.429 47.5443 75.277 47.5317 75.1377 47.519C75.011 47.5063 74.8274 47.5 74.5867 47.5C74.3587 47.5 74.1814 47.5063 74.0547 47.519C73.928 47.5317 73.7824 47.5443 73.6177 47.557C73.453 47.5823 73.1997 47.595 72.8577 47.595C72.693 47.595 72.56 47.576 72.4587 47.538C72.3574 47.5127 72.3067 47.462 72.3067 47.386C72.3067 47.2973 72.3574 47.2277 72.4587 47.177C72.56 47.1263 72.7184 47.0757 72.9337 47.025C73.301 46.9237 73.567 46.74 73.7317 46.474C73.8964 46.1953 73.9977 45.8597 74.0357 45.467C74.0864 44.9857 74.137 44.3523 74.1877 43.567C74.2384 42.769 74.2827 41.8823 74.3207 40.907C74.3587 39.919 74.3777 38.9057 74.3777 37.867C74.3777 37.1957 74.2004 36.7143 73.8457 36.423C73.5037 36.1317 73.054 35.8973 72.4967 35.72C72.446 35.6947 72.332 35.644 72.1547 35.568C71.99 35.4793 71.9077 35.378 71.9077 35.264C71.9077 35.15 71.9647 35.0803 72.0787 35.055C72.1927 35.017 72.2814 34.998 72.3447 34.998C72.712 35.0107 73.0097 35.0233 73.2377 35.036C73.4657 35.036 73.6684 35.0423 73.8457 35.055C74.023 35.0677 74.2194 35.0803 74.4347 35.093C74.65 35.093 74.9287 35.093 75.2707 35.093C75.3847 35.093 75.4734 35.1247 75.5367 35.188C75.6 35.2513 75.6634 35.3273 75.7267 35.416C75.7774 35.492 75.942 35.7073 76.2207 36.062C76.512 36.404 76.8667 36.841 77.2847 37.373C77.7154 37.8923 78.184 38.4623 78.6907 39.083C79.1974 39.691 79.704 40.3053 80.2107 40.926C80.7174 41.534 81.186 42.104 81.6167 42.636C82.0474 43.1553 82.402 43.586 82.6807 43.928C82.972 44.27 83.143 44.4727 83.1937 44.536C83.2444 44.5867 83.314 44.6627 83.4027 44.764C83.504 44.8653 83.5927 44.916 83.6687 44.916C83.7827 44.916 83.846 44.783 83.8587 44.517C83.8587 44.3397 83.8587 44.004 83.8587 43.51C83.8714 43.0033 83.8777 42.3953 83.8777 41.686C83.8904 40.964 83.8967 40.185 83.8967 39.349C83.8967 38.513 83.8967 37.658 83.8967 36.784C83.884 36.5307 83.751 36.3027 83.4977 36.1C83.2444 35.8973 83.01 35.777 82.7947 35.739C82.5794 35.701 82.383 35.6503 82.2057 35.587C82.0284 35.5237 81.9397 35.4477 81.9397 35.359C81.9397 35.283 82.0284 35.2323 82.2057 35.207C82.383 35.169 82.554 35.15 82.7187 35.15C82.8454 35.15 82.9657 35.15 83.0797 35.15C83.2064 35.15 83.3267 35.15 83.4407 35.15C83.5674 35.15 83.6877 35.15 83.8017 35.15C84.1057 35.15 84.3464 35.15 84.5237 35.15C84.701 35.1373 84.891 35.1247 85.0937 35.112C85.309 35.0993 85.6067 35.093 85.9867 35.093C86.1514 35.093 86.2844 35.112 86.3857 35.15C86.487 35.1753 86.5377 35.226 86.5377 35.302C86.5377 35.4793 86.3287 35.606 85.9107 35.682C85.442 35.7707 85.1317 35.8847 84.9797 36.024C84.8277 36.1633 84.739 36.3913 84.7137 36.708C84.7137 36.7713 84.7074 37.0183 84.6947 37.449C84.6947 37.8797 84.6947 38.4243 84.6947 39.083C84.6947 39.7417 84.6884 40.451 84.6757 41.211C84.6757 41.971 84.6757 42.731 84.6757 43.491C84.6757 44.2383 84.6757 44.9097 84.6757 45.505C84.6757 45.809 84.682 46.0877 84.6947 46.341C84.72 46.5817 84.739 46.7907 84.7517 46.968C84.7644 47.1327 84.7707 47.2593 84.7707 47.348C84.7707 47.5507 84.7264 47.6773 84.6377 47.728C84.5617 47.7913 84.473 47.823 84.3717 47.823ZM93.7765 47.633C93.6499 47.633 93.3649 47.6203 92.9215 47.595C92.4909 47.5697 91.9905 47.5443 91.4205 47.519C90.8632 47.5063 90.3312 47.5 89.8245 47.5C89.5712 47.5 89.3559 47.5063 89.1785 47.519C89.0139 47.5317 88.8302 47.5443 88.6275 47.557C88.4375 47.5823 88.1715 47.595 87.8295 47.595C87.6649 47.595 87.5319 47.576 87.4305 47.538C87.3292 47.5 87.2785 47.4367 87.2785 47.348C87.2785 47.2467 87.3292 47.1833 87.4305 47.158C87.5319 47.12 87.6902 47.082 87.9055 47.044C88.3869 46.9553 88.7162 46.8097 88.8935 46.607C89.0835 46.4043 89.1785 46.075 89.1785 45.619V37.069C89.1785 36.613 89.0835 36.29 88.8935 36.1C88.7162 35.91 88.3869 35.7707 87.9055 35.682C87.6902 35.644 87.5319 35.606 87.4305 35.568C87.3292 35.5173 87.2785 35.4413 87.2785 35.34C87.2785 35.2513 87.3292 35.188 87.4305 35.15C87.5319 35.112 87.6649 35.093 87.8295 35.093C88.1589 35.093 88.4185 35.0993 88.6085 35.112C88.8112 35.112 89.0075 35.1183 89.1975 35.131C89.3875 35.131 89.6345 35.131 89.9385 35.131C90.1412 35.131 90.3945 35.1247 90.6985 35.112C91.0152 35.0993 91.3382 35.0803 91.6675 35.055C92.0095 35.0297 92.3135 35.0107 92.5795 34.998C92.8582 34.9853 93.0609 34.979 93.1875 34.979C94.4795 34.979 95.5815 35.1373 96.4935 35.454C97.4055 35.758 98.1465 36.1887 98.7165 36.746C99.2865 37.2907 99.7045 37.9303 99.9705 38.665C100.249 39.387 100.389 40.166 100.389 41.002C100.389 41.914 100.218 42.769 99.8755 43.567C99.5335 44.365 99.0585 45.0743 98.4505 45.695C97.8425 46.303 97.1395 46.778 96.3415 47.12C95.5435 47.462 94.6885 47.633 93.7765 47.633ZM93.5485 46.968C94.5365 46.968 95.4105 46.7273 96.1705 46.246C96.9305 45.7647 97.5195 45.0997 97.9375 44.251C98.3682 43.4023 98.5835 42.427 98.5835 41.325C98.5835 40.413 98.4315 39.6023 98.1275 38.893C97.8235 38.171 97.4182 37.5693 96.9115 37.088C96.4049 36.594 95.8349 36.2203 95.2015 35.967C94.5682 35.701 93.9285 35.568 93.2825 35.568C92.7379 35.568 92.2692 35.587 91.8765 35.625C91.4965 35.6503 91.2052 35.7453 91.0025 35.91C90.7999 36.0747 90.6985 36.347 90.6985 36.727V45.201C90.6985 45.7077 90.8379 46.0877 91.1165 46.341C91.3952 46.5943 91.7499 46.7653 92.1805 46.854C92.6239 46.93 93.0799 46.968 93.5485 46.968Z" fill="white"/>
</svg>
