<svg width="84" height="84" fill="none" xmlns="http://www.w3.org/2000/svg"><path d="M4.972 47.595c-.165 0-.298-.019-.399-.057-.101-.025-.152-.076-.152-.152 0-.089.05-.158.152-.209.101-.05.26-.095.475-.133.481-.089.849-.26 1.102-.513.253-.266.38-.627.38-1.083v-2.812c0-.253-.07-.526-.209-.817a6.698 6.698 0 0 0-.266-.589l-2.223-3.648a8.782 8.782 0 0 0-.418-.627 6.249 6.249 0 0 0-.627-.779c-.215-.24-.43-.393-.646-.456a2.617 2.617 0 0 1-.475-.19c-.101-.063-.152-.14-.152-.228 0-.076.05-.127.152-.152.101-.038.234-.057.4-.057.29 0 .626.013 1.006.038.38.013.785.019 1.216.019.291 0 .564-.006.817-.019.266-.013.5-.019.703-.019.165 0 .298.019.4.057.1.025.151.076.151.152 0 .089-.05.165-.152.228a2.33 2.33 0 0 1-.475.152 2.1 2.1 0 0 0-.437.171.322.322 0 0 0-.17.304c0 .165.081.393.246.684l1.748 3.23c.253.481.43.722.532.722.076 0 .158-.05.247-.152.089-.114.215-.304.38-.57.291-.443.551-.868.78-1.273.227-.405.5-.893.816-1.463.127-.215.215-.399.266-.551a1.47 1.47 0 0 0 .076-.418c0-.24-.088-.405-.266-.494a1.531 1.531 0 0 0-.513-.171 2.245 2.245 0 0 1-.418-.133c-.14-.076-.209-.158-.209-.247 0-.076.05-.127.152-.152.101-.038.234-.057.4-.057.29 0 .531.006.721.019h.703c.393 0 .767-.006 1.121-.019.355-.025.64-.038.855-.038.165 0 .298.019.4.057.1.025.151.076.151.152 0 .089-.101.171-.304.247a9.292 9.292 0 0 1-.703.228c-.33.089-.608.272-.836.551-.215.266-.494.659-.836 1.178a81.05 81.05 0 0 1-.646.988c-.165.266-.323.513-.475.741-.14.228-.285.469-.437.722-.152.24-.336.538-.55.893a4.148 4.148 0 0 0-.343.646 1.724 1.724 0 0 0-.114.475 6.94 6.94 0 0 0-.019.589v2.888c0 .43.133.785.4 1.064.265.266.632.443 1.101.532.215.038.374.082.475.133.101.05.152.12.152.209 0 .076-.05.127-.152.152a1.159 1.159 0 0 1-.399.057c-.342 0-.627-.013-.855-.038l-.627-.038a16.088 16.088 0 0 0-1.577 0l-.722.038c-.24.025-.532.038-.874.038zm14.595.171c-1.128 0-2.072-.196-2.832-.589-.76-.405-1.33-.969-1.71-1.691-.38-.735-.57-1.583-.57-2.546v-5.833c0-.456-.095-.785-.284-.988-.178-.215-.374-.348-.59-.399-.417-.114-.627-.253-.627-.418 0-.076.051-.127.152-.152.102-.038.235-.057.4-.057.29 0 .576.013.854.038a22.416 22.416 0 0 0 1.787 0c.266-.013.5-.019.703-.019.164 0 .297.019.398.057.102.025.152.076.152.152 0 .089-.05.158-.151.209-.102.05-.26.108-.476.171-.151.05-.322.196-.512.437-.19.24-.285.551-.285.931v5.339c0 1.013.17 1.85.512 2.508.343.646.811 1.127 1.407 1.444.608.304 1.298.456 2.07.456 1.305 0 2.262-.45 2.87-1.349.607-.912.912-2.109.912-3.591 0-.279-.007-.646-.02-1.102 0-.456-.006-.944-.018-1.463l-.038-1.52c0-.33-.032-.64-.095-.931a2.315 2.315 0 0 0-.248-.741c-.113-.215-.26-.348-.436-.399a4.358 4.358 0 0 1-.418-.152c-.14-.063-.21-.14-.21-.228 0-.076.051-.127.152-.152.102-.038.235-.057.4-.057.29 0 .532.006.722.019h1.273l.512-.038a5.96 5.96 0 0 1 .456-.019c.165 0 .298.019.4.057.1.025.152.076.152.152 0 .165-.21.291-.628.38-.329.063-.563.222-.703.475-.139.253-.221.57-.247.95-.063 1.09-.107 2.084-.133 2.983-.012.9-.031 1.786-.056 2.66-.026.975-.26 1.843-.704 2.603a4.832 4.832 0 0 1-1.785 1.786c-.735.418-1.571.627-2.508.627zm19.062.133a5.13 5.13 0 0 1-1.007-.095 2.562 2.562 0 0 1-.874-.304 2.833 2.833 0 0 1-.741-.627c-.304-.38-.596-.741-.874-1.083-.279-.355-.577-.76-.893-1.216a72.988 72.988 0 0 1-1.121-1.748 1.936 1.936 0 0 0-.817-.741 3.116 3.116 0 0 0-.836-.285 4.307 4.307 0 0 0-.665-.114c-.101-.013-.177.019-.228.095a.634.634 0 0 0-.057.285v3.344c0 .405.095.76.285 1.064.19.291.52.481.988.57.215.038.373.082.475.133.101.05.152.12.152.209 0 .076-.05.127-.152.152a1.159 1.159 0 0 1-.4.057c-.341 0-.607-.013-.797-.038a8.57 8.57 0 0 0-.494-.057 3.35 3.35 0 0 0-.57-.038c-.317 0-.602.013-.855.038-.24.013-.488.032-.741.057-.24.025-.532.038-.874.038-.165 0-.298-.019-.4-.057-.1-.025-.151-.076-.151-.152 0-.152.209-.266.627-.342.481-.089.83-.234 1.045-.437.228-.203.342-.538.342-1.007v-8.094c0-.481-.025-.842-.076-1.083-.038-.253-.14-.43-.304-.532-.152-.101-.412-.171-.78-.209-.214-.025-.373-.07-.474-.133-.101-.076-.152-.158-.152-.247 0-.076.05-.127.152-.152.101-.038.234-.057.399-.057h.76c.177 0 .342.006.494.019h.608c.24 0 .456-.006.646-.019.19-.025.399-.044.627-.057.24-.013.544-.019.912-.019 1.393 0 2.45.26 3.173.779.734.52 1.102 1.298 1.102 2.337 0 .57-.114 1.064-.342 1.482a3.557 3.557 0 0 1-.855 1.026 5.68 5.68 0 0 1-1.045.684c-.05.013-.076.044-.076.095a.827.827 0 0 0 .076.152c.392.595.766 1.159 1.12 1.691a19.6 19.6 0 0 0 1.198 1.558c.43.507.944 1.032 1.539 1.577.33.291.665.469 1.007.532.342.063.735.095 1.178.095.19 0 .285.07.285.209 0 .19-.095.33-.285.418-.19.101-.406.165-.646.19-.24.038-.444.057-.608.057zm-7.106-6.65c.582 0 1.083-.133 1.5-.399.431-.266.76-.614.989-1.045.24-.43.36-.887.36-1.368 0-.52-.069-.994-.208-1.425a1.774 1.774 0 0 0-.798-1.026c-.393-.266-.988-.399-1.786-.399-.405 0-.671.133-.798.399-.127.253-.203.71-.228 1.368-.013.317-.025.747-.038 1.292v1.938c0 .317.089.507.266.57.177.063.424.095.74.095zm15.71 6.517a6.632 6.632 0 0 1-2.393-.437 6.401 6.401 0 0 1-2.014-1.273 6.256 6.256 0 0 1-1.387-1.976c-.342-.773-.513-1.628-.513-2.565 0-.861.14-1.685.418-2.47a6.384 6.384 0 0 1 1.235-2.128 5.902 5.902 0 0 1 2.033-1.482c.81-.367 1.741-.551 2.793-.551.836 0 1.634.152 2.394.456a5.98 5.98 0 0 1 2.014 1.273 5.983 5.983 0 0 1 1.387 1.976c.342.76.513 1.609.513 2.546 0 .849-.14 1.672-.418 2.47a6.384 6.384 0 0 1-1.235 2.128 5.902 5.902 0 0 1-2.033 1.482c-.81.367-1.742.551-2.793.551zm.286-.76c.975 0 1.786-.203 2.432-.608a3.797 3.797 0 0 0 1.444-1.729c.33-.747.494-1.615.494-2.603 0-.874-.102-1.697-.304-2.47a6.345 6.345 0 0 0-.912-2.033 4.19 4.19 0 0 0-1.482-1.387c-.596-.33-1.292-.494-2.09-.494-.95 0-1.748.203-2.394.608-.646.405-1.134.975-1.463 1.71-.33.722-.494 1.577-.494 2.565 0 .887.095 1.716.285 2.489.203.773.5 1.457.893 2.052a4.538 4.538 0 0 0 1.5 1.406c.596.33 1.293.494 2.09.494zm8.183.589c-.165 0-.298-.019-.399-.057-.101-.025-.152-.076-.152-.152 0-.152.209-.266.627-.342.481-.089.81-.234.988-.437.19-.215.285-.557.285-1.026v-8.55c0-.443-.095-.754-.285-.931-.177-.19-.507-.33-.988-.418-.418-.076-.627-.203-.627-.38 0-.076.05-.127.152-.152.101-.038.234-.057.399-.057.342 0 .614.006.817.019.215 0 .418.006.608.019H58.4c.152-.013.317-.019.494-.019.177-.013.437-.019.779-.019.165 0 .298.019.399.057.101.025.152.076.152.152 0 .089-.05.165-.152.228-.101.063-.26.114-.475.152-.469.089-.76.247-.874.475-.101.215-.152.507-.152.874v3.781c.013.089.044.133.095.133.063 0 .146-.038.247-.114.114-.076.203-.152.266-.228l3.8-3.876a.954.954 0 0 0 .209-.285.64.64 0 0 0 .076-.285c0-.228-.12-.374-.361-.437a2.34 2.34 0 0 1-.456-.171c-.089-.05-.133-.12-.133-.209 0-.076.05-.127.152-.152.101-.038.234-.057.399-.057h1.026c.367 0 .773-.006 1.216-.019.443-.013.842-.025 1.197-.038.367-.013.589-.019.665-.019.127 0 .228.019.304.057.076.038.114.089.114.152 0 .089-.05.165-.152.228-.101.063-.26.114-.475.152a8.881 8.881 0 0 0-1.463.418c-.507.19-.982.469-1.425.836a29.678 29.678 0 0 0-2.413 2.242c-.38.38-.792.817-1.235 1.311-.076.076-.044.19.095.342l4.598 4.902c.279.304.5.538.665.703.177.165.367.298.57.399.215.089.5.171.855.247.215.05.374.101.475.152.101.038.152.101.152.19 0 .076-.05.127-.152.152a1.158 1.158 0 0 1-.399.057c-.367 0-.684-.013-.95-.038l-.779-.038a18.603 18.603 0 0 0-.912-.019h-.627c-.177.013-.481.019-.912.019a1.7 1.7 0 0 1-.399-.038c-.101-.038-.152-.095-.152-.171 0-.14.171-.247.513-.323.355-.089.532-.215.532-.38a.357.357 0 0 0-.095-.228 2.622 2.622 0 0 0-.19-.247l-4.028-4.446a1.953 1.953 0 0 0-.247-.209c-.076-.076-.14-.114-.19-.114-.05 0-.076.05-.076.152v.247c0 .595.006 1.165.019 1.71.025.532.05 1.178.076 1.938.013.266.05.513.114.741.076.228.196.418.361.57.177.152.424.26.741.323.215.038.374.082.475.133.101.05.152.12.152.209 0 .076-.05.127-.152.152a1.158 1.158 0 0 1-.399.057c-.342 0-.608-.013-.798-.038a8.56 8.56 0 0 0-.494-.057 3.349 3.349 0 0 0-.57-.038c-.304 0-.576.013-.817.038-.228.013-.462.032-.703.057-.24.025-.532.038-.874.038zm18.956.171a6.632 6.632 0 0 1-2.394-.437 6.401 6.401 0 0 1-2.014-1.273 6.258 6.258 0 0 1-1.387-1.976c-.342-.773-.513-1.628-.513-2.565 0-.861.139-1.685.418-2.47a6.386 6.386 0 0 1 1.235-2.128 5.903 5.903 0 0 1 2.033-1.482c.81-.367 1.741-.551 2.793-.551.836 0 1.634.152 2.394.456a5.98 5.98 0 0 1 2.014 1.273 5.983 5.983 0 0 1 1.387 1.976c.342.76.513 1.609.513 2.546 0 .849-.14 1.672-.418 2.47a6.382 6.382 0 0 1-1.235 2.128 5.902 5.902 0 0 1-2.033 1.482c-.811.367-1.742.551-2.793.551zm.285-.76c.975 0 1.786-.203 2.432-.608a3.796 3.796 0 0 0 1.444-1.729c.329-.747.494-1.615.494-2.603 0-.874-.102-1.697-.304-2.47a6.34 6.34 0 0 0-.912-2.033 4.189 4.189 0 0 0-1.482-1.387c-.596-.33-1.292-.494-2.09-.494-.95 0-1.748.203-2.394.608-.646.405-1.134.975-1.463 1.71-.33.722-.494 1.577-.494 2.565 0 .887.095 1.716.285 2.489.202.773.5 1.457.893 2.052a4.539 4.539 0 0 0 1.5 1.406c.596.33 1.293.494 2.09.494z" fill="#fff"/></svg>