<svg width="84" height="84" viewBox="0 0 84 84" fill="none" xmlns="http://www.w3.org/2000/svg">
<g>
<circle cx="42" cy="42" r="23.25" stroke="white" stroke-width="1.5"/>
<path d="M39.5017 49.605C39.3197 49.605 39.1727 49.584 39.0607 49.542C38.9487 49.514 38.8927 49.458 38.8927 49.374C38.8927 49.276 38.9487 49.199 39.0607 49.143C39.1727 49.087 39.3477 49.038 39.5857 48.996C40.1177 48.898 40.5237 48.709 40.8037 48.429C41.0837 48.135 41.2237 47.736 41.2237 47.232V44.124C41.2237 43.844 41.1467 43.543 40.9927 43.221C40.8527 42.885 40.7547 42.668 40.6987 42.57L38.2417 38.538C38.1437 38.37 37.9897 38.139 37.7797 37.845C37.5697 37.537 37.3387 37.25 37.0867 36.984C36.8487 36.718 36.6107 36.55 36.3727 36.48C36.1487 36.41 35.9737 36.34 35.8477 36.27C35.7357 36.2 35.6797 36.116 35.6797 36.018C35.6797 35.934 35.7357 35.878 35.8477 35.85C35.9597 35.808 36.1067 35.787 36.2887 35.787C36.6107 35.787 36.9817 35.801 37.4017 35.829C37.8217 35.843 38.2697 35.85 38.7457 35.85C39.0677 35.85 39.3687 35.843 39.6487 35.829C39.9427 35.815 40.2017 35.808 40.4257 35.808C40.6077 35.808 40.7547 35.829 40.8667 35.871C40.9787 35.899 41.0347 35.955 41.0347 36.039C41.0347 36.137 40.9787 36.221 40.8667 36.291C40.7547 36.347 40.5797 36.403 40.3417 36.459C40.1457 36.515 39.9847 36.578 39.8587 36.648C39.7327 36.718 39.6697 36.83 39.6697 36.984C39.6697 37.166 39.7607 37.418 39.9427 37.74L41.8747 41.31C42.1547 41.842 42.3507 42.108 42.4627 42.108C42.5467 42.108 42.6377 42.052 42.7357 41.94C42.8337 41.814 42.9737 41.604 43.1557 41.31C43.4777 40.82 43.7647 40.351 44.0167 39.903C44.2687 39.455 44.5697 38.916 44.9197 38.286C45.0597 38.048 45.1577 37.845 45.2137 37.677C45.2697 37.495 45.2977 37.341 45.2977 37.215C45.2977 36.949 45.1997 36.767 45.0037 36.669C44.8217 36.571 44.6327 36.508 44.4367 36.48C44.2967 36.452 44.1427 36.403 43.9747 36.333C43.8207 36.249 43.7437 36.158 43.7437 36.06C43.7437 35.976 43.7997 35.92 43.9117 35.892C44.0237 35.85 44.1707 35.829 44.3527 35.829C44.6747 35.829 44.9407 35.836 45.1507 35.85C45.3607 35.85 45.6197 35.85 45.9277 35.85C46.3617 35.85 46.7747 35.843 47.1667 35.829C47.5587 35.801 47.8737 35.787 48.1117 35.787C48.2937 35.787 48.4407 35.808 48.5527 35.85C48.6647 35.878 48.7207 35.934 48.7207 36.018C48.7207 36.116 48.6087 36.207 48.3847 36.291C48.1607 36.375 47.9017 36.459 47.6077 36.543C47.2437 36.641 46.9357 36.844 46.6837 37.152C46.4457 37.446 46.1377 37.88 45.7597 38.454C45.4797 38.888 45.2417 39.252 45.0457 39.546C44.8637 39.84 44.6887 40.113 44.5207 40.365C44.3667 40.617 44.2057 40.883 44.0377 41.163C43.8697 41.429 43.6667 41.758 43.4287 42.15C43.2467 42.444 43.1207 42.682 43.0507 42.864C42.9807 43.046 42.9387 43.221 42.9247 43.389C42.9107 43.543 42.9037 43.76 42.9037 44.04V47.232C42.9037 47.708 43.0507 48.1 43.3447 48.408C43.6387 48.702 44.0447 48.898 44.5627 48.996C44.8007 49.038 44.9757 49.087 45.0877 49.143C45.1997 49.199 45.2557 49.276 45.2557 49.374C45.2557 49.458 45.1997 49.514 45.0877 49.542C44.9757 49.584 44.8287 49.605 44.6467 49.605C44.2687 49.605 43.9537 49.591 43.7017 49.563C43.4637 49.549 43.2327 49.535 43.0087 49.521C42.7847 49.507 42.5117 49.5 42.1897 49.5C41.8397 49.5 41.5317 49.507 41.2657 49.521C41.0137 49.535 40.7477 49.549 40.4677 49.563C40.2017 49.591 39.8797 49.605 39.5017 49.605Z" fill="white"/>
</g>
</svg>
