<svg width="76" height="24" fill="none" xmlns="http://www.w3.org/2000/svg"><path fill-rule="evenodd" clip-rule="evenodd" d="M14.57 11.654v.733c.002.816.003 1.627-.044 2.444-.053 1.098-.302 2.07-1.107 2.875-.802.803-1.777 1.053-2.875 1.106-.83.047-1.654.046-2.484.045h-.692c-.828.001-1.653.002-2.484-.045-1.098-.053-2.071-.302-2.876-1.106-.802-.803-1.053-1.777-1.106-2.875a43.272 43.272 0 0 1-.045-2.485v-.691c0-.83-.002-1.654.045-2.485.053-1.098.302-2.07 1.106-2.875.803-.803 1.778-1.054 2.876-1.107.83-.047 1.654-.046 2.484-.045h.692a43.3 43.3 0 0 1 2.484.045c1.098.053 2.07.302 2.875 1.107.803.802 1.054 1.777 1.107 2.875.046.83.046 1.654.045 2.484zM4.195 12a3.513 3.513 0 0 0 3.518 3.518A3.513 3.513 0 0 0 11.23 12a3.513 3.513 0 0 0-3.518-3.519 3.513 3.513 0 0 0-3.518 3.519zm7.18-2.842a.82.82 0 1 1 0-1.643.82.82 0 1 1 0 1.643zM5.427 12a2.292 2.292 0 0 1 2.286-2.286A2.292 2.292 0 0 1 10 12a2.291 2.291 0 0 1-2.287 2.287A2.291 2.291 0 0 1 5.426 12z" fill="#fff"/><path d="M19.158 15.34a.525.525 0 0 1-.234-.044c-.06-.022-.09-.055-.09-.1 0-.052.03-.097.09-.134.067-.044.16-.085.278-.122.193-.06.372-.149.535-.268.164-.119.305-.315.424-.59.208-.476.397-.921.568-1.337.178-.416.345-.825.501-1.226.156-.401.316-.817.48-1.248.17-.438.349-.914.534-1.426.038-.104.07-.208.1-.312a1.57 1.57 0 0 0 .056-.335l.2-.067a.844.844 0 0 0 .201-.1.324.324 0 0 0 .134-.2.708.708 0 0 1 .078-.179c.008-.007.015-.01.022-.01.015 0 .026.007.034.021.015.03.026.067.033.112l.045.134c.178.564.364 1.14.557 1.727.193.587.379 1.155.557 1.705l.502 1.47c.156.431.278.78.367 1.048.104.297.216.52.335.668.119.149.241.253.367.312.134.06.275.104.424.134.126.022.219.06.278.112.06.044.09.092.09.144 0 .045-.03.075-.09.09a1 1 0 0 1-.234.022c-.104 0-.245-.008-.423-.022a17.756 17.756 0 0 1-.568-.034c-.2-.007-.387-.011-.558-.011h-.434c-.149 0-.286.004-.412.011h-.324a.679.679 0 0 1-.233-.033c-.06-.023-.09-.056-.09-.1 0-.053.038-.097.112-.134a.866.866 0 0 1 .256-.078c.245-.037.42-.1.524-.19a.4.4 0 0 0 .156-.312c0-.111-.026-.27-.078-.479a15.669 15.669 0 0 0-.357-1.326c-.015-.06-.044-.093-.089-.1a.66.66 0 0 0-.212-.022h-2.106c-.03 0-.063.014-.1.044-.03.022-.06.074-.09.156-.021.074-.059.193-.11.357a18.765 18.765 0 0 0-.29.98 1.49 1.49 0 0 0-.056.268c0 .163.063.3.19.412.126.104.278.178.456.223.245.067.368.141.368.223 0 .044-.03.078-.09.1a.994.994 0 0 1-.233.022c-.097 0-.238-.003-.424-.01a14.673 14.673 0 0 0-.59-.012c-.245 0-.483.011-.713.033-.23.023-.439.034-.624.034zm2.607-3.197h1.727c.104 0 .156-.019.156-.056a.1.1 0 0 0-.01-.044.211.211 0 0 0-.012-.067l-.87-2.72c-.044-.133-.077-.2-.1-.2-.014 0-.044.063-.088.19l-1.015 2.73a.363.363 0 0 0-.022.089c0 .037.019.06.056.067.044.007.104.01.178.01zm12.762 3.376c-.208 0-.405-.018-.59-.056a1.502 1.502 0 0 1-.513-.178c-.156-.089-.3-.212-.434-.368l-.513-.635a15.145 15.145 0 0 1-.524-.713c-.178-.267-.397-.609-.657-1.025a1.136 1.136 0 0 0-.48-.435 1.824 1.824 0 0 0-.49-.167 2.535 2.535 0 0 0-.39-.067c-.06-.007-.104.012-.133.056a.371.371 0 0 0-.034.167v1.961c0 .238.056.446.167.624.112.171.305.283.58.335.126.022.219.048.278.078.06.03.09.07.09.122 0 .045-.03.075-.09.09a.679.679 0 0 1-.234.033c-.2 0-.356-.008-.468-.022a4.918 4.918 0 0 0-.29-.034 1.957 1.957 0 0 0-.334-.022c-.185 0-.352.007-.501.022a9.174 9.174 0 0 0-.435.034 5.017 5.017 0 0 1-.512.022.679.679 0 0 1-.234-.034c-.06-.014-.09-.044-.09-.089 0-.089.123-.156.368-.2.283-.052.487-.138.613-.257.134-.118.2-.315.2-.59V9.424c0-.282-.014-.494-.044-.635-.022-.149-.081-.253-.178-.312-.09-.06-.242-.1-.457-.123a.698.698 0 0 1-.279-.078c-.059-.044-.089-.093-.089-.145 0-.044.03-.074.09-.089a.679.679 0 0 1 .233-.033h.446c.104 0 .2.004.29.011h.357c.14 0 .267-.004.378-.011a4.82 4.82 0 0 1 .368-.034c.141-.007.32-.01.535-.01.817 0 1.437.152 1.86.456.432.305.647.762.647 1.37 0 .335-.067.625-.2.87-.134.238-.301.438-.502.602-.2.163-.405.297-.613.4-.03.008-.044.027-.044.056a.494.494 0 0 0 .044.09c.23.349.45.68.658.991a10.394 10.394 0 0 0 1.605 1.839c.192.17.39.275.59.312.2.037.43.056.69.056.112 0 .168.04.168.122 0 .112-.056.193-.167.245-.112.06-.238.097-.38.112-.14.022-.26.033-.356.033zm-4.167-3.9a1.605 1.605 0 0 0 1.46-.847 1.62 1.62 0 0 0 .211-.802c0-.305-.04-.583-.122-.836a1.04 1.04 0 0 0-.468-.601c-.23-.156-.58-.234-1.048-.234-.238 0-.393.078-.468.234-.074.148-.119.416-.134.802a47.84 47.84 0 0 0-.022.758v1.136c0 .186.052.297.156.334.104.038.25.056.435.056zm10.405 3.833a4.309 4.309 0 0 1-2.797-1.025 3.754 3.754 0 0 1-.902-1.192 3.66 3.66 0 0 1-.323-1.549c0-.542.115-1.044.345-1.504.23-.46.546-.862.947-1.204a4.41 4.41 0 0 1 1.37-.79 4.666 4.666 0 0 1 1.639-.29c.29 0 .535.01.735.033.2.022.394.056.58.1.193.037.416.09.668.156.112.03.19.074.234.134.052.06.082.141.09.245.014.17.033.357.055.557.022.193.037.435.045.724.007.052-.019.097-.078.134a.242.242 0 0 1-.179.022c-.06-.014-.1-.063-.122-.144a4.066 4.066 0 0 0-.257-.725 1.26 1.26 0 0 0-.434-.512 1.949 1.949 0 0 0-.68-.279c-.26-.067-.542-.1-.847-.1-.43 0-.832.089-1.203.267-.364.171-.68.409-.947.713-.26.298-.465.636-.613 1.014a3.209 3.209 0 0 0-.223 1.182c0 .453.07.898.212 1.337.148.438.356.835.624 1.192.275.35.598.631.97.847.378.208.798.312 1.258.312.535 0 .977-.123 1.326-.368.35-.245.647-.587.892-1.025.052-.097.126-.145.223-.145.104 0 .156.06.156.178 0 .06-.015.156-.045.29-.03.126-.07.264-.123.412-.044.142-.089.268-.133.38a.646.646 0 0 1-.134.2.63.63 0 0 1-.223.1 4.117 4.117 0 0 1-.992.245 8.19 8.19 0 0 1-1.114.078zm4.534-.111a.525.525 0 0 1-.234-.045c-.06-.022-.09-.055-.09-.1 0-.052.03-.097.09-.134.067-.044.16-.085.279-.122.193-.06.371-.149.534-.268.164-.119.305-.315.424-.59.208-.476.397-.921.568-1.337.178-.416.346-.825.502-1.226.156-.401.315-.817.479-1.248.17-.438.349-.914.535-1.426.037-.104.07-.208.1-.312a1.57 1.57 0 0 0 .056-.335l.2-.067a.844.844 0 0 0 .2-.1.325.325 0 0 0 .134-.2.708.708 0 0 1 .078-.179c.008-.007.015-.01.023-.01.014 0 .026.007.033.021.015.03.026.067.033.112l.045.134c.178.564.364 1.14.557 1.727.193.587.38 1.155.557 1.705l.502 1.47c.156.431.278.78.367 1.048.105.297.216.52.335.668.119.149.241.253.367.312.134.06.275.104.424.134.126.022.22.06.279.112.059.044.089.092.089.144 0 .045-.03.075-.09.09a.999.999 0 0 1-.233.022c-.105 0-.246-.008-.424-.022a17.756 17.756 0 0 1-.568-.034c-.2-.007-.387-.011-.557-.011h-.435c-.148 0-.286.004-.412.011h-.323a.679.679 0 0 1-.234-.033c-.06-.023-.09-.056-.09-.1 0-.053.038-.097.112-.134a.866.866 0 0 1 .256-.078c.245-.037.42-.1.524-.19a.4.4 0 0 0 .156-.312c0-.111-.026-.27-.078-.479a15.669 15.669 0 0 0-.357-1.326c-.014-.06-.044-.093-.089-.1a.661.661 0 0 0-.212-.022h-2.105c-.03 0-.064.014-.1.044-.03.022-.06.074-.09.156l-.111.357a18.765 18.765 0 0 0-.29.98 1.49 1.49 0 0 0-.056.268c0 .163.063.3.19.412.126.104.278.178.456.223.246.067.368.141.368.223 0 .044-.03.078-.089.1a.994.994 0 0 1-.234.022c-.096 0-.238-.003-.423-.01a14.673 14.673 0 0 0-.59-.012c-.246 0-.484.011-.714.033-.23.023-.438.034-.624.034zm2.607-3.198h1.727c.104 0 .156-.019.156-.056a.099.099 0 0 0-.01-.044.211.211 0 0 0-.012-.067l-.869-2.72c-.045-.133-.078-.2-.1-.2-.015 0-.045.063-.09.19l-1.013 2.73a.363.363 0 0 0-.023.089c0 .037.019.06.056.067.045.007.104.01.178.01zm9.798 3.22c-.074 0-.241-.007-.501-.022-.253-.015-.546-.03-.88-.045a41.43 41.43 0 0 0-.936-.01c-.149 0-.275.003-.38.01-.096.008-.203.015-.322.023a3.774 3.774 0 0 1-.468.022.679.679 0 0 1-.234-.034c-.06-.022-.09-.059-.09-.111 0-.06.03-.097.09-.111.06-.023.152-.045.278-.067.282-.052.476-.138.58-.257.111-.118.167-.312.167-.579V9.168c0-.268-.056-.457-.167-.569-.104-.111-.297-.193-.58-.245a1.706 1.706 0 0 1-.278-.067c-.06-.03-.09-.074-.09-.133 0-.052.03-.09.09-.112a.679.679 0 0 1 .234-.033c.193 0 .345.004.456.011.12 0 .234.004.346.011h.434a15.458 15.458 0 0 0 1.014-.045c.201-.014.38-.025.535-.033a8.82 8.82 0 0 1 .357-.011c.758 0 1.404.093 1.939.279.535.178.97.43 1.303.757.335.32.58.695.736 1.126.163.423.245.88.245 1.37 0 .535-.1 1.037-.3 1.505-.201.468-.48.884-.836 1.248a3.91 3.91 0 0 1-1.237.835c-.468.2-.97.301-1.505.301zm-.133-.39c.58 0 1.092-.141 1.537-.423a2.834 2.834 0 0 0 1.037-1.17c.252-.498.378-1.07.378-1.716 0-.535-.089-1.01-.267-1.427a3.092 3.092 0 0 0-.713-1.058 3.05 3.05 0 0 0-1.003-.658 2.884 2.884 0 0 0-1.125-.234c-.32 0-.595.012-.825.034-.223.015-.394.07-.513.167-.118.097-.178.256-.178.48v4.969c0 .297.082.52.245.668.164.149.372.25.624.301.26.045.528.067.803.067zm5.792.368a.679.679 0 0 1-.234-.034c-.06-.014-.09-.044-.09-.089 0-.089.123-.156.369-.2.282-.052.497-.138.646-.257.148-.118.223-.308.223-.568V9.157c0-.26-.056-.446-.167-.558-.104-.111-.297-.193-.58-.245-.245-.044-.367-.119-.367-.223 0-.044.03-.074.089-.089a.68.68 0 0 1 .234-.033c.2 0 .364.004.49.011l.379.022h.835l.335-.022c.119-.007.278-.011.479-.011.096 0 .174.011.234.033.06.015.09.045.09.09 0 .051-.03.096-.09.133a.814.814 0 0 1-.279.09c-.275.051-.475.133-.601.244-.127.112-.19.298-.19.558v5.036c0 .26.078.45.234.568.156.12.372.205.647.257.126.022.219.048.278.078.06.03.09.07.09.122 0 .045-.03.075-.09.09a.68.68 0 0 1-.234.033c-.2 0-.368-.008-.501-.022l-.368-.023a9.49 9.49 0 0 0-.925 0 76.98 76.98 0 0 1-.423.023 5.017 5.017 0 0 1-.513.022zm4.41 0a.526.526 0 0 1-.234-.045c-.06-.022-.09-.055-.09-.1 0-.052.03-.097.09-.134.067-.044.16-.085.279-.122.193-.06.371-.149.535-.268.163-.119.304-.315.423-.59.208-.476.397-.921.568-1.337.178-.416.346-.825.502-1.226.156-.401.315-.817.479-1.248.17-.438.349-.914.535-1.426.037-.104.07-.208.1-.312a1.57 1.57 0 0 0 .056-.335l.2-.067a.843.843 0 0 0 .2-.1.325.325 0 0 0 .135-.2.708.708 0 0 1 .078-.179c.007-.007.014-.01.022-.01.015 0 .026.007.033.021.015.03.026.067.034.112l.044.134c.178.564.364 1.14.557 1.727.194.587.38 1.155.557 1.705l.502 1.47c.156.431.278.78.368 1.048.104.297.215.52.334.668.119.149.241.253.368.312.133.06.275.104.423.134.126.022.22.06.279.112.059.044.089.092.089.144 0 .045-.03.075-.09.09a.999.999 0 0 1-.233.022c-.104 0-.245-.008-.424-.022a17.756 17.756 0 0 1-.568-.034c-.2-.007-.386-.011-.557-.011h-.435c-.148 0-.286.004-.412.011h-.323a.68.68 0 0 1-.234-.033c-.06-.023-.09-.056-.09-.1 0-.053.038-.097.112-.134a.866.866 0 0 1 .256-.078c.246-.037.42-.1.524-.19a.4.4 0 0 0 .156-.312c0-.111-.026-.27-.078-.479a15.827 15.827 0 0 0-.356-1.326c-.015-.06-.045-.093-.09-.1a.66.66 0 0 0-.211-.022H70.08c-.03 0-.064.014-.1.044-.03.022-.06.074-.09.156l-.111.357a19.187 19.187 0 0 0-.29.98 1.5 1.5 0 0 0-.056.268c0 .163.063.3.19.412.126.104.278.178.457.223.245.067.367.141.367.223 0 .044-.03.078-.089.1a.995.995 0 0 1-.234.022c-.096 0-.237-.003-.423-.01a14.668 14.668 0 0 0-.59-.012c-.246 0-.484.011-.714.033-.23.023-.438.034-.624.034zm2.608-3.198h1.727c.104 0 .156-.019.156-.056a.099.099 0 0 0-.011-.044.211.211 0 0 0-.012-.067l-.869-2.72c-.044-.133-.078-.2-.1-.2-.015 0-.045.063-.09.19l-1.013 2.73a.366.366 0 0 0-.022.089c0 .037.018.06.055.067.045.007.104.01.178.01z" fill="#fff"/></svg>