<svg width="56" height="24" fill="none" xmlns="http://www.w3.org/2000/svg"><path fill-rule="evenodd" clip-rule="evenodd" d="M13.857 11.654v.733c.001.816.002 1.627-.045 2.444-.053 1.098-.302 2.07-1.106 2.875-.803.803-1.778 1.053-2.875 1.106-.83.047-1.655.046-2.485.045h-.692c-.828.001-1.653.002-2.484-.045-1.098-.053-2.07-.302-2.875-1.106C.492 16.903.24 15.929.188 14.83.141 14 .142 13.175.143 12.346v-.691c0-.83-.002-1.654.045-2.485C.241 8.072.49 7.1 1.295 6.295c.802-.803 1.777-1.054 2.875-1.107.83-.047 1.654-.046 2.484-.045h.692a43.3 43.3 0 0 1 2.485.045c1.097.053 2.07.302 2.875 1.107.802.802 1.053 1.777 1.106 2.875.047.83.046 1.654.045 2.484zM3.48 12a3.513 3.513 0 0 0 3.518 3.518A3.513 3.513 0 0 0 10.517 12a3.513 3.513 0 0 0-3.519-3.519 3.513 3.513 0 0 0-3.518 3.519zm7.18-2.842a.82.82 0 1 1 0-1.643.82.82 0 1 1 0 1.643zM4.713 12a2.292 2.292 0 0 1 2.286-2.286A2.292 2.292 0 0 1 9.285 12a2.291 2.291 0 0 1-2.287 2.287A2.291 2.291 0 0 1 4.712 12z" fill="#fff"/><path d="M18.678 15.34a.68.68 0 0 1-.234-.033c-.06-.014-.09-.044-.09-.089 0-.052.03-.093.09-.122.06-.03.152-.056.279-.078a.78.78 0 0 0 .456-.268c.12-.14.197-.341.234-.601.09-.669.168-1.304.234-1.906.067-.609.12-1.155.156-1.638.045-.49.067-.891.067-1.203v-.19a1.51 1.51 0 0 0-.045-.357.346.346 0 0 0-.133-.189 1.111 1.111 0 0 0-.39-.223 2.782 2.782 0 0 0-.446-.111.395.395 0 0 1-.178-.078.202.202 0 0 1-.067-.145c0-.06.034-.093.1-.1.075-.015.168-.022.279-.022a14.163 14.163 0 0 1 .836.045c.178.014.341.025.49.033.156.007.271.01.345.01.052 0 .097.016.134.045a.24.24 0 0 1 .078.134c.037.134.074.275.111.423.038.149.082.294.134.435l1.76 4.468a.17.17 0 0 0 .123.1.125.125 0 0 0 .134-.066l2.195-4.569a8.798 8.798 0 0 0 .2-.836c.023-.096.06-.144.112-.144h.401c.223 0 .457-.015.702-.045.253-.03.442-.045.569-.045.037 0 .085.008.145.023.059.007.089.037.089.089a.14.14 0 0 1-.067.122.992.992 0 0 1-.223.112 41.24 41.24 0 0 1-.323.122 7.79 7.79 0 0 0-.334.134.422.422 0 0 0-.19.156.354.354 0 0 0-.078.223c0 .52.008 1.01.022 1.47l.067 1.316c.023.416.049.828.078 1.237.03.408.056.824.078 1.248.015.23.09.408.223.534.134.12.338.205.613.257.126.022.22.048.278.078.06.03.09.07.09.122 0 .045-.03.075-.09.09a.679.679 0 0 1-.233.033c-.201 0-.368-.008-.502-.022a99.606 99.606 0 0 1-.368-.023 7.167 7.167 0 0 0-.813 0 22.71 22.71 0 0 1-.323.023 3.772 3.772 0 0 1-.468.022.679.679 0 0 1-.234-.034c-.06-.014-.09-.044-.09-.089 0-.052.03-.093.09-.122a.7.7 0 0 1 .278-.078c.216-.03.364-.104.446-.223.082-.126.123-.32.123-.58 0-.534-.008-1.017-.023-1.448-.007-.431-.022-.854-.044-1.27-.022-.424-.045-.884-.067-1.382-.008-.082-.03-.119-.067-.112-.037 0-.074.038-.111.112l-2.563 5.226c-.015.037-.049.056-.1.056-.053.007-.086-.015-.1-.067-.29-.87-.602-1.724-.937-2.563a82.94 82.94 0 0 0-1.114-2.73c-.015-.037-.04-.056-.078-.056-.037 0-.06.019-.067.056-.067.52-.13.999-.19 1.437-.051.431-.092.858-.122 1.282-.03.423-.044.887-.044 1.393 0 .2.063.386.189.557a.852.852 0 0 0 .535.312c.126.022.219.048.278.078.06.03.09.07.09.122 0 .045-.03.075-.09.09a.68.68 0 0 1-.234.033c-.2 0-.352-.008-.457-.022a19.348 19.348 0 0 1-.267-.023 3.513 3.513 0 0 0-.323-.01 3.35 3.35 0 0 0-.312.01c-.074.008-.16.015-.256.023a3.226 3.226 0 0 1-.446.022zm14.511.101c-.661 0-1.214-.115-1.66-.345a2.35 2.35 0 0 1-1.003-.992c-.223-.43-.334-.929-.334-1.493V9.19c0-.267-.056-.46-.167-.58a.643.643 0 0 0-.346-.233c-.245-.067-.368-.149-.368-.246 0-.044.03-.074.09-.089a.679.679 0 0 1 .234-.033c.17 0 .338.007.501.022a13.191 13.191 0 0 0 1.047 0 8.79 8.79 0 0 1 .413-.011.68.68 0 0 1 .234.033c.06.015.089.045.089.09 0 .052-.03.092-.09.122a1.82 1.82 0 0 1-.278.1c-.089.03-.19.116-.3.257a.855.855 0 0 0-.168.546v3.13c0 .595.1 1.085.301 1.472.2.379.475.66.825.847.356.178.761.267 1.214.267.765 0 1.326-.264 1.683-.791.356-.535.535-1.237.535-2.106 0-.164-.004-.379-.012-.646 0-.268-.003-.554-.01-.858a356.4 356.4 0 0 0-.023-.892c0-.193-.019-.375-.056-.546a1.357 1.357 0 0 0-.145-.434c-.066-.127-.152-.205-.256-.234a2.55 2.55 0 0 1-.245-.09c-.082-.037-.123-.081-.123-.133 0-.045.03-.075.09-.09a.68.68 0 0 1 .234-.033c.17 0 .312.004.423.011h.747l.3-.022c.097-.007.186-.011.268-.011a.68.68 0 0 1 .234.033c.06.015.089.045.089.09 0 .096-.123.17-.368.222a.562.562 0 0 0-.412.279c-.082.148-.13.334-.145.557a58.568 58.568 0 0 0-.078 1.75c-.007.527-.018 1.047-.033 1.56a3.14 3.14 0 0 1-.413 1.526c-.26.446-.609.795-1.047 1.047a2.92 2.92 0 0 1-1.47.368zm5.24-.1a.525.525 0 0 1-.234-.045c-.06-.022-.09-.055-.09-.1 0-.052.03-.097.09-.134.066-.044.16-.085.278-.122.193-.06.372-.149.535-.268.163-.119.305-.315.423-.59.208-.476.398-.921.569-1.337.178-.416.345-.825.501-1.226.156-.401.316-.817.48-1.248.17-.438.348-.914.534-1.426.037-.104.07-.208.1-.312a1.57 1.57 0 0 0 .056-.335l.2-.067a.844.844 0 0 0 .201-.1.325.325 0 0 0 .134-.2.708.708 0 0 1 .078-.179c.007-.007.015-.01.022-.01.015 0 .026.007.034.021.015.03.026.067.033.112l.045.134c.178.564.364 1.14.557 1.727.193.587.379 1.155.557 1.705.186.542.353 1.032.501 1.47.156.431.279.78.368 1.048.104.297.216.52.334.668.12.149.242.253.368.312.134.06.275.104.424.134.126.022.219.06.278.112.06.044.09.092.09.144 0 .045-.03.075-.09.09a.999.999 0 0 1-.234.022c-.104 0-.245-.008-.423-.022a17.756 17.756 0 0 1-.569-.034c-.2-.007-.386-.011-.557-.011h-.434c-.149 0-.286.004-.413.011h-.323a.679.679 0 0 1-.234-.033c-.06-.023-.089-.056-.089-.1 0-.053.037-.097.112-.134a.866.866 0 0 1 .256-.078c.245-.037.42-.1.524-.19a.4.4 0 0 0 .156-.312c0-.111-.026-.27-.078-.479a15.669 15.669 0 0 0-.357-1.326c-.015-.06-.045-.093-.09-.1a.661.661 0 0 0-.21-.022h-2.107c-.03 0-.063.014-.1.044-.03.022-.06.074-.09.156l-.11.357a18.765 18.765 0 0 0-.29.98 1.49 1.49 0 0 0-.056.268c0 .163.063.3.19.412.126.104.278.178.456.223.245.067.368.141.368.223 0 .044-.03.078-.09.1a.994.994 0 0 1-.233.022c-.097 0-.238-.003-.424-.01a14.673 14.673 0 0 0-.59-.012c-.245 0-.483.011-.713.033-.23.023-.439.034-.624.034zm2.607-3.198h1.727c.104 0 .156-.019.156-.056a.099.099 0 0 0-.011-.044.211.211 0 0 0-.011-.067l-.87-2.72c-.044-.133-.077-.2-.1-.2-.014 0-.044.063-.089.19l-1.014 2.73a.363.363 0 0 0-.022.089c0 .037.019.06.056.067.044.007.104.01.178.01zm13.107 3.332c-.066 0-.2-.056-.4-.168-.194-.111-.38-.29-.558-.534-.03-.038-.122-.149-.278-.335a24.502 24.502 0 0 0-.58-.69 80.88 80.88 0 0 0-.758-.914l-.824-.98a84.45 84.45 0 0 0-.769-.903 43.734 43.734 0 0 0-.602-.702 44.28 44.28 0 0 0-.29-.357.555.555 0 0 0-.133-.134c-.037-.03-.07-.044-.1-.044-.038 0-.064.03-.078.089a.528.528 0 0 0-.023.145 1601.506 1601.506 0 0 0-.045 2.73c-.007.505-.01.988-.01 1.448 0 .2.048.387.144.557.104.171.294.283.569.335.126.022.219.048.278.078.06.03.09.07.09.122 0 .045-.03.075-.09.09a.68.68 0 0 1-.234.033c-.2 0-.353-.008-.457-.022a19.348 19.348 0 0 1-.267-.023 3.513 3.513 0 0 0-.323-.01 3.35 3.35 0 0 0-.312.01c-.074.008-.16.015-.256.023a3.228 3.228 0 0 1-.446.022.68.68 0 0 1-.234-.034c-.06-.014-.09-.044-.09-.089 0-.052.03-.093.09-.122.06-.03.152-.06.278-.09.216-.059.372-.167.468-.323.097-.163.156-.36.179-.59.03-.282.06-.654.089-1.114.03-.468.056-.988.078-1.56.022-.58.033-1.174.033-1.783 0-.394-.104-.676-.312-.847-.2-.171-.464-.308-.79-.412a4.906 4.906 0 0 0-.201-.09c-.097-.052-.145-.111-.145-.178 0-.067.033-.108.1-.122a.534.534 0 0 1 .156-.034c.215.008.39.015.524.022.133 0 .252.004.356.012l.346.022h.49c.067 0 .119.018.156.056.037.037.074.081.111.133.03.045.127.171.29.38.171.2.379.456.624.768.253.305.528.639.825 1.003.297.356.594.717.891 1.08.297.357.572.692.825 1.004.252.304.46.557.624.757.17.2.27.32.3.357.03.03.071.074.123.134.06.059.112.089.156.089.067 0 .104-.078.112-.234v-.59c.007-.298.01-.655.01-1.07.008-.424.012-.88.012-1.371V9c-.008-.149-.086-.283-.234-.402a.95.95 0 0 0-.412-.211 2.127 2.127 0 0 1-.346-.09c-.104-.037-.156-.081-.156-.133 0-.045.052-.074.156-.09.104-.022.204-.033.301-.033h1.059l.334-.022c.126-.007.3-.011.524-.011a.68.68 0 0 1 .234.033c.059.015.089.045.089.09 0 .103-.123.178-.368.222-.275.052-.457.12-.546.2-.09.083-.141.216-.156.402l-.011.435v.958c0 .386-.004.802-.011 1.248v2.518c0 .178.003.342.01.49.016.142.027.264.034.368.008.097.011.171.011.223 0 .119-.026.193-.078.223a.237.237 0 0 1-.156.056z" fill="#fff"/></svg>